/* XPM */
static char *result[] = {
/* columns rows colors chars-per-pixel */
"90 84 5 1 ",
"  c #141B1B",
". c #E46D3A",
"X c #965340",
"o c #EF914F",
"O c None",
/* pixels */
"OOOOOOOOOOOOOOOOOOOOOOOOOOOOOOOOOOOOOOOOOOOOOOOOOOOOOOOOOOOOOOOOOOOOOOOOOOOOOOOOOOOOOOOOOO",
"OOOOOOOOOOOOOOOOOOOOOOOOOOOOOOOOOOOOOOOOOOOOOOOOOOOOOOOOOOOOOOOOOOOOOOOOOOOOOOOOOOOOOOOOOO",
"OOOOOOOOOOOOOOOOOOOOOOOOOOOOOOOOOOOOOOOOOOOOOOOOOOOOOOOOOOOOOOOOOOOOOOOOOOOOOOOOOOOOOOOOOO",
"OOOOOOOOOOOOOOOOOOOOOOOOOOOOOOOOOOOOOOOOOOOOOOOOOOOOOOOOOOOOOOOOOOOOOOOOOOOOOOOOOOOOOOOOOO",
"OOOOOOOOOOOOOOOOOOOOOOOOOOOOOOOOOOOOOOOOOOOOOOOOOOOOOOOOOOOOOOOOOOOOOOOOOOOOOOOOOOOOOOOOOO",
"OOOOOOOOOOOOOOOOOOOOOOOOOOOOOOOOOOOOOOOOOOOOOOOOOOOOOOOOOOOOOOOOOOOOOOOOOOOOOOOOOOOOOOOOOO",
"OOOOOO...................................................................OOOOOOOOOOOOOOOOO",
"OOOOOO...................................................................OOOOOOOOOOOOOOOOO",
"OOOOOO...................................................................OOOOOOOOOOOOOOOOO",
"OOOOOO...................................................................OOOOOOOOOOOOOOOOO",
"OOOOOO...................................................................OOOOOOOOOOOOOOOOO",
"...............................................................................OOOOOOOOOOO",
"...............................................................................OOOOOOOOOOO",
"...............................................................................OOOOOOOOOOO",
"...............................................................................OOOOOOOOOOO",
"...............................................................................OOOOOOOOOOO",
"...............................................................................OOOOOOOOOOO",
"......                                                                   ......OOOOOOOOOOO",
"......                                                                   ......OOOOOOOOOOO",
"......                                                                   ......OOOOOOOOOOO",
"......                                                                   ......OOOOOOOOOOO",
"......                                                                   ......OOOOOOOOOOO",
"      oooooooooooooooo                                                         OOOOOOOOOOO",
"      oooooooooooooooo                                                         OOOOOOOOOOO",
"      oooooooooooooooo                                                         OOOOOOOOOOO",
"      oooooooooooooooo                                                         OOOOOOOOOOO",
"      oooooooooooooooo                                                         OOOOOOOOOOO",
"      oooooooooooooooo                                                         OOOOOOOOOOO",
"      oooooooooooooooo                                                         OOOOOOOOOOO",
"      oooooooooooooooo                                                         OOOOOOOOOOO",
"      oooooooooooooooo                                                         OOOOOOOOOOO",
"      oooooooooooooooo                                                         OOOOOOOOOOO",
"      oooooooooooooooo                                                         OOOOOOOOOOO",
"      oooooooooooooooo                                                         OOOOOOOOOOO",
"      ooooooooooooooooXXXXXX.................                                  OOOOOOOOOOO",
"      ooooooooooooooooXXXXXX.................                                  OOOOOOOOOOO",
"      ooooooooooooooooXXXXXX.................                                  OOOOOOOOOOO",
"      ooooooooooooooooXXXXXX.................                                  OOOOOOOOOOO",
"      ooooooooooooooooXXXXXX.................                                  OOOOOOOOOOO",
"      ooooooooooooooooXXXXXX.................                                  OOOOOOOOOOO",
"      ooooooooooooooooXXXXXX.................                                  OOOOOOOOOOO",
"      ooooooooooooooooXXXXXX.................                                  OOOOOOOOOOO",
"      ooooooooooooooooXXXXXX.................                                  OOOOOOOOOOO",
"      ooooooooooooooooXXXXXX.................                                  OOOOOOOOOOO",
"      ooooooooooooooooXXXXXX.................                                  OOOOOOOOOOO",
"      ooooooooooooooooXXXXXX.................                                  OOOOOOOOOOO",
"      ooooooooooooooooXXXXXX.................                                  OOOOOOOOOOO",
"      ooooooooooooooooXXXXXX.................                                  OOOOOOOOOOO",
"      ooooooooooooooooXXXXXX.................                                  OOOOOOOOOOO",
"      ooooooooooooooooXXXXXX.................                                  OOOOOOOOOOO",
"      ooooooooooooooooXXXXXX.................XXXXXXXXXXXXXXXXX                 OOOOOOOOOOO",
"      ooooooooooooooooXXXXXX.................XXXXXXXXXXXXXXXXX                 OOOOOOOOOOO",
"      ooooooooooooooooXXXXXX.................XXXXXXXXXXXXXXXXX                 OOOOOOOOOOO",
"      ooooooooooooooooXXXXXX.................XXXXXXXXXXXXXXXXX                 OOOOOOOOOOO",
"      ooooooooooooooooXXXXXX.................XXXXXXXXXXXXXXXXX                 OOOOOOOOOOO",
"      ooooooooooooooooXXXXXX.................XXXXXXXXXXXXXXXXX                 OOOOOOOOOOO",
"      ooooooooooooooooXXXXXX.................XXXXXXXXXXXXXXXXX                 OOOOOOOOOOO",
"      ooooooooooooooooXXXXXX.................XXXXXXXXXXXXXXXXX                 OOOOOOOOOOO",
"      ooooooooooooooooXXXXXX.................XXXXXXXXXXXXXXXXX                 OOOOOOOOOOO",
"      ooooooooooooooooXXXXXX.................XXXXXXXXXXXXXXXXX                 OOOOOOOOOOO",
"      ooooooooooooooooXXXXXX.................XXXXXXXXXXXXXXXXX                 OOOOOOOOOOO",
"      ooooooooooooooooXXXXXX.................XXXXXXXXXXXXXXXXX                 OOOOOOOOOOO",
"      ooooooooooooooooXXXXXX.................XXXXXXXXXXXXXXXXX                 OOOOOOOOOOO",
"      ooooooooooooooooXXXXXX.................XXXXXXXXXXXXXXXXX                 OOOOOOOOOOO",
"      ooooooooooooooooXXXXXX.................XXXXXXXXXXXXXXXXX                 OOOOOOOOOOO",
"      ooooooooooooooooXXXXXX.................XXXXXXXXXXXXXXXXX                 OOOOOOOOOOO",
"      ooooooooooooooooXXXXXX.................XXXXXXXXXXXXXXXXX                 OOOOOOOOOOO",
"      XXXXXXXXXXXXXXXXXXXXXX.................XXXXXXXXXXXXXXXXX                 OOOOOOOOOOO",
"      XXXXXXXXXXXXXXXXXXXXXX.................XXXXXXXXXXXXXXXXX                 OOOOOOOOOOO",
"      XXXXXXXXXXXXXXXXXXXXXX.................XXXXXXXXXXXXXXXXX                 OOOOOOOOOOO",
"      XXXXXXXXXXXXXXXXXXXXXX.................XXXXXXXXXXXXXXXXX                 OOOOOOOOOOO",
"      XXXXXXXXXXXXXXXXXXXXXX.................XXXXXXXXXXXXXXXXX                 OOOOOOOOOOO",
"      XXXXXXXXXXXXXXXXXXXXXX.................XXXXXXXXXXXXXXXXX                 OOOOOOOOOOO",
"OOOOOO                                                                   OOOOOOOOOOOOOOOOO",
"OOOOOO                                                                   OOOOOOOOOOOOOOOOO",
"OOOOOO                                                                   OOOOOOOOOOOOOOOOO",
"OOOOOO                                                                   OOOOOOOOOOOOOOOOO",
"OOOOOO                                                                   OOOOOOOOOOOOOOOOO",
"OOOOOOOOOOOOOOOOOOOOOOOOOOOOOOOOOOOOOOOOOOOOOOOOOOOOOOOOOOOOOOOOOOOOOOOOOOOOOOOOOOOOOOOOOO",
"OOOOOOOOOOOOOOOOOOOOOOOOOOOOOOOOOOOOOOOOOOOOOOOOOOOOOOOOOOOOOOOOOOOOOOOOOOOOOOOOOOOOOOOOOO",
"OOOOOOOOOOOOOOOOOOOOOOOOOOOOOOOOOOOOOOOOOOOOOOOOOOOOOOOOOOOOOOOOOOOOOOOOOOOOOOOOOOOOOOOOOO",
"OOOOOOOOOOOOOOOOOOOOOOOOOOOOOOOOOOOOOOOOOOOOOOOOOOOOOOOOOOOOOOOOOOOOOOOOOOOOOOOOOOOOOOOOOO",
"OOOOOOOOOOOOOOOOOOOOOOOOOOOOOOOOOOOOOOOOOOOOOOOOOOOOOOOOOOOOOOOOOOOOOOOOOOOOOOOOOOOOOOOOOO",
"OOOOOOOOOOOOOOOOOOOOOOOOOOOOOOOOOOOOOOOOOOOOOOOOOOOOOOOOOOOOOOOOOOOOOOOOOOOOOOOOOOOOOOOOOO"
};
