/* XPM */
static char *result[] = {
/* columns rows colors chars-per-pixel */
"90 90 4 1 ",
"  c #74A334",
". c #56864C",
"X c #A8A129",
"o c #ADBC3A",
/* pixels */
"oooooooooooooooooooooooooooooooooXXXXXXooooooooooooooooooooooooooooooooooooXXXoooooooooooo",
"oooooooooooooooooooooooooooooooooXXXXXXooooooooooooooooooooooooooooooooooooXXXoooooooooooo",
"oooooooooooooooooooooooooooooooooXXXXXXooooooooooooooooooooooooooooooooooooXXXoooooooooooo",
"oooooooooooooooooooooXXXXXXoooXXXooooooXXXoooooooooooooooooooooooooooooooooXXXoooXXXoooooo",
"oooooooooooooooooooooXXXXXXoooXXXooooooXXXoooooooooooooooooooooooooooooooooXXXoooXXXoooooo",
"oooooooooooooooooooooXXXXXXoooXXXooooooXXXoooooooooooooooooooooooooooooooooXXXoooXXXoooooo",
"ooooooooooooooooooXXXooooooXXXooooooXXXXXXoooooooooooooooooooooooooooooooooooooooXXXoooooo",
"ooooooooooooooooooXXXooooooXXXooooooXXXXXXoooooooooooooooooooooooooooooooooooooooXXXoooooo",
"ooooooooooooooooooXXXooooooXXXooooooXXXXXXoooooooooooooooooooooooooooooooooooooooXXXoooooo",
"oooooooooooooooooooooXXXoooXXXoooXXXXXXXXXXXXooooooooooooooooooooooooooooooooooooooooooooo",
"oooooooooooooooooooooXXXoooXXXoooXXXXXXXXXXXXooooooooooooooooooooooooooooooooooooooooooooo",
"oooooooooooooooooooooXXXoooXXXoooXXXXXXXXXXXXooooooooooooooooooooooooooooooooooooooooooooo",
"oooooooooooooooooooooooooooXXXoooXXXXXXXXXoooooooooooooooooooooooooooooooooooooooooooooooo",
"oooooooooooooooooooooooooooXXXoooXXXXXXXXXoooooooooooooooooooooooooooooooooooooooooooooooo",
"oooooooooooooooooooooooooooXXXoooXXXXXXXXXoooooooooooooooooooooooooooooooooooooooooooooooo",
"oooooooooooooooooooooooooooooooooooooooooooooooooooooooooooooooooooooooooooooooooooooooooo",
"oooooooooooooooooooooooooooooooooooooooooooooooooooooooooooooooooooooooooooooooooooooooooo",
"oooooooooooooooooooooooooooooooooooooooooooooooooooooooooooooooooooooooooooooooooooooooooo",
"oooXXXXXXooooooXXXXXXoooooooooooooooooooooooooooooooooooooooXXXooooooooooooooooooooooooooo",
"oooXXXXXXooooooXXXXXXoooooooooooooooooooooooooooooooooooooooXXXooooooooooooooooooooooooooo",
"oooXXXXXXooooooXXXXXXoooooooooooooooooooooooooooooooooooooooXXXooooooooooooooooooooooooooo",
"XXXooooooXXXXXXooooooXXXooooooooooooooooooooooooooooooXXXoooXXXoooXXXooooooooooooooooooooo",
"XXXooooooXXXXXXooooooXXXooooooooooooooooooooooooooooooXXXoooXXXoooXXXooooooooooooooooooooo",
"XXXooooooXXXXXXooooooXXXooooooooooooooooooooooooooooooXXXoooXXXoooXXXooooooooooooooooooooo",
"oooXXXoooXXXooooooXXXoooooooooooooooooooooooooooooooooXXXoooooooooXXXooooooooooooooooooooo",
"oooXXXoooXXXooooooXXXoooooooooooooooooooooooooooooooooXXXoooooooooXXXooooooooooooooooooooo",
"oooXXXoooXXXooooooXXXoooooooooooooooooooooooooooooooooXXXoooooooooXXXooooooooooooooooooooo",
"oooooooooXXXoooXXXXXXXXXoooooooooooooooooooooooooooooooooooooooooooooooooooooooooooooooooo",
"oooooooooXXXoooXXXXXXXXXoooooooooooooooooooooooooooooooooooooooooooooooooooooooooooooooooo",
"oooooooooXXXoooXXXXXXXXXoooooooooooooooooooooooooooooooooooooooooooooooooooooooooooooooooo",
"oooooooooooooooXXXXXXooooooooooooooooooooooooooooooooooooooooooooooooooooooooooooooooooooo",
"oooooooooooooooXXXXXXooooooooooooooooooooooooooooooooooooooooooooooooooooooooooooooooooooo",
"oooooooooooooooXXXXXXooooooooooooooooooooooooooooooooooooooooooooooooooooooooooooooooooooo",
"oooooooooooooooooooooooooooooooooooooooooooooooooooooooooooooooooooooooooooooooooooooooooo",
"oooooooooooooooooooooooooooooooooooooooooooooooooooooooooooooooooooooooooooooooooooooooooo",
"oooooooooooooooooooooooooooooooooooooooooooooooooooooooooooooooooooooooooooooooooooooooooo",
"oooooooooooooooooooooooooooooooooooooooooooooooooooooooooooooooooooooooooooooooooooooooooo",
"oooooooooooooooooooooooooooooooooooooooooooooooooooooooooooooooooooooooooooooooooooooooooo",
"oooooooooooooooooooooooooooooooooooooooooooooooooooooooooooooooooooooooooooooooooooooooooo",
"oooooooooooooooooooooooooooooooooooooooooooooooooooooooooooooooooooooooooooooooooooooooooo",
"oooooooooooooooooooooooooooooooooooooooooooooooooooooooooooooooooooooooooooooooooooooooooo",
"oooooooooooooooooooooooooooooooooooooooooooooooooooooooooooooooooooooooooooooooooooooooooo",
"oooooooooooooooooooooooooooooooooooooooooooooooooooooooooooooooooooooooooooooooooooooooooo",
"oooooooooooooooooooooooooooooooooooooooooooooooooooooooooooooooooooooooooooooooooooooooooo",
"oooooooooooooooooooooooooooooooooooooooooooooooooooooooooooooooooooooooooooooooooooooooooo",
"oooooooooooooooooooooooooooooooooooooooooooooooooooooooooooooooooooooooooooooooooooooooooo",
"oooooooooooooooooooooooooooooooooooooooooooooooooooooooooooooooooooooooooooooooooooooooooo",
"oooooooooooooooooooooooooooooooooooooooooooooooooooooooooooooooooooooooooooooooooooooooooo",
"ooooooooooooooooooooooooXXXXXXXXXooooooooooooooooooooooooooooooooooooooooooooooooXXXXXXooo",
"ooooooooooooooooooooooooXXXXXXXXXooooooooooooooooooooooooooooooooooooooooooooooooXXXXXXooo",
"ooooooooooooooooooooooooXXXXXXXXXooooooooooooooooooooooooooooooooooooooooooooooooXXXXXXooo",
"oooooooooooooooooooooXXXoooooooooXXXoooooooooooooooooooooooooooooooooXXXXXXoooXXXooooooXXX",
"oooooooooooooooooooooXXXoooooooooXXXoooooooooooooooooooooooooooooooooXXXXXXoooXXXooooooXXX",
"oooooooooooooooooooooXXXoooooooooXXXoooooooooooooooooooooooooooooooooXXXXXXoooXXXooooooXXX",
"ooooooooooooooooooXXXoooooooooXXXXXXXXXoooooooooooooooooooooooooooXXXooooooXXXooooooXXXXXX",
"ooooooooooooooooooXXXoooooooooXXXXXXXXXoooooooooooooooooooooooooooXXXooooooXXXooooooXXXXXX",
"ooooooooooooooooooXXXoooooooooXXXXXXXXXoooooooooooooooooooooooooooXXXooooooXXXooooooXXXXXX",
"oooooooooooooooooooooooooooXXXXXXXXXoooooooooooooooooooooooooooooooooXXXoooXXXoooXXXXXXXXX",
"oooooooooooooooooooooooooooXXXXXXXXXoooooooooooooooooooooooooooooooooXXXoooXXXoooXXXXXXXXX",
"oooooooooooooooooooooooooooXXXXXXXXXoooooooooooooooooooooooooooooooooXXXoooXXXoooXXXXXXXXX",
"oooooooooooooooooooooooooooooooooooooooooooooooooooooooooooooooooooooooooooXXXoooXXXXXXXXX",
"oooooooooooooooooooooooooooooooooooooooooooooooooooooooooooooooooooooooooooXXXoooXXXXXXXXX",
"oooooooooooooooooooooooooooooooooooooooooooooooooooooooooooooooooooooooooooXXXoooXXXXXXXXX",
"ooooooXXXXXXXXXXXXoooooooooooooooooooooooooooooooooooooooooooooooooooooooooooooooooooooooo",
"ooooooXXXXXXXXXXXXoooooooooooooooooooooooooooooooooooooooooooooooooooooooooooooooooooooooo",
"ooooooXXXXXXXXXXXXoooooooooooooooooooooooooooooooooooooooooooooooooooooooooooooooooooooooo",
"oooXXXooooooooooooXXXooooooooooooooooooooooooooooooXXXXXXooooooXXXXXXooooooooooooooooooooo",
"oooXXXooooooooooooXXXooooooooooooooooooooooooooooooXXXXXXooooooXXXXXXooooooooooooooooooooo",
"oooXXXooooooooooooXXXooooooooooooooooooooooooooooooXXXXXXooooooXXXXXXooooooooooooooooooooo",
"ooooooXXXooooooooooooXXXooooooooooooooooooooooooXXXooooooXXXXXXooooooXXXoooooooooooooooooo",
"ooooooXXXooooooooooooXXXooooooooooooooooooooooooXXXooooooXXXXXXooooooXXXoooooooooooooooooo",
"ooooooXXXooooooooooooXXXooooooooooooooooooooooooXXXooooooXXXXXXooooooXXXoooooooooooooooooo",
"ooooooXXXXXXoooooooooXXXoooooooooooooooooooooooooooXXXoooXXXooooooXXXooooooooooooooooooooo",
"ooooooXXXXXXoooooooooXXXoooooooooooooooooooooooooooXXXoooXXXooooooXXXooooooooooooooooooooo",
"ooooooXXXXXXoooooooooXXXoooooooooooooooooooooooooooXXXoooXXXooooooXXXooooooooooooooooooooo",
"oooXXXXXXXXXoooooooooooooooooooooooooooooooooooooooooooooXXXoooXXXXXXXXXoooooooooooooooooo",
"oooXXXXXXXXXoooooooooooooooooooooooooooooooooooooooooooooXXXoooXXXXXXXXXoooooooooooooooooo",
"oooXXXXXXXXXoooooooooooooooooooooooooooooooooooooooooooooXXXoooXXXXXXXXXoooooooooooooooooo",
"oooooooooXXXXXXooooooooooooooooooooooooooooooooooooooooooooooooXXXXXXooooooooooooooooooooo",
"oooooooooXXXXXXooooooooooooooooooooooooooooooooooooooooooooooooXXXXXXooooooooooooooooooooo",
"oooooooooXXXXXXooooooooooooooooooooooooooooooooooooooooooooooooXXXXXXooooooooooooooooooooo",
"oooooooooooooooooooooooooooooooooooooooooooooooooooooooooooooooooooooooooooooooooooooooooo",
"oooooooooooooooooooooooooooooooooooooooooooooooooooooooooooooooooooooooooooooooooooooooooo",
"oooooooooooooooooooooooooooooooooooooooooooooooooooooooooooooooooooooooooooooooooooooooooo",
"oooooooooooooooooooooooooooooooooooooooooooooooooooooooooooooooooooooooooooooooooooooooooo",
"oooooooooooooooooooooooooooooooooooooooooooooooooooooooooooooooooooooooooooooooooooooooooo",
"oooooooooooooooooooooooooooooooooooooooooooooooooooooooooooooooooooooooooooooooooooooooooo",
"oooooooooooooooooooooooooooooooooooooooooooooooooooooooooooooooooooooXXXXXX...         ...",
"oooooooooooooooooooooooooooooooooooooooooooooooooooooooooooooooooooooXXXXXX...         ...",
"oooooooooooooooooooooooooooooooooooooooooooooooooooooooooooooooooooooXXXXXX...         ..."
};
