/* XPM */
static char *result[] = {
/* columns rows colors chars-per-pixel */
"44 90 12 1 ",
"  c #0F0E0C",
". c #201F1E",
"X c #466028",
"o c #557232",
"O c #52636D",
"+ c #62717A",
"@ c #A76262",
"# c #6A8D40",
"$ c #6A818E",
"% c #BE9D86",
"& c #A19E98",
"* c None",
/* pixels */
"**********......            ....************",
"**********......            ....************",
"********..                      ..**********",
"********..                      ..**********",
"******..    %%%%%%%%%%%%%%%%%%    ..********",
"******..    %%%%%%%%%%%%%%%%%%    ..********",
"******..  %%      %%%%%%      %%  ..********",
"******..  %%      %%%%%%      %%  ..********",
"******..    %%%%%%  %%  %%%%%%    ..********",
"******..    %%%%%%  %%  %%%%%%    ..********",
"******..    %%  %%      %%  %%    ..********",
"******..    %%  %%      %%  %%    ..********",
"******..    %%%%%%  %%  %%%%%%    ..********",
"******..    %%%%%%  %%  %%%%%%    ..********",
"******..  %%      %%%%%%      %%  ..********",
"******..  %%      %%%%%%      %%  ..********",
"******..  %%%%%%%%      %%%%%%%%  ..********",
"******..  %%%%%%%%      %%%%%%%%  ..********",
"**####      %%%%  @@@@@@  %%%%      ######**",
"**####      %%%%  @@@@@@  %%%%      ######**",
"##ooooXX    ..                    XXoooooo##",
"##ooooXX    ..                    XXoooooo##",
"##ooXXXX    ..              ..    XXXXXXoo##",
"##ooXXXX    ..              ..    XXXXXXoo##",
"##XXXXooXX    ....        ..    XXooXXXXoo##",
"##XXXXooXX    ....        ..    XXooXXXXoo##",
"##XXXXooooXX      ..    ..    XXooooooXXoo##",
"##XXXXooooXX      ..    ..    XXooooooXXoo##",
"##ooXXooooooXX  ..    ..    XXooooooooXXoo##",
"##ooXXooooooXX  ..    ..    XXooooooooXXoo##",
"##ooooXXooooooXX          XXooooooooXXXXoo##",
"##ooooXXooooooXX          XXooooooooXXXXoo##",
"oooooo##ooooooooXXXXXXXXXXooooooooooXXoooooo",
"oooooo##ooooooooXXXXXXXXXXooooooooooXXoooooo",
"XXoooooo##oooooooooooooooooooooo##ooooooooXX",
"XXoooooo##oooooooooooooooooooooo##ooooooooXX",
"XXoooooo####ooooooXXoooooooo######ooooooooXX",
"XXoooooo####ooooooXXoooooooo######ooooooooXX",
"XXXXXXXXoo##ooooooXXoooooooo##ooooooXXXXXXXX",
"XXXXXXXXoo##ooooooXXoooooooo##ooooooXXXXXXXX",
"%%%%%%XXoo####ooooXXoooooo####ooooooXX%%%%%%",
"%%%%%%XXoo####ooooXXoooooo####ooooooXX%%%%%%",
"%%%%%%XXoooo##ooooooXXoooo##ooooooooXX%%%%%%",
"%%%%%%XXoooo##ooooooXXoooo##ooooooooXX%%%%%%",
"%%%%%%XXooXXooooooooooooooooooXXooooXX%%%%%%",
"%%%%%%XXooXXooooooooooooooooooXXooooXX%%%%%%",
"******XXooXXooXXXXXXXXXXXXooooooXXooXX******",
"******XXooXXooXXXXXXXXXXXXooooooXXooXX******",
"******XXooooooooooooooooooooooooooooXX******",
"******XXooooooooooooooooooooooooooooXX******",
"******XXXXXXXXXXXXXXXXXXXXXXXXXXXXXXXX******",
"******XXXXXXXXXXXXXXXXXXXXXXXXXXXXXXXX******",
"******$$$$++++++++++++++++++++++++$$$$******",
"******$$$$++++++++++++++++++++++++$$$$******",
"******$$++++++OOOO++++++++OOOO++++++$$******",
"******$$++++++OOOO++++++++OOOO++++++$$******",
"******$$++++OOOO++++++++++++OOOO++++$$******",
"******$$++++OOOO++++++++++++OOOO++++$$******",
"******$$++++OOOO++++OOOO++++OOOO++++$$******",
"******$$++++OOOO++++OOOO++++OOOO++++$$******",
"******$$++++OO++++OO****OO++++OO++++$$******",
"******$$++++OO++++OO****OO++++OO++++$$******",
"******$$++++OO++++OO****OO++++OO++++$$******",
"******$$++++OO++++OO****OO++++OO++++$$******",
"******$$++++OO++++OO****OO++++OO++++$$******",
"******$$++++OO++++OO****OO++++OO++++$$******",
"******$$++++OO++++OO****OO++++OO++++$$******",
"******$$++++OO++++OO****OO++++OO++++$$******",
"******$$++++++++++OO****OO++++++++++$$******",
"******$$++++++++++OO****OO++++++++++$$******",
"******$$++++++++++OO****OO++++++++++$$******",
"******$$++++++++++OO****OO++++++++++$$******",
"******$$++$$$$++++OO****OO++++++$$++$$******",
"******$$++$$$$++++OO****OO++++++$$++$$******",
"******$$++++$$++++OO****OO++++$$$$++$$******",
"******$$++++$$++++OO****OO++++$$$$++$$******",
"******$$++++$$$$++OO****OO++$$$$++++$$******",
"******$$++++$$$$++OO****OO++$$$$++++$$******",
"******$$++++++++$$OO****OO++++++++++$$******",
"******$$++++++++$$OO****OO++++++++++$$******",
"******$$++++++++++OO****OO++++++++++$$******",
"******$$++++++++++OO****OO++++++++++$$******",
"******$$++++++++OOOO****OOOO++++++++$$******",
"******$$++++++++OOOO****OOOO++++++++$$******",
"********OOOOOOOOOO********OOOOOOOOOO********",
"********OOOOOOOOOO********OOOOOOOOOO********",
"********&&        ********        &&********",
"********&&        ********        &&********",
"********          ********          ********",
"********          ********          ********"
};
