/* XPM */
static char *result[] = {
/* columns rows colors chars-per-pixel */
"44 89 12 1 ",
"  c #0F0E0C",
". c #201F1E",
"X c #466028",
"o c #557232",
"O c #52636D",
"+ c #62717A",
"@ c #A76262",
"# c #6A8D40",
"$ c #6A818E",
"% c #BE9D86",
"& c #A19E98",
"* c None",
/* pixels */
"**********......            ....************",
"**********......            ....************",
"********..                      ..**********",
"********..                      ..**********",
"******..    %%%%%%%%%%%%%%%%%%    ..********",
"******..    %%%%%%%%%%%%%%%%%%    ..********",
"******..  %%      %%%%%%      %%  ..********",
"******..  %%      %%%%%%      %%  ..********",
"******..    %%%%%%  %%  %%%%%%    ..********",
"******..    %%%%%%  %%  %%%%%%    ..********",
"******..    %%  %%      %%  %%    ..********",
"******..    %%  %%      %%  %%    ..********",
"******..    %%%%%%  %%  %%%%%%    ..********",
"******..    %%%%%%  %%  %%%%%%    ..********",
"******..  %%      %%%%%%      %%  ..********",
"******..  %%      %%%%%%      %%  ..********",
"******..  %%%%%%%%      %%%%%%%%  ..********",
"******..  %%%%%%%%      %%%%%%%%  ..********",
"******      %%%%  @@@@@@  %%%%      ********",
"******      %%%%  @@@@@@  %%%%      ********",
"**####XX    ..                    XX######**",
"**####XX    ..                    XX######**",
"##ooooXX    ..              ..    XXoooooo##",
"##ooooXX    ..              ..    XXoooooo##",
"##ooXXooXX    ....        ..    XXooXXXXoo##",
"##ooXXooXX    ....        ..    XXooXXXXoo##",
"##XXXXooooXX      ..    ..    XXooooXXXXoo##",
"##XXXXooooXX      ..    ..    XXooooXXXXoo##",
"##XXXXooooooXX  ..    ..    XXooooooooXXoo##",
"##XXXXooooooXX  ..    ..    XXooooooooXXoo##",
"##ooXXooooooooXX          XXooooooooooXXoo##",
"##ooXXooooooooXX          XXooooooooooXXoo##",
"##ooooXXooooooooXXXXXXXXXXooooooooooXXXXoo##",
"##ooooXXooooooooXXXXXXXXXXooooooooooXXXXoo##",
"oooooo####oooooooooooooooooooooo##ooXXoooooo",
"oooooo####oooooooooooooooooooooo##ooXXoooooo",
"XXoooooo####ooooooXXoooooooo######ooooooooXX",
"XXoooooo####ooooooXXoooooooo######ooooooooXX",
"XXoooooooo##ooooooXXoooooooo##ooooooooooooXX",
"XXoooooooo##ooooooXXoooooooo##ooooooooooooXX",
"XXXXXXXXoo####ooooXXoooooo####ooooooXXXXXXXX",
"XXXXXXXXoo####ooooXXoooooo####ooooooXXXXXXXX",
"%%%%%%XXoooo##ooooooXXoooo##ooooooooXX%%%%%%",
"%%%%%%XXoooo##ooooooXXoooo##ooooooooXX%%%%%%",
"%%%%%%XXooXXooooooooooooooooooXXooooXX%%%%%%",
"%%%%%%XXooXXooXXXXXXXXXXXXooooooXXooXX%%%%%%",
"%%%%%%XXooXXooXXXXXXXXXXXXooooooXXooXX%%%%%%",
"******XXooooooooooooooooooooooooooooXX******",
"******XXooooooooooooooooooooooooooooXX******",
"******XXXXXXXXXXXXXXXXXXXXXXXXXXXXXXXX******",
"******XXXXXXXXXXXXXXXXXXXXXXXXXXXXXXXX******",
"******$$$$++++++++++++++++++++++++$$$$******",
"******$$$$++++++++++++++++++++++++$$$$******",
"******$$++++++OOOO++++++++OOOO++++++$$******",
"******$$++++++OOOO++++++++OOOO++++++$$******",
"******$$++++OOOO++++++++++++OOOO++++$$******",
"******$$++++OOOO++++++++++++OOOO++++$$******",
"******$$++++OOOO++++OOOO++++OOOO++++$$******",
"******$$++++OOOO++++OOOO++++OOOO++++$$******",
"******$$++++OO++++OO****OO++++OO++++$$******",
"******$$++++OO++++OO****OO++++OO++++$$******",
"******$$++++OO++++OO****OO++++OO++++$$******",
"******$$++++OO++++OO****OO++++OO++++$$******",
"******$$++++OO++++OO****OO++++OO++++$$******",
"******$$++++OO++++OO****OO++++OO++++$$******",
"******$$++++OO++++OO****OO++++OO++++$$******",
"******$$++++OO++++OO****OO++++OO++++$$******",
"******$$++++++++++OO****OO++++++++++$$******",
"******$$++++++++++OO****OO++++++++++$$******",
"******$$++++++++++OO****OO++++++++++$$******",
"******$$++++++++++OO****OO++++++++++$$******",
"******$$++$$$$++++OO****OO++++++$$++$$******",
"******$$++$$$$++++OO****OO++++++$$++$$******",
"******$$++++$$++++OO****OO++++$$$$++$$******",
"******$$++++$$++++OO****OO++++$$$$++$$******",
"******$$++++$$$$++OO****OO++$$$$++++$$******",
"******$$++++$$$$++OO****OO++$$$$++++$$******",
"******$$++++++++$$OO****OO++++++++++$$******",
"******$$++++++++$$OO****OO++++++++++$$******",
"******$$++++++++++OO****OO++++++++++$$******",
"******$$++++++++++OO****OO++++++++++$$******",
"******$$++++++++OOOO****OOOO++++++++$$******",
"******$$++++++++OOOO****OOOO++++++++$$******",
"********OOOOOOOOOO********OOOOOOOOOO********",
"********OOOOOOOOOO********OOOOOOOOOO********",
"********&&        ********        &&********",
"********&&        ********        &&********",
"********          ********          ********",
"********          ********          ********"
};
