/* XPM */
static char *result[] = {
/* columns rows colors chars-per-pixel */
"37 90 20 1 ",
"  c #0F0E0C",
". c #201F1E",
"X c #42581B",
"o c #4B651D",
"O c #466028",
"+ c #557232",
"@ c #52636D",
"# c #62717A",
"$ c red",
"% c #6A8D40",
"& c #FF9D00",
"* c #CCD62C",
"= c #DEE12E",
"- c #E3F731",
"; c #FFF13E",
": c #6A818E",
"> c #00FFD2",
", c #BE9D86",
"< c #F6F6F6",
"1 c None",
/* pixels */
"1111111111<<1>>11$11&&11>111111111111",
"1111111111<<1>>11$11&&11>111111111111",
"11111111<<--<--$$*$$--&&-<<1111111111",
"1111111111<<1>>11$11&&11$111111111111",
"1111111111<<1>>11$11&&11$111111111111",
"1111111111oo1XX11o11XX11X111111111111",
"1111111111oo1XX11o11XX11X111111111111",
"11111111;;oo;XX;;o;;XX;;X;;1111111111",
"1111111111;;;;;;;;;;;;;;;111111111111",
"1111111111;;;;;;;;;;;;;;;111111111111",
"111111111111;;;;;;;;;;;;1111111111111",
"111111111111;;;;;;;;;;;;1111111111111",
"111111111111;;;;;;;;;;;;1111111111111",
"1111111111111;;;;;;;;;111111111111111",
"1111111111111;;;;;;;;;111111111111111",
"11111111.....           ...1111111111",
"11111111.....           ...1111111111",
"1111111.                   ..11111111",
"11111..   << >>  $  &&  >    .1111111",
"11111..   << >>  $  &&  >    .1111111",
"11111.. <<==<==$$=$$==&&=<<  .1111111",
"11111.. <<==<==$$=$$==&&=<<  .1111111",
"11111..   << >>..$  &&  $    .1111111",
"11111  >  ..   .. <<     ..  .1111111",
"11111  >  ..   .. <<     ..  .1111111",
"11111&&=<<..     <==<<   .....1111111",
"11111&&=<<..     <==<<   .....1111111",
"11111  $          <<     <<  .1111111",
"11111.. <<              <==<<.1111111",
"11111.. <<              <==<<.1111111",
"11111  <==<<   ...       <<   1111111",
"11111  <==<<   ...       <<   1111111",
"11%%%   <<     >> ..          %%%%%11",
"%%+++     .. <<==$    >>      +++++%%",
"%%+++     .. <<==$    >>      +++++%%",
"%%+OO       .  >>.  <<==$     OOOO+%%",
"%%+OO       .  >>.  <<==$     OOOO+%%",
"%%OOO          ..     >>.  .. OOOO+%%",
"%%OOO     $$ ..   ..     .... ++OO+%%",
"%%OOO     $$ ..   ..     .... ++OO+%%",
"%%+OO++ $$==$     &&         +++OO+%%",
"%%+OO++ $$==$     &&         +++OO+%%",
"%%+++OO ..$$     $==&&       +OOOO+%%",
"+++++%%%          &&       %%+OO+++++",
"+++++%%%          &&       %%+OO+++++",
"OO+++++%%%  +    +  ++  %  %%++++++OO",
"OO+++++%%%  +    +  ++  %  %%++++++OO",
"OO++++++%%+++++OO+++++++%++++++++++OO",
"OOOOOOO+%%%%+++OO+++++%%%+++++OOOOOOO",
"OOOOOOO+%%%%+++OO+++++%%%+++++OOOOOOO",
",,,,,OO+++%%+++++O++++%%++++++OO,,,,,",
",,,,,OO+++%%+++++O++++%%++++++OO,,,,,",
",,,,,OO+OO+++++++++++++++OO+++OO,,,,,",
",,,,,OO+OO++OOOOOOOOOO+++++OO+OO,,,,,",
",,,,,OO+OO++OOOOOOOOOO+++++OO+OO,,,,,",
"11111OO+++++++++++++++++++++++OO11111",
"11111OO+++++++++++++++++++++++OO11111",
"11111OOOOOOOOOOOOOOOOOOOOOOOOOOO11111",
"11111:::#####################:::11111",
"11111:::#####################:::11111",
"11111::#####@@@#######@@@#####::11111",
"11111::#####@@@#######@@@#####::11111",
"11111::###@@@###########@@@###::11111",
"11111::###@@@####@@@####@@@###::11111",
"11111::###@@@####@@@####@@@###::11111",
"11111::###@@###@@111@@###@@###::11111",
"11111::###@@###@@111@@###@@###::11111",
"11111::###@@###@@111@@###@@###::11111",
"11111::###@@###@@111@@###@@###::11111",
"11111::###@@###@@111@@###@@###::11111",
"11111::###@@###@@111@@########::11111",
"11111::###@@###@@111@@########::11111",
"11111::########@@111@@#####::#::11111",
"11111::########@@111@@###::::#::11111",
"11111::########@@111@@###::::#::11111",
"11111::#::::###@@111@@##:::###::11111",
"11111::#::::###@@111@@##:::###::11111",
"11111::###::###@@111@@########::11111",
"11111::###:::##@@111@@########::11111",
"11111::###:::##@@111@@########::11111",
"11111::######::@@111@@@@######::11111",
"11111::######::@@111@@@@######::11111",
"11111::########@@11111@@@@@@@@1111111",
"11111::######@@@@11111        1111111",
"11111::######@@@@11111        1111111",
"1111111@@@@@@@@1111111        1111111",
"1111111@@@@@@@@1111111        1111111",
"1111111        1111111111111111111111",
"1111111        1111111111111111111111",
"1111111        1111111111111111111111"
};
