/* XPM */
static char *result[] = {
/* columns rows colors chars-per-pixel */
"90 85 8 1 ",
"  c #141B1B",
". c #4E484A",
"X c #4A7F4B",
"o c #E46D3A",
"O c #965746",
"+ c #74A334",
"@ c #ADBC3A",
"# c None",
/* pixels */
"############################                               ###############################",
"############################                               ###############################",
"############################                               ###############################",
"###################         +++++++++++++++++++++++++++++++        #######################",
"###################         +++++++++++++++++++++++++++++++        #######################",
"##############     @@@@@@@@@@@@@@@@@@@@@@@@@@@@@@@@@@@@@@@@@@@@@@@@         ##############",
"##############     @@@@@@@@@@@@@@@@@@@@@@@@@@@@@@@@@@@@@@@@@@@@@@@@         ##############",
"##############     @@@@@@@@@@@@@@@@@@@@@@@@@@@@@@@@@@@@@@@@@@@@@@@@         ##############",
"##############     @@@@@@@@@@@@@@@@@@@@@@@@@@@@@@@@@@@@@@@@@@@@@@@@         ##############",
"#########     @@@@@@@@@@@@@@@@@@@@@@@@@@@@@@@@@@@@@@@@@@@@@@@@@@@@@@@@@@@@@@     #########",
"#########     @@@@@@@@@@@@@@@@@@@@@@@@@@@@@@@@@@@@@@@@@@@@@@@@@@@@@@@@@@@@@@     #########",
"#########     @@@@@@@@@@@@@@@@@@@@@@@@@@@@@@@@@@@@@@@@@@@@@@@@@@@@@@@@@@@@@@     #########",
"#####    @@@@@@@@@@@@@@@@@@@@@@@@@@@@@@@@@@@@@@@@@@@@@@@@@@@@@@@@@@@@@@@@@@@@@@@@    #####",
"#####    @@@@@@@@@@@@@@@@@@@@@@@@@@@@@@@@@@@@@@@@@@@@@@@@@@@@@@@@@@@@@@@@@@@@@@@@    #####",
"###  ++++@@@@@@@@@@@@@@@@@@@@@@@@@@@@@@@@@@@@@@@@@@@@@@@@@@@@@@@@@@@@@@@@@@@@@@@@++++  ###",
"###  ++++@@@@@@@@@@@@@@@@@@@@@@@@@@@@@@@@@@@@@@@@@@@@@@@@@@@@@@@@@@@@@@@@@@@@@@@@++++  ###",
"###  ++++@@@@@@@@@@@@@@@@@@@@@@@@@@@@@@@@@@@@@@@@@@@@@@@@@@@@@@@@@@@@@@@@@@@@@@@@++++  ###",
"###  +++++++@@@@@@@@@@@@@@@@@@@@@@@@@@@@@@@@@@@@@@@@@@@@@@@@@@@@@@@@@@@@@+++++@@@++++  ###",
"###  +++++++@@@@@@@@@@@@@@@@@@@@@@@@@@@@@@@@@@@@@@@@@@@@@@@@@@@@@@@@@@@@@+++++@@@++++  ###",
"###  @@@@@@@@@@@@@@@@@@@@@@@@@@@@@@@@@@@@@@@@@@@@@@@@@@@@@@@@@@@@@@@@@@@@@@@@@+++++++  ###",
"###  @@@@@@@@@@@@@@@@@@@@@@@@@@@@@@@@@@@@@@@@@@@@@@@@@@@@@@@@@@@@@@@@@@@@@@@@@+++++++  ###",
"###  @@@@@@@@@@@@@@@@@@@@@@@@@@@@@@@@@@@@@@@@@@@@@@@@@@@@@@@@@@@@@@@@@@@@@@@@@+++++++  ###",
"###  @@@@@@@@@@@@@@@@@@@@@@@@@@@@@@@@@@@@@@@@@@@@@@@@@@@@@@@@@@@@@@@@@@@@@@@@@+++++++  ###",
"   ++@@@@@@@@@@@@@@@@@@@@@@@@@@@@@@@@@@@@@@@@@@@@@@@@@@@@@@@@@@@@@@@@@@@@@@@@@@@@@@@@++   ",
"   ++@@@@@@@@@@@@@@@@@@@@@@@@@@@@@@@@@@@@@@@@@@@@@@@@@@@@@@@@@@@@@@@@@@@@@@@@@@@@@@@@++   ",
"   ++@@@@@@@@@@@@@@@@@@@@@@@@@@@@@@@@@@@@@@@@@@@@@@@@@@@@@@@@@@@@@@@@@@@@@@@@@@@@@@@@++   ",
"   ++@@@@@@@@@@@@@@@@@@@@@@@@@@@@@@@@@@@@@@@@@@@@@@@@@@@@@@@@@@@@@@@@@@@@@@@@@@@@@@@@++   ",
"   ++@@@@@@@@@@@@@@@@@@@@@@@@@@@@@@@@@@@@@@@@@@@@@@@@@@@@@@@@@@@@@@@@@@@@@@@@@@@@@@@@++   ",
"     ++++@@@@@@@@@@@@@@@@@@@@@@@@@@@@@@@@@@@@@@@@@@@@@@@@@@@@@@@@@@@@@@@@@@@@@@@@++++     ",
"     ++++@@@@@@@@@@@@@@@@@@@@@@@@@@@@@@@@@@@@@@@@@@@@@@@@@@@@@@@@@@@@@@@@@@@@@@@@++++     ",
"     ++++@@@@@@@@@@@@@@@@@@@@@@@@@@@@@@@@@@@@@@@@@@@@@@@@@@@@@@@@@@@@@@@@@@@@@@@@++++     ",
"   ++@@@@@@@@@@@@@@@@@@@@@@@@@@@@@@@@@@@@@@@@@@@@@@@@@@@@@@@@@@@@@@@@@@@@@@@@@@@@@@@@++   ",
"   ++@@@@@@@@@@@@@@@@@@@@@@@@@@@@@@@@@@@@@@@@@@@@@@@@@@@@@@@@@@@@@@@@@@@@@@@@@@@@@@@@++   ",
"   ++++++@@@@@@@@@@@@@@@@@@@@@@@@@@@@@@@@@@@@@@@@@@@@@@@@@@@@@@@@@@@@@@@@@@@@@@@@@@@@++   ",
"   ++++++@@@@@@@@@@@@@@@@@@@@@@@@@@@@@@@@@@@@@@@@@@@@@@@@@@@@@@@@@@@@@@@@@@@@@@@@@@@@++   ",
"   ++++++@@@@@@@@@@@@@@@@@@@@@@@@@@@@@@@@@@@@@@@@@@@@@@@@@@@@@@@@@@@@@@@@@@@@@@@@@@@@++   ",
"   ++++++@@@@@@@@@@@@@@@@@@@@@@@@@@@@@@@@@@@@@@@@@@@@@@@@@@@@@@@@@@@@@@@@@@@@@@@@@@@@++   ",
"   ++++++@@@@@@@@@@@@@@@@@@@@@@@@@@@@@@@@@@@@@@@@@@@@@@@@@@@@@@@@@@@@@@@@@@@@@@@@@@@@++   ",
"   ++++++@@@@@@@@@@@@@@@@@@@@@@@@@@@@@@@@@@@@@@@@@@@@@@@@@@@@@@@@@@@@@@@@@@@@@@@@@@@@++   ",
"   ++++++@@@@@@@@@@@@@@@@@@@@@@@@@@@@@@@@@@@@@@@@@@@@@@@@@@@@@@@@@@@@@@@@@@@@@@@@@@@@++   ",
"   +++++++++@@@@@@@@@@@@@@@@@@@@@@@@@@@@@@@@@@@@@@@@@@@@@@@@@@@@@@@@@@@++@@@@@@@@++++++   ",
"   +++++++++@@@@@@@@@@@@@@@@@@@@@@@@@@@@@@@@@@@@@@@@@@@@@@@@@@@@@@@@@@@++@@@@@@@@++++++   ",
"###  +++++++@@@@@@@@@@++++@@@@@@@@@@@@@@@@@@@@@@@@@@@@@@@@@@@@@@@@@@@@@@@+++@@+++++++  ###",
"###  +++++++@@@@@@@@@@++++@@@@@@@@@@@@@@@@@@@@@@@@@@@@@@@@@@@@@@@@@@@@@@@+++@@+++++++  ###",
"###  +++++++@@@@@@@@@@++++@@@@@@@@@@@@@@@@@@@@@@@@@@@@@@@@@@@@@@@@@@@@@@@+++@@+++++++  ###",
"   XXXXXX+++++@@@@@+++@@@@@@@@@++@@@@@@@@@@@@+++@@@@@@@@@@@@@@@@@@@@@@@@@++++++++++++++   ",
"   XXXXXX+++++@@@@@+++@@@@@@@@@++@@@@@@@@@@@@+++@@@@@@@@@@@@@@@@@@@@@@@@@++++++++++++++   ",
"   XXXXXX+++++@@@@@+++@@@@@@@@@++@@@@@@@@@@@@+++@@@@@@@@@@@@@@@@@@@@@@@@@++++++++++++++   ",
"   XXXXXXXXX++++++++++@@@@@@@@@++@@@@@@@@@@@@+++@@@@@@@@@@@+++++@@@@@@@++++++++++++++++   ",
"   XXXXXXXXX++++++++++@@@@@@@@@++@@@@@@@@@@@@+++@@@@@@@@@@@+++++@@@@@@@++++++++++++++++   ",
"   XXXXXXXXX++++++++++@@@@@@@@@++@@@@@@@@@@@@+++@@@@@@@@@@@+++++@@@@@@@++++++++++++++++   ",
"   XXXXXXXXX++++++++++@@@@@@@@@++@@@@@@@@@@@@+++@@@@@@@@@@@+++++@@@@@@@++++++++++++++++   ",
"###      XXXXX++++++++++++++++++++++@@@@@@++++++++@@@@@@@+++++++++++++++++++XX+++      ###",
"###      XXXXX++++++++++++++++++++++@@@@@@++++++++@@@@@@@+++++++++++++++++++XX+++      ###",
"#####       XXXXX++++++++++++++++++++++++++++++++++++++++++++++++++++++++XXXXX       #####",
"#####       XXXXX++++++++++++++++++++++++++++++++++++++++++++++++++++++++XXXXX       #####",
"#####       XXXXX++++++++++++++++++++++++++++++++++++++++++++++++++++++++XXXXX       #####",
"#####    XXXXXXXXXX+++++++XX++++++++++++++XXX+++++++++XXX++++++++++XXXXXXXXXXXXXX    #####",
"#####    XXXXXXXXXX+++++++XX++++++++++++++XXX+++++++++XXX++++++++++XXXXXXXXXXXXXX    #####",
"#####    XXXXXXXXXXXXXXXXXXXXXX+++++XXXXXXXXX+++++++++XXXXX+++++XXXXXXXXXXXXXXXXX    #####",
"#####    XXXXXXXXXXXXXXXXXXXXXX+++++XXXXXXXXX+++++++++XXXXX+++++XXXXXXXXXXXXXXXXX    #####",
"#####    XXXXXXXXXXXXXXXXXXXXXX+++++XXXXXXXXX+++++++++XXXXX+++++XXXXXXXXXXXXXXXXX    #####",
"#########     XXXXXXXX....XXXXXXXXXXXXXXXXXXXXXXXXXXXXXXXXXXXXXXXXXXXXXXXXXX     #########",
"#########     XXXXXXXX....XXXXXXXXXXXXXXXXXXXXXXXXXXXXXXXXXXXXXXXXXXXXXXXXXX     #########",
"#########     XXXXXXXX....XXXXXXXXXXXXXXXXXXXXXXXXXXXXXXXXXXXXXXXXXXXXXXXXXX     #########",
"#########     XXXXXXXX....XXXXXXXXXXXXXXXXXXXXXXXXXXXXXXXXXXXXXXXXXXXXXXXXXX     #########",
"#########   OOOOO.......................XXXXXXXXXX....OOOXXXXX................   #########",
"#########   OOOOO.......................XXXXXXXXXX....OOOXXXXX................   #########",
"#########   OOOOOOOooooooo..OOOOOOOOOOOOOOOOO...OO....OOOOOOOOOO............OO   #########",
"#########   OOOOOOOooooooo..OOOOOOOOOOOOOOOOO...OO....OOOOOOOOOO............OO   #########",
"#########   OOOOOOOooooooo..OOOOOOOOOOOOOOOOO...OO....OOOOOOOOOO............OO   #########",
"#####    oooooOOOooooooooooooooooooooooooooooOOOooOOOOoooOOOOOOO...OOOO..OOOOOooo    #####",
"#####    oooooOOOooooooooooooooooooooooooooooOOOooOOOOoooOOOOOOO...OOOO..OOOOOooo    #####",
"#####    ooooooooooooooooooooooooooooooooooooOOOooOOOOoooOOOOOOO...OOOOOOOOOOOOOO    #####",
"#####    ooooooooooooooooooooooooooooooooooooOOOooOOOOoooOOOOOOO...OOOOOOOOOOOOOO    #####",
"#####    ooooooooooooooooooooooooooooooooooooOOOooOOOOoooOOOOOOO...OOOOOOOOOOOOOO    #####",
"#########ooooooooooooooooooooooooooooooooooooOOOoooooooooOOOOOOOOOOOOOOOOOOOOOOOO#########",
"#########ooooooooooooooooooooooooooooooooooooOOOoooooooooOOOOOOOOOOOOOOOOOOOOOOOO#########",
"#########ooooooooooooooooooooooooooooooooooooOOOoooooooooOOOOOOOOOOOOOOOOOOOOOOOO#########",
"#########ooooooooooooooooooooooooooooooooooooOOOoooooooooOOOOOOOOOOOOOOOOOOOOOOOO#########",
"#################oooooooooooooooooooooooooooooooooooooOOOOOOOOOOOOOOOOOOO#################",
"#################oooooooooooooooooooooooooooooooooooooOOOOOOOOOOOOOOOOOOO#################",
"##########################################################################################",
"##########################################################################################",
"##########################################################################################"
};
