/* XPM */
static char *result[] = {
/* columns rows colors chars-per-pixel */
"90 55 7 1 ",
"  c #050914",
". c #52294B",
"X c #8F5765",
"o c #CF968C",
"O c #FFCF8E",
"+ c #FAFFFF",
"@ c None",
/* pixels */
"@@@@@@@@@@@@@@@@@@@@@@@@@@@@@@@@@@@@@@@          @@@@@@@@@@@@@@@@@@@@@@@@@@@@@@@@@@@@@@@@@",
"@@@@@@@@@@@@@@@@@@@@@@@@@@@@@@@@@@@@@@@          @@@@@@@@@@@@@@@@@@@@@@@@@@@@@@@@@@@@@@@@@",
"@@@@@@@@@@@@@@@@@@@@@@@@@@@@@@@@@@@    oooooooooo    @@@@@@@@@@@@@@@@@@@@@@@@@@@@@@@@@@@@@",
"@@@@@@@@@@@@@@@@@@@@@@@@@@@@@@@@@@@    oooooooooo    @@@@@@@@@@@@@@@@@@@@@@@@@@@@@@@@@@@@@",
"@@@@@@@@@@@@@@@@@@@@@@@@@@@@@        ooXXoooooooooooo  @@@@@@@@@@@@@@@@@@@@@@@@@@@@@@@@@@@",
"@@@@@@@@@@@@@@@@@@@@@@@@@@@@@        ooXXoooooooooooo  @@@@@@@@@@@@@@@@@@@@@@@@@@@@@@@@@@@",
"@@@@@@@@@@@@@@@@@@@@@@@@@@@  ++++++++  XXXXXXXXXXXXXXoo  @@@@@@@@@@@@@@@@@@@@@@@@@@@@@@@@@",
"@@@@@@@@@@@@@@@@@@@@@@@@@@@  ++++++++  XXXXXXXXXXXXXXoo  @@@@@@@@@@@@@@@@@@@@@@@@@@@@@@@@@",
"@@@@@@@@@@@@@@@@@@@@@@@@@  ++++    ++++  XXXXXXXXXXXXXXoo  @@@@@@@@@@@@@@@@@@@@@@@@@@@@@@@",
"@@@@@@@@@@@@@@@@@@@@@@@@@  ++++    ++++  XXXXXXXXXXXXXXoo  @@@@@@@@@@@@@@@@@@@@@@@@@@@@@@@",
"@@@@@@@@@@@@@@@@@@@@@@@@@  ++        ++  XXXXXXXXXXXXXXXXoo  @@@@@@@@@@@@@@@@@@@@@@@@@@@@@",
"@@@@@@@@@@@@@@@@@@@@@@@@@  ++        ++  XXXXXXXXXXXXXXXXoo  @@@@@@@@@@@@@@@@@@@@@@@@@@@@@",
"@@@@@@@@@@@@@@@@@@@@@@@@@  ++        ++  XXXXXXXXXXXXXXXXXXoo  @@@@@@@@@@@@@@@@@@@@@@@@@@@",
"@@@@@@@@@@@@@@@@@@@@@@@@@  ++        ++  XXXXXXXXXXXXXXXXXXoo  @@@@@@@@@@@@@@@@@@@@@@@@@@@",
"@@@@@@@@@@@@@@@@@@@@@@@@@  ++++    ++++  XXXXXXXXXXXXXXXXXXXXoo  @@@@@@@@@@@@@@@@@@@@@@@@@",
"@@@@@@@@@@@@@@@@@@@@@@@@@  ++++    ++++  XXXXXXXXXXXXXXXXXXXXoo  @@@@@@@@@@@@@@@@@@@@@@@@@",
"@@@@@@@@@@@@@@@@@@@@@@   oo  ++++++++  XXXXXXXXXXXXXXXXXXXXXXXXoo  @@@@@@@@@@@@@@@@@@@@@@@",
"@@@@@@@@@@@@@@@@@@@@@@   oo  ++++++++  XXXXXXXXXXXXXXXXXXXXXXXXoo  @@@@@@@@@@@@@@@@@@@@@@@",
"@@@@@@@@@@@@@@@@@@@@  oooXXXX        XXXXXXXXXXXXXXXXXXXXXXXXXXXXoo   @@@@@@@@@@@@@@@@@@@@",
"@@@@@@@@@@@@@@@@@@@@  oooXXXX        XXXXXXXXXXXXXXXXXXXXXXXXXXXXoo   @@@@@@@@@@@@@@@@@@@@",
"@@@@@@@@@@@@@@@@@@  ooXXXXXXXXXXXooooXXXXXXXXXXXXXXXXXXXXXXXXXXXXoo   @@@@@@@@@@@@@@@@@@@@",
"@@@@@@@@@@@@@@@@@@  ooXXXXXXXXXXXooooXXXXXXXXXXXXXXXXXXXXXXXXXXXXoo   @@@@@@@@@@@@@@@@@@@@",
"@@@@@@@@@@@@@@@@  ooXXXXXXXXXXX  XXXX  XXXXXXXXXXXXXXXXXXXXXXXXXXXXooo  @@@@@@@@@@@@@@@@@@",
"@@@@@@@@@@@@@@@@  ooXXXXXXXXXXX  XXXX  XXXXXXXXXXXXXXXXXXXXXXXXXXXXooo  @@@@@@@@@@@@@@@@@@",
"@@@@@@@@@@@@@@@@  XXXXXXXXXXXXXXX    XXXXXXXXXXXX..XXXXXXXXXXXXXXXXXXX  @@@@@@@@@@@@@@@@@@",
"@@@@@@@@@@@@@@@@  XXXXXXXXXXXXXXX    XXXXXXXXXXXX..XXXXXXXXXXXXXXXXXXX  @@@@@@@@@@@@@@@@@@",
"@@@@@@@@@@@@@@@@  XXXXXXXXXXX    XXXXXXXXXXXXXXXXXX..XXXXXX..XXXXXXXXXoo  @@@@@@@@@@@@@@@@",
"@@@@@@@@@@@@@@@@  XXXXXXXXXXX    XXXXXXXXXXXXXXXXXX..XXXXXX..XXXXXXXXXoo  @@@@@@@@@@@@@@@@",
"@@@@@@@@@@@@@@@@  XXXXXXXXXXX    XXXXXXXXXXXXXXXXXX..XXXXXX..XXXXXXXXXoo  @@@@@@@@@@@@@@@@",
"@@@@@@@@@@@@@@@@  XXXXXXX    OO  XXXXXXXXXXooXXXXXXXX......XXXXXXXXXXXoo  @@@@@@@@@@@@@@@@",
"@@@@@@@@@@@@@@@@  XXXXXXX    OO  XXXXXXXXXXooXXXXXXXX......XXXXXXXXXXXoo  @@@@@@@@@@@@@@@@",
"@@@@@@@@@@@@@@  oo         OO  XXXXXXXXXXooXXooXXXXXXXXXXXXXXXXXXXXXXXXXoo  @@@@@@@@@@@@@@",
"@@@@@@@@@@@@@@  oo         OO  XXXXXXXXXXooXXooXXXXXXXXXXXXXXXXXXXXXXXXXoo  @@@@@@@@@@@@@@",
"@@@@@@@@@@@@@@  XX  OOOOO    XXXXXXXXXXXXXXooXXXXXXXXXXXXXXXXXXXXXXXXXXXXXoo  @@@@@@@@@@@@",
"@@@@@@@@@@@@@@  XX  OOOOO    XXXXXXXXXXXXXXooXXXXXXXXXXXXXXXXXXXXXXXXXXXXXoo  @@@@@@@@@@@@",
"@@@@@@@@@@@@  ooXXXX     XXXXXXXXXXXXXXXXXXXXXXXXXXXXXXXXXXXXXXooooXXXXXXXoo  @@@@@@@@@@@@",
"@@@@@@@@@@@@  ooXXXX     XXXXXXXXXXXXXXXXXXXXXXXXXXXXXXXXXXXXXXooooXXXXXXXoo  @@@@@@@@@@@@",
"@@@@@@@@@@  ooXXXXXXXXXXXXXXXXXXXXXXXXXXXXXXXXXXXXXXXXXXXXXXXooXXXXoooXXXXXXoo  @@@@@@@@@@",
"@@@@@@@@@@  ooXXXXXXXXXXXXXXXXXXXXXXXXXXXXXXXXXXXXXXXXXXXXXXXooXXXXoooXXXXXXoo  @@@@@@@@@@",
"@@@@@@@@  ooXXXXXXXXXXXXXXXXXXXXXXXXXXXXXXXXXXXXXXXXXXXXXXXXXXXooooXXXXXXXXXXXoo  @@@@@@@@",
"@@@@@@@@  ooXXXXXXXXXXXXXXXXXXXXXXXXXXXXXXXXXXXXXXXXXXXXXXXXXXXooooXXXXXXXXXXXoo  @@@@@@@@",
"@@@@@@  ooXXXXXXXXXXXXXXXXXXXXXXXXXXXXX..XXXXXXXXXXXXXXXXXXXXXXXXXXXXXXXXXXXXXXXoo  @@@@@@",
"@@@@@@  ooXXXXXXXXXXXXXXXXXXXXXXXXXXXXX..XXXXXXXXXXXXXXXXXXXXXXXXXXXXXXXXXXXXXXXoo  @@@@@@",
"@@@@  ooXXXXXXXXXXXXXXXXXXXXXXXXXXXXXXX..XXXXXXXXXXXXXXXXXXXXXXXXXXXXXXXXXXXXXXXoo  @@@@@@",
"@@@@  ooXXXXXXXXXXXXXXXXXXXXXXXXXXXXXXX..XXXXXXXXXXXXXXXXXXXXXXXXXXXXXXXXXXXXXXXoo  @@@@@@",
"@@  ooXXXXXXXXXXXXXXXXXXXXXXX..XXXXXX..XXXXXXXXXXXXXXXXXXXXXXXXXXXXXXXXXXXXXXXXXXXoo  @@@@",
"@@  ooXXXXXXXXXXXXXXXXXXXXXXX..XXXXXX..XXXXXXXXXXXXXXXXXXXXXXXXXXXXXXXXXXXXXXXXXXXoo  @@@@",
"  ooXXXXXXXXXXXXXXXXXXXXXXXXXXX......XXXXXXXXXXXXXXXXXXXXXXXXXXXXXXXXXXXXXXXXXXXXXXXXX  @@",
"  ooXXXXXXXXXXXXXXXXXXXXXXXXXXX......XXXXXXXXXXXXXXXXXXXXXXXXXXXXXXXXXXXXXXXXXXXXXXXXX  @@",
"  ooXXXXXXXXXXXXXXXXXXXXXXXXXXXXXXXXXXXXXXXXXXXXXXXXXXXXXXXXXXXXXXXXXXXXXXXXXXXXXXXXXXXX@@",
"  ooXXXXXXXXXXXXXXXXXXXXXXXXXXXXXXXXXXXXXXXXXXXXXXXXXXXXXXXXXXXXXXXXXXXXXXXXXXXXXXXXXXXX@@",
"  ooXXXXXXXXXXXXXXXXXXXXXXXXXXXXXXXXXXXXXXXXXXXXXXXXXXXXXXXXXXXXXXXXXXXXXXXXXXXXXXXXXXXX  ",
"  ooXXXXXXXXXXXXXXXXXXXXXXXXXXXXXXXXXXXXXXXXXXXXXXXXXXXXXXXXXXXXXXXXXXXXXXXXXXXXXXXXXXXX  ",
"                                                                                          ",
"                                                                                          "
};
