/* XPM */
static char *result[] = {
/* columns rows colors chars-per-pixel */
"90 52 7 1 ",
"  c #050914",
". c #52294B",
"X c #8F5765",
"o c #CF968C",
"O c #FFCF8E",
"+ c #FAFFFF",
"@ c None",
/* pixels */
"@@@@@@@@@@@@@@@@@@@@@@@@@@@@@@@@@@@@@@@@@@@@@@@@@@@@@@@@@@@@@@@@@@@@@@@@@@@@@@@@@@@@@@@@@@",
"@@@@@@@@@@@@@@@@@@@@@@@@@@@@@@@@@@@@@@@@@@@@@@@@@@@@@@@@@@@@@@@@@@@@@@@@@@@@@@@@@@@@@@@@@@",
"@@@@@@@@@@@@@@@@@@@@@@@@@@@@@@@@@@@@          @@@@@@@@@@@@@@@@@@@@@@@@@@@@@@@@@@@@@@@@@@@@",
"@@@@@@@@@@@@@@@@@@@@@@@@@@@@@@@@@@@@          @@@@@@@@@@@@@@@@@@@@@@@@@@@@@@@@@@@@@@@@@@@@",
"@@@@@@@@@@@@@@@@@@@@@@@@@@@@@@@@@   oooooooooo    @@@@@@@@@@@@@@@@@@@@@@@@@@@@@@@@@@@@@@@@",
"@@@@@@@@@@@@@@@@@@@@@@@@@@@@@@@@@   oooooooooo    @@@@@@@@@@@@@@@@@@@@@@@@@@@@@@@@@@@@@@@@",
"@@@@@@@@@@@@@@@@@@@@@@@@@@@       ooXXoooooooooooo  @@@@@@@@@@@@@@@@@@@@@@@@@@@@@@@@@@@@@@",
"@@@@@@@@@@@@@@@@@@@@@@@@@@@       ooXXoooooooooooo  @@@@@@@@@@@@@@@@@@@@@@@@@@@@@@@@@@@@@@",
"@@@@@@@@@@@@@@@@@@@@@@@@@  +++++++  XXXXXXXXXXXXXXoo  @@@@@@@@@@@@@@@@@@@@@@@@@@@@@@@@@@@@",
"@@@@@@@@@@@@@@@@@@@@@@@@@  +++++++  XXXXXXXXXXXXXXoo  @@@@@@@@@@@@@@@@@@@@@@@@@@@@@@@@@@@@",
"@@@@@@@@@@@@@@@@@@@@@@@  ++++    +++  XXXXXXXXXXXXXXoo  @@@@@@@@@@@@@@@@@@@@@@@@@@@@@@@@@@",
"@@@@@@@@@@@@@@@@@@@@@@@  ++++    +++  XXXXXXXXXXXXXXoo  @@@@@@@@@@@@@@@@@@@@@@@@@@@@@@@@@@",
"@@@@@@@@@@@@@@@@@@@@@@@  ++       ++  XXXXXXXXXXXXXXXXoo @@@@@@@@@@@@@@@@@@@@@@@@@@@@@@@@@",
"@@@@@@@@@@@@@@@@@@@@@@@  ++       ++  XXXXXXXXXXXXXXXXXXo  @@@@@@@@@@@@@@@@@@@@@@@@@@@@@@@",
"@@@@@@@@@@@@@@@@@@@@@@@  ++       ++  XXXXXXXXXXXXXXXXXXo  @@@@@@@@@@@@@@@@@@@@@@@@@@@@@@@",
"@@@@@@@@@@@@@@@@@@@@@@@  ++++    +++  XXXXXXXXXXXXXXXXXXXoo  @@@@@@@@@@@@@@@@@@@@@@@@@@@@@",
"@@@@@@@@@@@@@@@@@@@@@@@  ++++    +++  XXXXXXXXXXXXXXXXXXXoo  @@@@@@@@@@@@@@@@@@@@@@@@@@@@@",
"@@@@@@@@@@@@@@@@@@@@@  oo  +++++++  XXXXXXXXXXXXXXXXXXXXXXXoo  @@@@@@@@@@@@@@@@@@@@@@@@@@@",
"@@@@@@@@@@@@@@@@@@@@@  oo  +++++++  XXXXXXXXXXXXXXXXXXXXXXXoo  @@@@@@@@@@@@@@@@@@@@@@@@@@@",
"@@@@@@@@@@@@@@@@@@@  ooXXXX       XXXXXXXXXXXXXXXXXXXXXXXXXXXoo  @@@@@@@@@@@@@@@@@@@@@@@@@",
"@@@@@@@@@@@@@@@@@@@  ooXXXX       XXXXXXXXXXXXXXXXXXXXXXXXXXXoo  @@@@@@@@@@@@@@@@@@@@@@@@@",
"@@@@@@@@@@@@@@@@@  ooXXXXXXXXXXoooXXXXXXXXXXXXXXXXXXXXXXXXXXXoo  @@@@@@@@@@@@@@@@@@@@@@@@@",
"@@@@@@@@@@@@@@@@@  ooXXXXXXXXXXoooXXXXXXXXXXXXXXXXXXXXXXXXXXXoo  @@@@@@@@@@@@@@@@@@@@@@@@@",
"@@@@@@@@@@@@@@@  ooXXXXXXXXXX  XXX  XXXXXXXXXXXXXXXXXXXXXXXXXXXoo  @@@@@@@@@@@@@@@@@@@@@@@",
"@@@@@@@@@@@@@@@  ooXXXXXXXXXX  XXX  XXXXXXXXXXXXXXXXXXXXXXXXXXXoo  @@@@@@@@@@@@@@@@@@@@@@@",
"@@@@@@@@@@@@@@@  XXXXXXXXXXXXXX   XXXXXXXXXXXX..XXXXXXXXXXXXXXXXX  @@@@@@@@@@@@@@@@@@@@@@@",
"@@@@@@@@@@@@@@@  XXXXXXXXXXXXXX   XXXXXXXXXXXX..XXXXXXXXXXXXXXXXX  @@@@@@@@@@@@@@@@@@@@@@@",
"@@@@@@@@@@@@@@@  XXXXXXXXXX    XXXXXXXXXXXXXXXXX..XXXXXX.XXXXXXXXoo  @@@@@@@@@@@@@@@@@@@@@",
"@@@@@@@@@@@@@@@  XXXXXXXXXX    XXXXXXXXXXXXXXXXX..XXXXXX.XXXXXXXXoo  @@@@@@@@@@@@@@@@@@@@@",
"@@@@@@@@@@@@@@@  XXXXXX    OO  XXXXXXXXXooXXXXXXXX......XXXXXXXXXoo  @@@@@@@@@@@@@@@@@@@@@",
"@@@@@@@@@@@@@@@  XXXXXX    OO  XXXXXXXXXooXXXXXXXX......XXXXXXXXXoo  @@@@@@@@@@@@@@@@@@@@@",
"@@@@@@@@@@@@@  oo        OO  XXXXXXXXXooXXooXXXXXXXXXXXXXXXXXXXXXXXoo  @@@@@@@@@@@@@@@@@@@",
"@@@@@@@@@@@@@  oo        OO  XXXXXXXXXooXXooXXXXXXXXXXXXXXXXXXXXXXXoo  @@@@@@@@@@@@@@@@@@@",
"@@@@@@@@@@@@@  XX  OOOO    XXXXXXXXXXXXXooXXXXXXXXXXXXXXXXXXXXXXXXXXXoo  @@@@@@@@@@@@@@@@@",
"@@@@@@@@@@@@@  XX  OOOO    XXXXXXXXXXXXXooXXXXXXXXXXXXXXXXXXXXXXXXXXXoo  @@@@@@@@@@@@@@@@@",
"@@@@@@@@@@@  ooXXXX    XXXXXXXXXXXXXXXXXXXXXXXXXXXXXXXXXXXXooooXXXXXXoo  @@@@@@@@@@@@@@@@@",
"@@@@@@@@@@@  ooXXXX    XXXXXXXXXXXXXXXXXXXXXXXXXXXXXXXXXXXXooooXXXXXXoo  @@@@@@@@@@@@@@@@@",
"@@@@@@@@@@ ooXXXXXXXXXXXXXXXXXXXXXXXXXXXXXXXXXXXXXXXXXXXXooXXXXooXXXXXXoo  @@@@@@@@@@@@@@@",
"@@@@@@@@@@ ooXXXXXXXXXXXXXXXXXXXXXXXXXXXXXXXXXXXXXXXXXXXXooXXXXooXXXXXXoo  @@@@@@@@@@@@@@@",
"@@@@@@@@  oXXXXXXXXXXXXXXXXXXXXXXXXXXXXXXXXXXXXXXXXXXXXXXXXooooXXXXXXXXXXoo  @@@@@@@@@@@@@",
"@@@@@@  ooXXXXXXXXXXXXXXXXXXXXXXXXXX..XXXXXXXXXXXXXXXXXXXXXXXXXXXXXXXXXXXXXoo  @@@@@@@@@@@",
"@@@@@@  ooXXXXXXXXXXXXXXXXXXXXXXXXXX..XXXXXXXXXXXXXXXXXXXXXXXXXXXXXXXXXXXXXoo  @@@@@@@@@@@",
"@@@@  ooXXXXXXXXXXXXXXXXXXXXXXXXXXXX..XXXXXXXXXXXXXXXXXXXXXXXXXXXXXXXXXXXXXoo  @@@@@@@@@@@",
"@@@@  ooXXXXXXXXXXXXXXXXXXXXXXXXXXXX..XXXXXXXXXXXXXXXXXXXXXXXXXXXXXXXXXXXXXoo  @@@@@@@@@@@",
"@@  ooXXXXXXXXXXXXXXXXXXXXX..XXXXX..XXXXXXXXXXXXXXXXXXXXXXXXXXXXXXXXXXXXXXXXXoo @@@@@@@@@@",
"@@  ooXXXXXXXXXXXXXXXXXXXXX..XXXXX..XXXXXXXXXXXXXXXXXXXXXXXXXXXXXXXXXXXXXXXXXoo @@@@@@@@@@",
"  ooXXXXXXXXXXXXXXXXXXXXXXXXX.....XXXXXXXXXXXXXXXXXXXXXXXXXXXXXXXXXXXXXXXXXXXXXX    @@@@@@",
"  ooXXXXXXXXXXXXXXXXXXXXXXXXX.....XXXXXXXXXXXXXXXXXXXXXXXXXXXXXXXXXXXXXXXXXXXXXX    @@@@@@",
"  ooXXXXXXXXXXXXXXXXXXXXXXXXXXXXXXXXXXXXXXXXXXXXXXXXXXXXXXXXXXXXXXXXXXXXXXXXXXXXXXXX    @@",
"  ooXXXXXXXXXXXXXXXXXXXXXXXXXXXXXXXXXXXXXXXXXXXXXXXXXXXXXXXXXXXXXXXXXXXXXXXXXXXXXXXX    @@",
"                                                                                          ",
"                                                                                          "
};
