/* XPM */
static char *_b52299a071744f6c5ce6acb407cb98bSWd7A8fW3N71S39C[] = {
/* columns rows colors chars-per-pixel */
"16 14 9 1 ",
"  c None",
". c #141B1B",
"X c #4A7F4B",
"o c #5F7160",
"O c #ADBC3A",
"+ c #F1AE41",
"@ c #FFE166",
"# c #ABC2BC",
"$ c white",
/* pixels */
"   ..........   ",
"  .$$$$OO$$$$.  ",
" .$$$$ OO $$$$. ",
" .$$$@@@@@+$$$. ",
" .OO#@@@@@+#OO. ",
".OOO$@@@@@+$OOO.",
".OO$$$++++$$$OO.",
"..$$$$#oo#$$$$..",
"..$$$$$##$$$$$..",
".OO$$$$OO$$$$OO.",
".OOOOXOOOOXOOOO.",
".OO.XXOOOOXX.OO.",
"....XX.OO.XX....",
"       ..       "
};
