/* XPM */
static char *e0b2ca9c75304691b00895ec3a894c16rz9jcKIzxUyOk9xY[] = {
/* columns rows colors chars-per-pixel */
"70 57 9 1 ",
"  c None",
". c #141B1B",
"X c #4A7F4B",
"o c #5F7160",
"O c #ADBC3A",
"+ c #F1AE41",
"@ c #FFE166",
"# c #ABC2BC",
"$ c white",
/* pixels */
"             ............................................             ",
"             ............................................             ",
"             ............................................             ",
"             ............................................             ",
"         ....$$$$$$$$$$$$$$$$$$OOOOOOOO$$$$$$$$$$$$$$$$$$....         ",
"         ....$$$$$$$$$$$$$$$$$$OOOOOOOO$$$$$$$$$$$$$$$$$$....         ",
"         ....$$$$$$$$$$$$$$$$$$OOOOOOOO$$$$$$$$$$$$$$$$$$....         ",
"         ....$$$$$$$$$$$$$$$$$$OOOOOOOO$$$$$$$$$$$$$$$$$$....         ",
"         ....$$$$$$$$$$$$$$$$$$OOOOOOOO$$$$$$$$$$$$$$$$$$....         ",
"    .....$$$$$$$$$$$$$$$$$@@@@@@@@@@@@@@@@@@$$$$$$$$$$$$$$$$$.....    ",
"    .....$$$$$$$$$$$$$$$$$@@@@@@@@@@@@@@@@@@$$$$$$$$$$$$$$$$$.....    ",
"    .....$$$$$$$$$$$$$$$$$@@@@@@@@@@@@@@@@@@$$$$$$$$$$$$$$$$$.....    ",
"    .....$$$$$$$$$$$$$$$$$@@@@@@@@@@@@@@@@@@$$$$$$$$$$$$$$$$$.....    ",
"    .....$$$$$$$$$$$$$@@@@@@@@@@@@@@@@@@@@@@++++$$$$$$$$$$$$$.....    ",
"    .....$$$$$$$$$$$$$@@@@@@@@@@@@@@@@@@@@@@++++$$$$$$$$$$$$$.....    ",
"    .....$$$$$$$$$$$$$@@@@@@@@@@@@@@@@@@@@@@++++$$$$$$$$$$$$$.....    ",
"    .....$$$$$$$$$$$$$@@@@@@@@@@@@@@@@@@@@@@++++$$$$$$$$$$$$$.....    ",
"    .....$$$$$$$$$$$$$@@@@@@@@@@@@@@@@@@@@@@++++$$$$$$$$$$$$$.....    ",
"    .....OOOOOOOO#####@@@@@@@@@@@@@@@@@@@@@@++++####OOOOOOOOO.....    ",
"    .....OOOOOOOO#####@@@@@@@@@@@@@@@@@@@@@@++++####OOOOOOOOO.....    ",
"    .....OOOOOOOO#####@@@@@@@@@@@@@@@@@@@@@@++++####OOOOOOOOO.....    ",
"    .....OOOOOOOO#####@@@@@@@@@@@@@@@@@@@@@@++++####OOOOOOOOO.....    ",
"....OOOOOOOOOOOOO$$$$$####++++++++++++++++++####$$$$OOOOOOOOOOOOOO....",
"....OOOOOOOOOOOOO$$$$$####++++++++++++++++++####$$$$OOOOOOOOOOOOOO....",
"....OOOOOOOOOOOOO$$$$$####++++++++++++++++++####$$$$OOOOOOOOOOOOOO....",
"....OOOOOOOOOOOOO$$$$$####++++++++++++++++++####$$$$OOOOOOOOOOOOOO....",
"....OOOOOOOOO$$$$$$$$$$$$$#####oooooooo#####$$$$$$$$$$$$$OOOOOOOOO....",
"....OOOOOOOOO$$$$$$$$$$$$$#####oooooooo#####$$$$$$$$$$$$$OOOOOOOOO....",
"....OOOOOOOOO$$$$$$$$$$$$$#####oooooooo#####$$$$$$$$$$$$$OOOOOOOOO....",
"....OOOOOOOOO$$$$$$$$$$$$$#####oooooooo#####$$$$$$$$$$$$$OOOOOOOOO....",
"....OOOOOOOOO$$$$$$$$$$$$$#####oooooooo#####$$$$$$$$$$$$$OOOOOOOOO....",
".........$$$$$$$$$$$$$$$$$$$$$$########$$$$$$$$$$$$$$$$$$$$$$.........",
".........$$$$$$$$$$$$$$$$$$$$$$########$$$$$$$$$$$$$$$$$$$$$$.........",
".........$$$$$$$$$$$$$$$$$$$$$$########$$$$$$$$$$$$$$$$$$$$$$.........",
".........$$$$$$$$$$$$$$$$$$$$$$########$$$$$$$$$$$$$$$$$$$$$$.........",
".........$$$$$$$$$$$$$$$$$$$$$$OOOOOOOO$$$$$$$$$$$$$$$$$$$$$$.........",
".........$$$$$$$$$$$$$$$$$$$$$$OOOOOOOO$$$$$$$$$$$$$$$$$$$$$$.........",
".........$$$$$$$$$$$$$$$$$$$$$$OOOOOOOO$$$$$$$$$$$$$$$$$$$$$$.........",
".........$$$$$$$$$$$$$$$$$$$$$$OOOOOOOO$$$$$$$$$$$$$$$$$$$$$$.........",
"....OOOOOOOOO$$$$$$$$$$$$$$$$$$OOOOOOOO$$$$$$$$$$$$$$$$$$OOOOOOOOO....",
"....OOOOOOOOO$$$$$$$$$$$$$$$$$$OOOOOOOO$$$$$$$$$$$$$$$$$$OOOOOOOOO....",
"....OOOOOOOOO$$$$$$$$$$$$$$$$$$OOOOOOOO$$$$$$$$$$$$$$$$$$OOOOOOOOO....",
"....OOOOOOOOO$$$$$$$$$$$$$$$$$$OOOOOOOO$$$$$$$$$$$$$$$$$$OOOOOOOOO....",
"....OOOOOOOOO$$$$$$$$$$$$$$$$$$OOOOOOOO$$$$$$$$$$$$$$$$$$OOOOOOOOO....",
"....OOOOOOOOOOOOOOOOOOXXXXOOOOOOOOOOOOOOOOOOXXXXOOOOOOOOOOOOOOOOOO....",
"....OOOOOOOOOOOOOOOOOOXXXXOOOOOOOOOOOOOOOOOOXXXXOOOOOOOOOOOOOOOOOO....",
"....OOOOOOOOOOOOOOOOOOXXXXOOOOOOOOOOOOOOOOOOXXXXOOOOOOOOOOOOOOOOOO....",
"....OOOOOOOOOOOOOOOOOOXXXXOOOOOOOOOOOOOOOOOOXXXXOOOOOOOOOOOOOOOOOO....",
"....OOOOOOOOO....XXXXXXXXXOOOOOOOOOOOOOOOOOOXXXXXXXX.....OOOOOOOOO....",
"....OOOOOOOOO....XXXXXXXXXOOOOOOOOOOOOOOOOOOXXXXXXXX.....OOOOOOOOO....",
"....OOOOOOOOO....XXXXXXXXXOOOOOOOOOOOOOOOOOOXXXXXXXX.....OOOOOOOOO....",
"....OOOOOOOOO....XXXXXXXXXOOOOOOOOOOOOOOOOOOXXXXXXXX.....OOOOOOOOO....",
"....OOOOOOOOO....XXXXXXXXXOOOOOOOOOOOOOOOOOOXXXXXXXX.....OOOOOOOOO....",
".................         .....OOOOOOOO.....        ..................",
".................         .....OOOOOOOO.....        ..................",
".................         .....OOOOOOOO.....        ..................",
".................         .....OOOOOOOO.....        .................."
};
