/* XPM */
static char *_3baa608070849d5be8c1dbefb3f5bd72fkXtRbIYnkLGqO3[] = {
/* columns rows colors chars-per-pixel */
"14 13 7 1 ",
"  c None",
". c #141B1B",
"X c #E0394C",
"o c #56864C",
"O c #A8A129",
"+ c #ABC2BC",
"@ c #E3F1F5",
/* pixels */
"      .. ..   ",
"     .OO.OO.  ",
"    .OO.OO.O. ",
"   .XXXOOOOOX.",
"   .XXX@@@@@X.",
"    ...+@@@+. ",
"   .OOO...+.. ",
"  .OOOOOOO.oo.",
" .OOOO.oooo.. ",
".OO...oo...   ",
".O. .o..      ",
"              ",
"              "
};
