/* XPM */
static char *c86d418bab254aa7977cd8d0daff4e19Jr12G2QIHioUHYk5[] = {
/* columns rows colors chars-per-pixel */
"70 70 7 1 ",
"  c None",
". c #141B1B",
"X c #E0394C",
"o c #56864C",
"O c #A8A129",
"+ c #ABC2BC",
"@ c #E3F1F5",
/* pixels */
"                                                                      ",
"                                                                      ",
"                                                                      ",
"                                                                      ",
"                                                                      ",
"                              ..........   .........                  ",
"                              ..........   .........                  ",
"                              ..........   .........                  ",
"                              ..........   .........                  ",
"                              ..........   .........                  ",
"                           ...OOOOOOOOOO...OOOOOOOOO.....             ",
"                           ...OOOOOOOOOO...OOOOOOOOO.....             ",
"                           ...OOOOOOOOOO...OOOOOOOOO.....             ",
"                           ...OOOOOOOOOO...OOOOOOOOO.....             ",
"                           ...OOOOOOOOOO...OOOOOOOOO.....             ",
"                      .....OOOOOOOO.....OOOOOOOO....OOOOO...          ",
"                      .....OOOOOOOO.....OOOOOOOO....OOOOO...          ",
"                      .....OOOOOOOO.....OOOOOOOO....OOOOO...          ",
"                      .....OOOOOOOO.....OOOOOOOO....OOOOO...          ",
"                  ....XXXXXXXXXXXXXOOOOOOOOOOOOOOOOOOOOOOXXX.....     ",
"                  ....XXXXXXXXXXXXXOOOOOOOOOOOOOOOOOOOOOOXXX.....     ",
"                  ....XXXXXXXXXXXXXOOOOOOOOOOOOOOOOOOOOOOXXX.....     ",
"                  ....XXXXXXXXXXXXXOOOOOOOOOOOOOOOOOOOOOOXXX.....     ",
"                  ....XXXXXXXXXXXXX@@@@@@@@@@@@@@@@@@@@@@XXX.....     ",
"                  ....XXXXXXXXXXXXX@@@@@@@@@@@@@@@@@@@@@@XXX.....     ",
"                  ....XXXXXXXXXXXXX@@@@@@@@@@@@@@@@@@@@@@XXX.....     ",
"                  ....XXXXXXXXXXXXX@@@@@@@@@@@@@@@@@@@@@@XXX.....     ",
"                  ....XXXXXXXXXXXXX@@@@@@@@@@@@@@@@@@@@@@XXX.....     ",
"                      .............+++++@@@@@@@@@@@@+++++...          ",
"                      .............+++++@@@@@@@@@@@@+++++...          ",
"                      .............+++++@@@@@@@@@@@@+++++...          ",
"                      .............+++++@@@@@@@@@@@@+++++...          ",
"                      .............+++++@@@@@@@@@@@@+++++...          ",
"                  ....OOOOOOOOOOOOO.............++++........          ",
"                  ....OOOOOOOOOOOOO.............++++........          ",
"                  ....OOOOOOOOOOOOO.............++++........          ",
"                  ....OOOOOOOOOOOOO.............++++........          ",
"             .....OOOOOOOOOOOOOOOOOOOOOOOOOOOOOO....oooooooo.....     ",
"             .....OOOOOOOOOOOOOOOOOOOOOOOOOOOOOO....oooooooo.....     ",
"             .....OOOOOOOOOOOOOOOOOOOOOOOOOOOOOO....oooooooo.....     ",
"             .....OOOOOOOOOOOOOOOOOOOOOOOOOOOOOO....oooooooo.....     ",
"             .....OOOOOOOOOOOOOOOOOOOOOOOOOOOOOO....oooooooo.....     ",
"          ...OOOOOOOOOOOOOOOOO.....ooooooooooooooooo........          ",
"          ...OOOOOOOOOOOOOOOOO.....ooooooooooooooooo........          ",
"          ...OOOOOOOOOOOOOOOOO.....ooooooooooooooooo........          ",
"          ...OOOOOOOOOOOOOOOOO.....ooooooooooooooooo........          ",
"          ...OOOOOOOOOOOOOOOOO.....ooooooooooooooooo........          ",
"     .....OOOOOOOO............oooooooooo............                  ",
"     .....OOOOOOOO............oooooooooo............                  ",
"     .....OOOOOOOO............oooooooooo............                  ",
"     .....OOOOOOOO............oooooooooo............                  ",
"     .....OOO.....    .....ooo..........                              ",
"     .....OOO.....    .....ooo..........                              ",
"     .....OOO.....    .....ooo..........                              ",
"     .....OOO.....    .....ooo..........                              ",
"                                                                      ",
"                                                                      ",
"                                                                      ",
"                                                                      ",
"                                                                      ",
"                                                                      ",
"                                                                      ",
"                                                                      ",
"                                                                      ",
"                                                                      ",
"                                                                      ",
"                                                                      ",
"                                                                      ",
"                                                                      ",
"                                                                      "
};
