/* XPM */
static char *result[] = {
/* columns rows colors chars-per-pixel */
"16 14 7 1 ",
"  c #141B1B",
". c #E0394C",
"X c #56864C",
"o c #A8A129",
"O c #ABC2BC",
"+ c #E3F1F5",
"@ c None",
/* pixels */
"@@@@@@@@@@@@@@@@",
"@@@@@@@@@@@@@@@@",
"@@@@@@@@@@@@@@@@",
"@@@@@  @  @@@@@@",
"@@@@ oo oo @@@@@",
"@@@ oo oo o @@@@",
"@@ ...ooooo. @@@",
"@@ ...+++++. @@@",
"@@@   O+++O @@@@",
"@@@ oo OOO o @@@",
"@@ oooXXXXXo @@@",
"@@  ooo X o  @@@",
"@@@@XXXXXXX@@@@@",
"@@@@@@@@@@@@@@@@"
};
