/* XPM */
static char *result[] = {
/* columns rows colors chars-per-pixel */
"34 30 171 2 ",
"   c black",
".  c #100800",
"X  c #00140B",
"o  c #000114",
"O  c #00001A",
"+  c #000812",
"@  c #0F181B",
"#  c #061718",
"$  c #151C1C",
"%  c #241A00",
"&  c #281C1D",
"*  c #002C00",
"=  c #003602",
"-  c #002816",
";  c #1D221D",
":  c #003B16",
">  c #22261C",
",  c #26291D",
"<  c #33341D",
"1  c #3B3C1C",
"2  c #3E3817",
"3  c #2D1F20",
"4  c #00392C",
"5  c #2D3020",
"6  c #630000",
"7  c #760000",
"8  c #401D21",
"9  c #6B002D",
"0  c #7B0029",
"q  c #4B2225",
"w  c #78282D",
"e  c #385915",
"r  c #3F601F",
"t  c #0A4430",
"y  c #255E21",
"u  c #315F3C",
"i  c #2F6331",
"p  c #5C4C00",
"a  c #54511E",
"s  c #565B1E",
"d  c #4C4D10",
"f  c #686801",
"g  c #6A721E",
"h  c #4A5F32",
"j  c #635E20",
"k  c #516332",
"l  c #477C37",
"z  c #456421",
"x  c #6A6621",
"c  c #6D6A22",
"v  c #706C23",
"b  c #6C7227",
"n  c #7A7523",
"m  c #6C7530",
"M  c #376D53",
"N  c #507F49",
"B  c #477751",
"V  c #747A43",
"C  c #5A6E71",
"Z  c #556C68",
"A  c #616E66",
"S  c #980000",
"D  c #B9000F",
"F  c #9E113B",
"G  c #871432",
"H  c #BC0438",
"J  c #872432",
"K  c #8E2F34",
"L  c #A32A39",
"P  c #CD0027",
"I  c #E9043D",
"U  c #CD233C",
"Y  c #877E00",
"T  c #837D24",
"R  c #9C7525",
"E  c #AD792F",
"W  c #C56E28",
"Q  c #E7004B",
"!  c #CF3247",
"~  c #C13543",
"^  c #D33648",
"/  c #E6214F",
"(  c #E9344C",
")  c #ED3851",
"_  c #F13A52",
"`  c #DA554A",
"'  c #DB4A4A",
"]  c #D97B67",
"[  c #7F811D",
"{  c #7D8121",
"}  c #738838",
"|  c #43824F",
" . c #4B844F",
".. c #55864C",
"X. c #57894E",
"o. c #5B8A4E",
"O. c #5E8247",
"+. c #448250",
"@. c #5A8D50",
"#. c #648C4B",
"$. c #69924E",
"%. c #6D9A53",
"&. c #6F8F7A",
"*. c #878000",
"=. c #968C00",
"-. c #9C8400",
";. c #939100",
":. c #9A9500",
">. c #858718",
",. c #90921A",
"<. c #A29600",
"1. c #A39A00",
"2. c #ADA400",
"3. c #B1A800",
"4. c #868324",
"5. c #8B8526",
"6. c #8E8824",
"7. c #918B25",
"8. c #9D9926",
"9. c #9B9727",
"0. c #8C943A",
"q. c #939B3B",
"w. c #868E37",
"e. c #A39D29",
"r. c #BF8E38",
"t. c #9BA13C",
"y. c #ABA226",
"u. c #ABA42A",
"i. c #AFA82A",
"p. c #A7A627",
"a. c #B0A626",
"s. c #B2AA2B",
"d. c #A2A132",
"f. c #C49438",
"g. c #9BA540",
"h. c #E0866D",
"j. c #7B9E82",
"k. c #929195",
"l. c #A6969A",
"z. c #86A88E",
"x. c #82A389",
"c. c #B7B784",
"v. c #BBBB84",
"b. c #BDB483",
"n. c #94ACA4",
"m. c #92A2A5",
"M. c #9CB3AC",
"N. c #A7BFB7",
"B. c #E59799",
"V. c #C4B481",
"C. c #D49CA4",
"Z. c #DDA9B1",
"A. c #EDA3A4",
"S. c #B8C289",
"D. c #ACC5BD",
"F. c #BBCDCB",
"G. c #BED1CF",
"H. c #BFD0D0",
"J. c #CBDDDD",
"K. c #C4D7D6",
"L. c #DDDDD8",
"P. c #D7E1DB",
"I. c #D8E3DB",
"U. c #DBE9ED",
"Y. c #D8E9E9",
"T. c #DFEEF1",
"R. c #E6F5FC",
"E. c #E9F7FE",
"W. c #EBF8FF",
"Q. c #E3F6FA",
"!. c None",
/* pixels */
"!.!.!.!.!.!.!.!.!.!.!.!.!.!.!.!.!.!.!.!.!.!.!.!.!.!.!.!.!.!.!.!.!.!.",
"!.!.!.!.!.!.!.!.!.!.!.!.!.!.!.!.!.!.!.!.!.!.!.!.!.!.!.!.!.!.!.!.!.!.",
"!.!.!.!.!.!.!.!.!.!.!.!.!.!.!.!.!.!.!.!.!.!.!.!.!.!.!.!.!.!.!.!.!.!.",
"!.!.!.!.!.!.!.!.!.!.!.!.!.!.!.!.!.!.!.!.!.!.!.!.!.!.!.!.!.!.!.!.!.!.",
"!.!.!.!.!.!.!.!.!.!.!.!.!.!.!.!.!.!.!.!.!.!.!.!.!.!.!.!.!.!.!.!.!.!.",
"!.!.!.!.!.!.!.!.!.!.!.!.!.!.!.!.!.!.!.!.!.!.!.!.!.!.!.!.!.!.!.!.!.!.",
"!.!.!.!.!.!.!.!.!.!.!.O O O !.!.!.!.O O !.!.!.!.!.!.!.!.!.!.!.!.!.!.",
"!.!.!.!.!.!.!.!.!.!.!.$ $ $ $ !.!.$ $ $ $ !.!.!.!.!.!.!.!.!.!.!.!.!.",
"!.!.!.!.!.!.!.!.!.!.a v 5.5.v $ , c T 5.n a !.!.!.!.!.!.!.!.!.!.!.!.",
"!.!.!.!.!.!.!.!.!.O v e.i.i.5.< q 7.u.i.8.x O !.!.!.!.!.!.!.!.!.!.!.",
"!.!.!.!.!.!.!.!.e g 9.p.e.7.T v 4.p.u.9.T T x d !.!.!.!.!.!.!.!.!.!.",
"!.!.!.!.!.!.!.- g 8.p.p.T e a 7.u.p.9.s 1 5.e.v + !.!.!.!.!.!.!.!.!.",
"!.!.!.!.!.!.9 K E f.f.f.R p f 1.3.3.:.f p ;.3.7.J 9 !.!.!.!.!.!.!.!.",
"!.!.!.!.X 8 L ^ ' ` ` ` W -.;.:.1.1.:.=.=.:.1.W ! F & !.!.!.!.!.!.!.",
"!.!.!.!.X q ~ ) ) / Q Q ] V.v.v.c.c.c.v.v.S.b.h.( H 3 X !.!.!.!.!.!.",
"!.!.!.!.X q ~ ) _ ) I Q B.L.Y.I.L.I.I.I.I.Y.L.A.( D 3 X !.!.!.!.!.!.",
"!.!.!.!.X 3 L ! ^ ! P P C.U.Q.Q.E.E.E.E.Q.Q.T.Z.! S & !.!.!.!.!.!.!.",
"!.!.!.!.!.!.w J G 0 7 7 k.H.Y.Q.W.E.E.E.Q.U.H.l.0 6 !.!.!.!.!.!.!.!.",
"!.!.!.!.!.!.+ # - : * * A m.F.J.T.T.T.Q.Y.H.m.&.=   !.!.!.!.!.!.!.!.",
"!.!.!.!.!.!.o O s { >.[ m A m.F.J.J.K.J.H.m.A V [ f ; !.!.!.!.!.!.!.",
"!.!.!.!.!.!.O < 4.u.s.i.Y % Z m.F.N.N.D.M.C . Y u.5.> O !.!.!.!.!.!.",
"!.!.!.!.!.< c 5.8.u.s.i.,.e M j.z.j.x.z.j.B e ,.i.7., O !.!.!.!.!.!.",
"!.!.!.!.O < 4.u.u.u.u.u.q.#.B N ..........+.o.q.y.T > O !.!.!.!.!.!.",
"!.!.!.!.O 5 c 5.8.y.a.y.d.q.} z y l l y r } q.0.T j ; O !.!.!.!.!.!.",
"!.!.!.!.$ $ O 1 T e.s.u.u.u.7.d 4 N ..t 2 6.e.T , O $ @ !.!.!.!.!.!.",
"!.!.!.!.!.@ O O b q.g.q.t.t.w.k u ....u h 0.q.b O O $ !.!.!.!.!.!.!.",
"!.!.!.!.!.!.!.!.#.#.%.$.$.$.#.X...@.@.X.o.%.#.O.!.!.!.!.!.!.!.!.!.!.",
"!.!.!.!.!.!.!.!.!.+.| +.| |  .@.X.....o.@. .| !.!.!.!.!.!.!.!.!.!.!.",
"!.!.!.!.!.!.!.!.!.!.!.!.!.!.!.!.!.!.!.!.!.!.!.!.!.!.!.!.!.!.!.!.!.!.",
"!.!.!.!.!.!.!.!.!.!.!.!.!.!.!.!.!.!.!.!.!.!.!.!.!.!.!.!.!.!.!.!.!.!."
};
