/* XPM */
static char *result[] = {
/* columns rows colors chars-per-pixel */
"60 55 7 1 ",
"  c #141B1B",
". c #E0394C",
"X c #56864C",
"o c #A8A129",
"O c #ABC2BC",
"+ c #E3F1F5",
"@ c None",
/* pixels */
"@@@@@@@@@@@@@@@@           @@@@@@           @@@@@@@@@@@@@@@@",
"@@@@@@@@@@@@@@@@           @@@@@@           @@@@@@@@@@@@@@@@",
"@@@@@@@@@@@@@@@@           @@@@@@           @@@@@@@@@@@@@@@@",
"@@@@@@@@@@@@@@@@           @@@@@@           @@@@@@@@@@@@@@@@",
"@@@@@@@@@@@@@@@@           @@@@@@           @@@@@@@@@@@@@@@@",
"@@@@@@@@@@@     ooooooooooo      ooooooooooo     @@@@@@@@@@@",
"@@@@@@@@@@@     ooooooooooo      ooooooooooo     @@@@@@@@@@@",
"@@@@@@@@@@@     ooooooooooo      ooooooooooo     @@@@@@@@@@@",
"@@@@@@@@@@@     ooooooooooo      ooooooooooo     @@@@@@@@@@@",
"@@@@@@@@@@@     ooooooooooo      ooooooooooo     @@@@@@@@@@@",
"@@@@@@@@@@@     ooooooooooo      ooooooooooo     @@@@@@@@@@@",
"@@@@@      ooooooooooo     ooooooooooo      ooooo      @@@@@",
"@@@@@      ooooooooooo     ooooooooooo      ooooo      @@@@@",
"@@@@@      ooooooooooo     ooooooooooo      ooooo      @@@@@",
"@@@@@      ooooooooooo     ooooooooooo      ooooo      @@@@@",
"@@@@@      ooooooooooo     ooooooooooo      ooooo      @@@@@",
"     .................ooooooooooooooooooooooooooo......     ",
"     .................ooooooooooooooooooooooooooo......     ",
"     .................ooooooooooooooooooooooooooo......     ",
"     .................ooooooooooooooooooooooooooo......     ",
"     .................ooooooooooooooooooooooooooo......     ",
"     .................ooooooooooooooooooooooooooo......     ",
"     .................+++++++++++++++++++++++++++......     ",
"     .................+++++++++++++++++++++++++++......     ",
"     .................+++++++++++++++++++++++++++......     ",
"     .................+++++++++++++++++++++++++++......     ",
"     .................+++++++++++++++++++++++++++......     ",
"@@@@@                 OOOOO+++++++++++++++++OOOOO      @@@@@",
"@@@@@                 OOOOO+++++++++++++++++OOOOO      @@@@@",
"@@@@@                 OOOOO+++++++++++++++++OOOOO      @@@@@",
"@@@@@                 OOOOO+++++++++++++++++OOOOO      @@@@@",
"@@@@@                 OOOOO+++++++++++++++++OOOOO      @@@@@",
"@@@@@                 OOOOO+++++++++++++++++OOOOO      @@@@@",
"@@@@@      ooooooooooo     OOOOOOOOOOOOOOOOO     oooooo     ",
"@@@@@      ooooooooooo     OOOOOOOOOOOOOOOOO     oooooo     ",
"@@@@@      ooooooooooo     OOOOOOOOOOOOOOOOO     oooooo     ",
"@@@@@      ooooooooooo     OOOOOOOOOOOOOOOOO     oooooo     ",
"@@@@@      ooooooooooo     OOOOOOOOOOOOOOOOO     oooooo     ",
"     oooooooooooooooooXXXXXXXXXXXXXXXXXXXXXXXXXXXoooooo     ",
"     oooooooooooooooooXXXXXXXXXXXXXXXXXXXXXXXXXXXoooooo     ",
"     oooooooooooooooooXXXXXXXXXXXXXXXXXXXXXXXXXXXoooooo     ",
"     oooooooooooooooooXXXXXXXXXXXXXXXXXXXXXXXXXXXoooooo     ",
"     oooooooooooooooooXXXXXXXXXXXXXXXXXXXXXXXXXXXoooooo     ",
"     oooooooooooooooooXXXXXXXXXXXXXXXXXXXXXXXXXXXoooooo     ",
"           oooooooooooooooo      XXXXX      ooooo           ",
"           oooooooooooooooo      XXXXX      ooooo           ",
"           oooooooooooooooo      XXXXX      ooooo           ",
"           oooooooooooooooo      XXXXX      ooooo           ",
"           oooooooooooooooo      XXXXX      ooooo           ",
"@@@@@@@@@@@XXXXXXXXXXXXXXXXXXXXXXXXXXXXXXXXXXXXXX@@@@@@@@@@@",
"@@@@@@@@@@@XXXXXXXXXXXXXXXXXXXXXXXXXXXXXXXXXXXXXX@@@@@@@@@@@",
"@@@@@@@@@@@XXXXXXXXXXXXXXXXXXXXXXXXXXXXXXXXXXXXXX@@@@@@@@@@@",
"@@@@@@@@@@@XXXXXXXXXXXXXXXXXXXXXXXXXXXXXXXXXXXXXX@@@@@@@@@@@",
"@@@@@@@@@@@XXXXXXXXXXXXXXXXXXXXXXXXXXXXXXXXXXXXXX@@@@@@@@@@@",
"@@@@@@@@@@@XXXXXXXXXXXXXXXXXXXXXXXXXXXXXXXXXXXXXX@@@@@@@@@@@"
};
