/* XPM */
static char *result[] = {
/* columns rows colors chars-per-pixel */
"100 100 20 1 ",
"  c #0F0E0C",
". c #201F1E",
"X c #42581B",
"o c #4B651D",
"O c #466028",
"+ c #557232",
"@ c #52636D",
"# c #62717A",
"$ c red",
"% c #A76262",
"& c #6A8D40",
"* c #FFA900",
"= c #FFEC00",
"- c #FFF13E",
"; c #6A818E",
": c #00FFB0",
"> c #BE9D86",
", c #A19E98",
"< c white",
"1 c None",
/* pixels */
"1111111111111111111111111111111111111111111111111111111111111111111111111111111111111111111111111111",
"1111111111111111111111111111111111111111111111111111111111111111111111111111111111111111111111111111",
"1111111111111111111111111111111111111111111111111111111111111111111111111111111111111111111111111111",
"1111111111111111111111111111111111111111111111111111111111111111111111111111111111111111111111111111",
"1111111111111111111111111111111111111111111111111111111111111111111111111111111111111111111111111111",
"1111111111111111111111111111111111111111111111111111111111111111111111111111111111111111111111111111",
"1111111111111111111111111111111111111111111111111111111111111111111111111111111111111111111111111111",
"1111111111111111111111111111111111111111111111111111111111111111111111111111111111111111111111111111",
"1111111111111111111111111111111111111111111111111111111111111111111111111111111111111111111111111111",
"1111111111111111111111111111111111111111111111111111111111111111111111111111111111111111111111111111",
"1111111111111111111111111111111111111111111111111111111111111111111111111111111111111111111111111111",
"1111111111111111111111111111111111111111111111111111111111111111111111111111111111111111111111111111",
"1111111111111111111111111111111111111111111111111111111111111111111111111111111111111111111111111111",
"1111111111111111111111111111111111111111111111111111111111111111111111111111111111111111111111111111",
"1111111111111111111111111111111111111111111111111111111111111111111111111111111111111111111111111111",
"1111111111111111111111111111111111111111111111111111111111111111111111111111111111111111111111111111",
"1111111111111111111111111111111111111111111111111111111111111111111111111111111111111111111111111111",
"1111111111111111111111111111111111111111111111111111111111111111111111111111111111111111111111111111",
"1111111111111111111111111111111111111111111111111111111111111111111111111111111111111111111111111111",
"1111111111111111111111111111111111111111111111111111111111111111111111111111111111111111111111111111",
"1111111111111111111111111111111111111111111111111111111111111111111111111111111111111111111111111111",
"1111111111111111111111111111111111111111111111111111111111111111111111111111111111111111111111111111",
"1111111111111111111111111111111111111111111111111111111111111111111111111111111111111111111111111111",
"1111111111111111111111111111111111111111111111111111111111111111111111111111111111111111111111111111",
"1111111111111111111111111111111111111111111111111111111111111111111111111111111111111111111111111111",
"1111111111111111111111111111111111111111111111111111111111111111111111111111111111111111111111111111",
"1111111111111111111111111111111111111111111111111111111111111111111111111111111111111111111111111111",
"1111111111111111111111111111111111111111111111111111111111111111111111111111111111111111111111111111",
"1111111111111111111111111111111111111111111111111111111111111111111111111111111111111111111111111111",
"1111111111111111111111111111111111111111111111111111111111111111111111111111111111111111111111111111",
"111111111111111111111111111111111111111111<1:1$1*1:1111111111111111111111111111111111111111111111111",
"11111111111111111111111111111111111111111<X<X$X$X*X<111111111111111111111111111111111111111111111111",
"111111111111111111111111111111111111111111X1X1X1X1X1111111111111111111111111111111111111111111111111",
"111111111111111111111111111111111111111111o1o1o1o1o1111111111111111111111111111111111111111111111111",
"11111111111111111111111111111111111111111-o-o-o-o-o-111111111111111111111111111111111111111111111111",
"111111111111111111111111111111111111111111---------1111111111111111111111111111111111111111111111111",
"111111111111111111111111111111111111111111----$----1111111111111111111111111111111111111111111111111",
"1111111111111111111111111111111111111111111--$=$--11111111111111111111111111111111111111111111111111",
"11111111111111111111111111111111111111111111--$--111111111111111111111111111111111111111111111111111",
"11111111111111111111111111111111111111111...      ..111111111111111111111111111111111111111111111111",
"1111111111111111111111111111111111111111.           .11111111111111111111111111111111111111111111111",
"111111111111111111111111111111111111111.  >>>>>>>>>  .1111111111111111111111111111111111111111111111",
"111111111111111111111111111111111111111. >   >>>   > .1111111111111111111111111111111111111111111111",
"111111111111111111111111111111111111111.  >>> > >>>  .1111111111111111111111111111111111111111111111",
"111111111111111111111111111111111111111.  > >   > >  .1111111111111111111111111111111111111111111111",
"111111111111111111111111111111111111111.  >>> > >>>  .1111111111111111111111111111111111111111111111",
"111111111111111111111111111111111111111. >   >>>   > .1111111111111111111111111111111111111111111111",
"111111111111111111111111111111111111111. >>>>   >>>> .1111111111111111111111111111111111111111111111",
"1111111111111111111111111111111111111&&   >> %%% >>   &&&1111111111111111111111111111111111111111111",
"111111111111111111111111111111111111&++O  $       *  O+++&111111111111111111111111111111111111111111",
"111111111111111111111111111111111111&+OO $=$     $=* OOO+&111111111111111111111111111111111111111111",
"111111111111111111111111111111111111&OO+O $.. :  :* O+OO+&111111111111111111111111111111111111111111",
"111111111111111111111111111111111111&OO++O  <<=$<=*O+++O+&111111111111111111111111111111111111111111",
"111111111111111111111111111111111111&+O+++O<=<:. $O++++O+&111111111111111111111111111111111111111111",
"111111111111111111111111111111111111+++O+++O<    O++++OO++111111111111111111111111111111111111111111",
"111111111111111111111111111111111111O++&++++OOOOO+++++O++O111111111111111111111111111111111111111111",
"111111111111111111111111111111111111O+++&+++++++++++&++++O111111111111111111111111111111111111111111",
"111111111111111111111111111111111111O+++&&+++O++++&&&++++O111111111111111111111111111111111111111111",
"111111111111111111111111111111111111OOOO+&+++O++++&+++OOOO111111111111111111111111111111111111111111",
"111111111111111111111111111111111111>>>O+&&++O+++&&+++O>>>111111111111111111111111111111111111111111",
"111111111111111111111111111111111111>>>O++&+++O++&++++O>>>111111111111111111111111111111111111111111",
"111111111111111111111111111111111111>>>O+O+++++++++O++O>>>111111111111111111111111111111111111111111",
"111111111111111111111111111111111111111O+O+OOOOOO+++O+O111111111111111111111111111111111111111111111",
"111111111111111111111111111111111111111O++++++++++++++O111111111111111111111111111111111111111111111",
"111111111111111111111111111111111111111OOOOOOOOOOOOOOOO111111111111111111111111111111111111111111111",
"111111111111111111111111111111111111111;;############;;111111111111111111111111111111111111111111111",
"111111111111111111111111111111111111111;###@@####@@###;111111111111111111111111111111111111111111111",
"111111111111111111111111111111111111111;##@@######@@##;111111111111111111111111111111111111111111111",
"111111111111111111111111111111111111111;##@@##@@##@@##;111111111111111111111111111111111111111111111",
"111111111111111111111111111111111111111;##@##@11@##@##;111111111111111111111111111111111111111111111",
"111111111111111111111111111111111111111;##@##@11@##@##;111111111111111111111111111111111111111111111",
"111111111111111111111111111111111111111;##@##@11@##@##;111111111111111111111111111111111111111111111",
"111111111111111111111111111111111111111;##@##@11@##@##;111111111111111111111111111111111111111111111",
"111111111111111111111111111111111111111;#####@11@#####;111111111111111111111111111111111111111111111",
"111111111111111111111111111111111111111;#####@11@#####;111111111111111111111111111111111111111111111",
"111111111111111111111111111111111111111;#;;##@11@###;;;111111111111111111111111111111111111111111111",
"111111111111111111111111111111111111111;##;##@11@##;;#;111111111111111111111111111111111111111111111",
"111111111111111111111111111111111111111;##;;#@11@#;;##;111111111111111111111111111111111111111111111",
"111111111111111111111111111111111111111;####;@11@;####;111111111111111111111111111111111111111111111",
"111111111111111111111111111111111111111;#####@11@#####;111111111111111111111111111111111111111111111",
"111111111111111111111111111111111111111;####@@11@@####;111111111111111111111111111111111111111111111",
"1111111111111111111111111111111111111111@@@@@1111@@@@@1111111111111111111111111111111111111111111111",
"1111111111111111111111111111111111111111,    1111    ,1111111111111111111111111111111111111111111111",
"1111111111111111111111111111111111111111     1111     1111111111111111111111111111111111111111111111",
"1111111111111111111111111111111111111111111111111111111111111111111111111111111111111111111111111111",
"1111111111111111111111111111111111111111111111111111111111111111111111111111111111111111111111111111",
"1111111111111111111111111111111111111111111111111111111111111111111111111111111111111111111111111111",
"1111111111111111111111111111111111111111111111111111111111111111111111111111111111111111111111111111",
"1111111111111111111111111111111111111111111111111111111111111111111111111111111111111111111111111111",
"1111111111111111111111111111111111111111111111111111111111111111111111111111111111111111111111111111",
"1111111111111111111111111111111111111111111111111111111111111111111111111111111111111111111111111111",
"1111111111111111111111111111111111111111111111111111111111111111111111111111111111111111111111111111",
"1111111111111111111111111111111111111111111111111111111111111111111111111111111111111111111111111111",
"1111111111111111111111111111111111111111111111111111111111111111111111111111111111111111111111111111",
"1111111111111111111111111111111111111111111111111111111111111111111111111111111111111111111111111111",
"1111111111111111111111111111111111111111111111111111111111111111111111111111111111111111111111111111",
"1111111111111111111111111111111111111111111111111111111111111111111111111111111111111111111111111111",
"1111111111111111111111111111111111111111111111111111111111111111111111111111111111111111111111111111",
"1111111111111111111111111111111111111111111111111111111111111111111111111111111111111111111111111111",
"1111111111111111111111111111111111111111111111111111111111111111111111111111111111111111111111111111"
};
