/* XPM */
static char *_61d24a695fa41dfc05f28059a98d3f2dpzZ2x6eXVUIwVKK[] = {
/* columns rows colors chars-per-pixel */
"70 70 4 1 ",
"  c #74A334",
". c #56864C",
"X c #A8A129",
"o c #ADBC3A",
/* pixels */
"ooooooooooooooooooooooooooXXXXooooooooooooooooooooooooooooXXXooooooooo",
"ooooooooooooooooooooooooooXXXXooooooooooooooooooooooooooooXXXooooooooo",
"ooooooooooooooooXXXXXooXXXooooXXXoooooooooooooooooooooooooXXXooXXooooo",
"ooooooooooooooooXXXXXooXXXooooXXXoooooooooooooooooooooooooXXXooXXooooo",
"ooooooooooooooooXXXXXooXXXooooXXXoooooooooooooooooooooooooXXXooXXooooo",
"ooooooooooooooXXoooooXXoooooXXXXXooooooooooooooooooooooooooooooXXooooo",
"ooooooooooooooXXoooooXXoooooXXXXXooooooooooooooooooooooooooooooXXooooo",
"ooooooooooooooooXXXooXXoooXXXXXXXXXooooooooooooooooooooooooooooooooooo",
"ooooooooooooooooXXXooXXoooXXXXXXXXXooooooooooooooooooooooooooooooooooo",
"oooooooooooooooooooooXXoooXXXXXXXooooooooooooooooooooooooooooooooooooo",
"oooooooooooooooooooooXXoooXXXXXXXooooooooooooooooooooooooooooooooooooo",
"oooooooooooooooooooooXXoooXXXXXXXooooooooooooooooooooooooooooooooooooo",
"oooooooooooooooooooooooooooooooooooooooooooooooooooooooooooooooooooooo",
"oooooooooooooooooooooooooooooooooooooooooooooooooooooooooooooooooooooo",
"ooXXXXXoooooXXXXoooooooooooooooooooooooooooooooXXooooooooooooooooooooo",
"ooXXXXXoooooXXXXoooooooooooooooooooooooooooooooXXooooooooooooooooooooo",
"XXoooooXXXXXooooXXXoooooooooooooooooooooooXXoooXXooXXXoooooooooooooooo",
"XXoooooXXXXXooooXXXoooooooooooooooooooooooXXoooXXooXXXoooooooooooooooo",
"XXoooooXXXXXooooXXXoooooooooooooooooooooooXXoooXXooXXXoooooooooooooooo",
"ooXXXooXXoooooXXooooooooooooooooooooooooooXXoooooooXXXoooooooooooooooo",
"ooXXXooXXoooooXXooooooooooooooooooooooooooXXoooooooXXXoooooooooooooooo",
"oooooooXXoooXXXXXXXooooooooooooooooooooooooooooooooooooooooooooooooooo",
"oooooooXXoooXXXXXXXooooooooooooooooooooooooooooooooooooooooooooooooooo",
"ooooooooooooXXXXoooooooooooooooooooooooooooooooooooooooooooooooooooooo",
"ooooooooooooXXXXoooooooooooooooooooooooooooooooooooooooooooooooooooooo",
"ooooooooooooXXXXoooooooooooooooooooooooooooooooooooooooooooooooooooooo",
"oooooooooooooooooooooooooooooooooooooooooooooooooooooooooooooooooooooo",
"oooooooooooooooooooooooooooooooooooooooooooooooooooooooooooooooooooooo",
"oooooooooooooooooooooooooooooooooooooooooooooooooooooooooooooooooooooo",
"oooooooooooooooooooooooooooooooooooooooooooooooooooooooooooooooooooooo",
"oooooooooooooooooooooooooooooooooooooooooooooooooooooooooooooooooooooo",
"oooooooooooooooooooooooooooooooooooooooooooooooooooooooooooooooooooooo",
"oooooooooooooooooooooooooooooooooooooooooooooooooooooooooooooooooooooo",
"oooooooooooooooooooooooooooooooooooooooooooooooooooooooooooooooooooooo",
"oooooooooooooooooooooooooooooooooooooooooooooooooooooooooooooooooooooo",
"oooooooooooooooooooooooooooooooooooooooooooooooooooooooooooooooooooooo",
"oooooooooooooooooooooooooooooooooooooooooooooooooooooooooooooooooooooo",
"oooooooooooooooooooXXXXXXXoooooooooooooooooooooooooooooooooooooXXXXXoo",
"oooooooooooooooooooXXXXXXXoooooooooooooooooooooooooooooooooooooXXXXXoo",
"oooooooooooooooooooXXXXXXXoooooooooooooooooooooooooooooooooooooXXXXXoo",
"ooooooooooooooooXXXoooooooXXooooooooooooooooooooooooooXXXXoooXXoooooXX",
"ooooooooooooooooXXXoooooooXXooooooooooooooooooooooooooXXXXoooXXoooooXX",
"ooooooooooooooXXoooooooXXXXXXXoooooooooooooooooooooXXXooooXXXooooXXXXX",
"ooooooooooooooXXoooooooXXXXXXXoooooooooooooooooooooXXXooooXXXooooXXXXX",
"oooooooooooooooooooooXXXXXXXooooooooooooooooooooooooooXXooXXXooXXXXXXX",
"oooooooooooooooooooooXXXXXXXooooooooooooooooooooooooooXXooXXXooXXXXXXX",
"oooooooooooooooooooooXXXXXXXooooooooooooooooooooooooooXXooXXXooXXXXXXX",
"ooooooooooooooooooooooooooooooooooooooooooooooooooooooooooXXXooXXXXXXX",
"ooooooooooooooooooooooooooooooooooooooooooooooooooooooooooXXXooXXXXXXX",
"oooooXXXXXXXXXoooooooooooooooooooooooooooooooooooooooooooooooooooooooo",
"oooooXXXXXXXXXoooooooooooooooooooooooooooooooooooooooooooooooooooooooo",
"ooXXXoooooooooXXooooooooooooooooooooooooXXXXoooooXXXXXoooooooooooooooo",
"ooXXXoooooooooXXooooooooooooooooooooooooXXXXoooooXXXXXoooooooooooooooo",
"ooXXXoooooooooXXooooooooooooooooooooooooXXXXoooooXXXXXoooooooooooooooo",
"oooooXXoooooooooXXXooooooooooooooooooXXXooooXXXXXoooooXXoooooooooooooo",
"oooooXXoooooooooXXXooooooooooooooooooXXXooooXXXXXoooooXXoooooooooooooo",
"oooooXXXXoooooooXXXoooooooooooooooooooooXXooXXXooooXXXoooooooooooooooo",
"oooooXXXXoooooooXXXoooooooooooooooooooooXXooXXXooooXXXoooooooooooooooo",
"ooXXXXXXXoooooooooooooooooooooooooooooooooooXXXooXXXXXXXoooooooooooooo",
"ooXXXXXXXoooooooooooooooooooooooooooooooooooXXXooXXXXXXXoooooooooooooo",
"ooXXXXXXXoooooooooooooooooooooooooooooooooooXXXooXXXXXXXoooooooooooooo",
"oooooooXXXXXoooooooooooooooooooooooooooooooooooooXXXXXoooooooooooooooo",
"oooooooXXXXXoooooooooooooooooooooooooooooooooooooXXXXXoooooooooooooooo",
"oooooooooooooooooooooooooooooooooooooooooooooooooooooooooooooooooooooo",
"oooooooooooooooooooooooooooooooooooooooooooooooooooooooooooooooooooooo",
"oooooooooooooooooooooooooooooooooooooooooooooooooooooooooooooooooooooo",
"oooooooooooooooooooooooooooooooooooooooooooooooooooooooooooooooooooooo",
"oooooooooooooooooooooooooooooooooooooooooooooooooooooooooooooooooooooo",
"ooooooooooooooooooooooooooooooooooooooooooooooooooooooXXXX...       ..",
"ooooooooooooooooooooooooooooooooooooooooooooooooooooooXXXX...       .."
};
