/* XPM */
static char *_2d05ec91b164120e0f137129493155daqcQGdU0eQX0cmtF[] = {
/* columns rows colors chars-per-pixel */
"30 30 4 1 ",
"  c #74A334",
". c #56864C",
"X c #A8A129",
"o c #ADBC3A",
/* pixels */
"oooooooooooXXooooooooooooXoooo",
"oooooooXXoXooXoooooooooooXoXoo",
"ooooooXooXooXXoooooooooooooXoo",
"oooooooXoXoXXXXooooooooooooooo",
"oooooooooXoXXXoooooooooooooooo",
"oooooooooooooooooooooooooooooo",
"oXXooXXoooooooooooooXooooooooo",
"XooXXooXooooooooooXoXoXooooooo",
"oXoXooXoooooooooooXoooXooooooo",
"oooXoXXXoooooooooooooooooooooo",
"oooooXXooooooooooooooooooooooo",
"oooooooooooooooooooooooooooooo",
"oooooooooooooooooooooooooooooo",
"oooooooooooooooooooooooooooooo",
"oooooooooooooooooooooooooooooo",
"oooooooooooooooooooooooooooooo",
"ooooooooXXXooooooooooooooooXXo",
"oooooooXoooXoooooooooooXXoXooX",
"ooooooXoooXXXoooooooooXooXooXX",
"oooooooooXXXoooooooooooXoXoXXX",
"oooooooooooooooooooooooooXoXXX",
"ooXXXXoooooooooooooooooooooooo",
"oXooooXooooooooooXXooXXooooooo",
"ooXooooXooooooooXooXXooXoooooo",
"ooXXoooXoooooooooXoXooXooooooo",
"oXXXoooooooooooooooXoXXXoooooo",
"oooXXooooooooooooooooXXooooooo",
"oooooooooooooooooooooooooooooo",
"oooooooooooooooooooooooooooooo",
"oooooooooooooooooooooooXX.   ."
};
