/* XPM */
static char *_49545db15e2459abf179fdf66aad83a7wTlae0PIucg1mII[] = {
/* columns rows colors chars-per-pixel */
"70 68 8 1 ",
"  c None",
". c #141B1B",
"X c #4E484A",
"o c #4A7F4B",
"O c #E46D3A",
"+ c #965746",
"@ c #74A334",
"# c #ADBC3A",
/* pixels */
"                       ........................                       ",
"                       ........................                       ",
"                .......@@@@@@@@@@@@@@@@@@@@@@@@.......                ",
"                .......@@@@@@@@@@@@@@@@@@@@@@@@.......                ",
"                .......@@@@@@@@@@@@@@@@@@@@@@@@.......                ",
"           .....######################################.......         ",
"           .....######################################.......         ",
"       ....##################################################....     ",
"       ....##################################################....     ",
"     ..##########################################################...  ",
"     ..##########################################################...  ",
"  ...@@##########################################################@@@..",
"  ...@@##########################################################@@@..",
"  ...@@##########################################################@@@..",
"  ...@@@@##################################################@@@@##@@@..",
"  ...@@@@##################################################@@@@##@@@..",
"  ...##########################################################@@@@@..",
"  ...##########################################################@@@@@..",
"..@@@###############################################################@@",
"..@@@###############################################################@@",
"..@@@###############################################################@@",
"..@@@###############################################################@@",
"..@@@###############################################################@@",
".....@@##########################################################@@@..",
".....@@##########################################################@@@..",
"..@@@###############################################################@@",
"..@@@###############################################################@@",
"..@@@@@#############################################################@@",
"..@@@@@#############################################################@@",
"..@@@@@#############################################################@@",
"..@@@@@#############################################################@@",
"..@@@@@#############################################################@@",
"..@@@@@@@###############################################@@@######@@@@@",
"..@@@@@@@###############################################@@@######@@@@@",
"  ...@@@@#########@@#######################################@@##@@@@@..",
"  ...@@@@#########@@#######################################@@##@@@@@..",
"..ooooo@@@@#####@@#######@@#########@@#####################@@@@@@@@@@@",
"..ooooo@@@@#####@@#######@@#########@@#####################@@@@@@@@@@@",
"..ooooo@@@@#####@@#######@@#########@@#####################@@@@@@@@@@@",
"..ooooooo@@@@@@@@@#######@@#########@@#########@@@@@####@@@@@@@@@@@@@@",
"..ooooooo@@@@@@@@@#######@@#########@@#########@@@@@####@@@@@@@@@@@@@@",
"  .....oooo@@@@@@@@@@@@@@@@@@#####@@@@@@@####@@@@@@@@@@@@@@@@oo@@.....",
"  .....oooo@@@@@@@@@@@@@@@@@@#####@@@@@@@####@@@@@@@@@@@@@@@@oo@@.....",
"     ....ooooo@@@@@@@@@@@@@@@@@@@@@@@@@@@@@@@@@@@@@@@@@@@@@oooo.....  ",
"     ....ooooo@@@@@@@@@@@@@@@@@@@@@@@@@@@@@@@@@@@@@@@@@@@@@oooo.....  ",
"     ..ooooooooo@@@@ooo@@@@@@@@@@@oo@@@@@@@oo@@@@@@@@@ooooooooooo...  ",
"     ..ooooooooo@@@@ooo@@@@@@@@@@@oo@@@@@@@oo@@@@@@@@@ooooooooooo...  ",
"     ..ooooooooo@@@@ooo@@@@@@@@@@@oo@@@@@@@oo@@@@@@@@@ooooooooooo...  ",
"     ..oooooooooooooooooo@@@@ooooooo@@@@@@@oooo@@@@@ooooooooooooo...  ",
"     ..oooooooooooooooooo@@@@ooooooo@@@@@@@oooo@@@@@ooooooooooooo...  ",
"       ....oooooooXXooooooooooooooooooooooooooooooooooooooooo....     ",
"       ....oooooooXXooooooooooooooooooooooooooooooooooooooooo....     ",
"       ..+++++XXXXXXXXXXXXXXXXXXoooooooooXX++oooooXXXXXXXXXXXXX..     ",
"       ..+++++XXXXXXXXXXXXXXXXXXoooooooooXX++oooooXXXXXXXXXXXXX..     ",
"       ..+++++++OOOOXXX+++++++++++++XX+++XX+++++++++XXXXXXXXX++..     ",
"       ..+++++++OOOOXXX+++++++++++++XX+++XX+++++++++XXXXXXXXX++..     ",
"       ..+++++++OOOOXXX+++++++++++++XX+++XX+++++++++XXXXXXXXX++..     ",
"     ..OOOO+++OOOOOOOOOOOOOOOOOOOOOO++OOO++OO+++++++XX++XXX++++OO...  ",
"     ..OOOO+++OOOOOOOOOOOOOOOOOOOOOO++OOO++OO+++++++XX++XXX++++OO...  ",
"     ..OOOOOOOOOOOOOOOOOOOOOOOOOOOOO++OOO++OO+++++++XX+++++++++++...  ",
"     ..OOOOOOOOOOOOOOOOOOOOOOOOOOOOO++OOO++OO+++++++XX+++++++++++...  ",
"       OOOOOOOOOOOOOOOOOOOOOOOOOOOOO++OOOOOOO++++++++++++++++++++     ",
"       OOOOOOOOOOOOOOOOOOOOOOOOOOOOO++OOOOOOO++++++++++++++++++++     ",
"              OOOOOOOOOOOOOOOOOOOOOOOOOOOOO++++++++++++++++           ",
"              OOOOOOOOOOOOOOOOOOOOOOOOOOOOO++++++++++++++++           ",
"              OOOOOOOOOOOOOOOOOOOOOOOOOOOOO++++++++++++++++           ",
"                                                                      ",
"                                                                      "
};
