/* XPM */
static char *result[] = {
/* columns rows colors chars-per-pixel */
"70 66 8 1 ",
"  c #141B1B",
". c #4E484A",
"X c #4A7F4B",
"o c #E46D3A",
"O c #965746",
"+ c #74A334",
"@ c #ADBC3A",
"# c None",
/* pixels */
"######################                        ########################",
"######################                        ########################",
"###############       ++++++++++++++++++++++++      ##################",
"###############       ++++++++++++++++++++++++      ##################",
"###########    @@@@@@@@@@@@@@@@@@@@@@@@@@@@@@@@@@@@@       ###########",
"###########    @@@@@@@@@@@@@@@@@@@@@@@@@@@@@@@@@@@@@       ###########",
"###########    @@@@@@@@@@@@@@@@@@@@@@@@@@@@@@@@@@@@@       ###########",
"#######    @@@@@@@@@@@@@@@@@@@@@@@@@@@@@@@@@@@@@@@@@@@@@@@@    #######",
"#######    @@@@@@@@@@@@@@@@@@@@@@@@@@@@@@@@@@@@@@@@@@@@@@@@    #######",
"####   @@@@@@@@@@@@@@@@@@@@@@@@@@@@@@@@@@@@@@@@@@@@@@@@@@@@@@@@   ####",
"####   @@@@@@@@@@@@@@@@@@@@@@@@@@@@@@@@@@@@@@@@@@@@@@@@@@@@@@@@   ####",
"##  +++@@@@@@@@@@@@@@@@@@@@@@@@@@@@@@@@@@@@@@@@@@@@@@@@@@@@@@@@+++  ##",
"##  +++@@@@@@@@@@@@@@@@@@@@@@@@@@@@@@@@@@@@@@@@@@@@@@@@@@@@@@@@+++  ##",
"##  +++++@@@@@@@@@@@@@@@@@@@@@@@@@@@@@@@@@@@@@@@@@@@@@@@@++++@@+++  ##",
"##  +++++@@@@@@@@@@@@@@@@@@@@@@@@@@@@@@@@@@@@@@@@@@@@@@@@++++@@+++  ##",
"##  @@@@@@@@@@@@@@@@@@@@@@@@@@@@@@@@@@@@@@@@@@@@@@@@@@@@@@@@@+++++  ##",
"##  @@@@@@@@@@@@@@@@@@@@@@@@@@@@@@@@@@@@@@@@@@@@@@@@@@@@@@@@@+++++  ##",
"##  @@@@@@@@@@@@@@@@@@@@@@@@@@@@@@@@@@@@@@@@@@@@@@@@@@@@@@@@@+++++  ##",
"  ++@@@@@@@@@@@@@@@@@@@@@@@@@@@@@@@@@@@@@@@@@@@@@@@@@@@@@@@@@@@@@@++  ",
"  ++@@@@@@@@@@@@@@@@@@@@@@@@@@@@@@@@@@@@@@@@@@@@@@@@@@@@@@@@@@@@@@++  ",
"  ++@@@@@@@@@@@@@@@@@@@@@@@@@@@@@@@@@@@@@@@@@@@@@@@@@@@@@@@@@@@@@@++  ",
"  ++@@@@@@@@@@@@@@@@@@@@@@@@@@@@@@@@@@@@@@@@@@@@@@@@@@@@@@@@@@@@@@++  ",
"    +++@@@@@@@@@@@@@@@@@@@@@@@@@@@@@@@@@@@@@@@@@@@@@@@@@@@@@@@@+++    ",
"    +++@@@@@@@@@@@@@@@@@@@@@@@@@@@@@@@@@@@@@@@@@@@@@@@@@@@@@@@@+++    ",
"  ++@@@@@@@@@@@@@@@@@@@@@@@@@@@@@@@@@@@@@@@@@@@@@@@@@@@@@@@@@@@@@@++  ",
"  ++@@@@@@@@@@@@@@@@@@@@@@@@@@@@@@@@@@@@@@@@@@@@@@@@@@@@@@@@@@@@@@++  ",
"  +++++@@@@@@@@@@@@@@@@@@@@@@@@@@@@@@@@@@@@@@@@@@@@@@@@@@@@@@@@@@@++  ",
"  +++++@@@@@@@@@@@@@@@@@@@@@@@@@@@@@@@@@@@@@@@@@@@@@@@@@@@@@@@@@@@++  ",
"  +++++@@@@@@@@@@@@@@@@@@@@@@@@@@@@@@@@@@@@@@@@@@@@@@@@@@@@@@@@@@@++  ",
"  +++++@@@@@@@@@@@@@@@@@@@@@@@@@@@@@@@@@@@@@@@@@@@@@@@@@@@@@@@@@@@++  ",
"  +++++@@@@@@@@@@@@@@@@@@@@@@@@@@@@@@@@@@@@@@@@@@@@@@@@@@@@@@@@@@@++  ",
"  +++++++@@@@@@@@@@@@@@@@@@@@@@@@@@@@@@@@@@@@@@@@@@@@@@++@@@@@@+++++  ",
"  +++++++@@@@@@@@@@@@@@@@@@@@@@@@@@@@@@@@@@@@@@@@@@@@@@++@@@@@@+++++  ",
"##  +++++@@@@@@@@+++@@@@@@@@@@@@@@@@@@@@@@@@@@@@@@@@@@@@@++@@+++++  ##",
"##  +++++@@@@@@@@+++@@@@@@@@@@@@@@@@@@@@@@@@@@@@@@@@@@@@@++@@+++++  ##",
"  XXXXX++++@@@@++@@@@@@@++@@@@@@@@@++@@@@@@@@@@@@@@@@@@@@+++++++++++  ",
"  XXXXX++++@@@@++@@@@@@@++@@@@@@@@@++@@@@@@@@@@@@@@@@@@@@+++++++++++  ",
"  XXXXXXX++++++++@@@@@@@++@@@@@@@@@++@@@@@@@@@++++@@@@@+++++++++++++  ",
"  XXXXXXX++++++++@@@@@@@++@@@@@@@@@++@@@@@@@@@++++@@@@@+++++++++++++  ",
"  XXXXXXX++++++++@@@@@@@++@@@@@@@@@++@@@@@@@@@++++@@@@@+++++++++++++  ",
"##     XXXX+++++++++++++++++@@@@@++++++@@@@@+++++++++++++++XX++     ##",
"##     XXXX+++++++++++++++++@@@@@++++++@@@@@+++++++++++++++XX++     ##",
"####     XXXX++++++++++++++++++++++++++++++++++++++++++++XXXX     ####",
"####     XXXX++++++++++++++++++++++++++++++++++++++++++++XXXX     ####",
"####   XXXXXXXX+++++XX+++++++++++XX+++++++XX++++++++XXXXXXXXXXX   ####",
"####   XXXXXXXX+++++XX+++++++++++XX+++++++XX++++++++XXXXXXXXXXX   ####",
"####   XXXXXXXXXXXXXXXXX++++XXXXXXX+++++++XXXX++++XXXXXXXXXXXXX   ####",
"####   XXXXXXXXXXXXXXXXX++++XXXXXXX+++++++XXXX++++XXXXXXXXXXXXX   ####",
"#######    XXXXXX...XXXXXXXXXXXXXXXXXXXXXXXXXXXXXXXXXXXXXXX    #######",
"#######    XXXXXX...XXXXXXXXXXXXXXXXXXXXXXXXXXXXXXXXXXXXXXX    #######",
"#######    XXXXXX...XXXXXXXXXXXXXXXXXXXXXXXXXXXXXXXXXXXXXXX    #######",
"#######  OOOO..................XXXXXXXX...OOXXXX.............  #######",
"#######  OOOO..................XXXXXXXX...OOXXXX.............  #######",
"#######  OOOOOOooooo..OOOOOOOOOOOOO..OO...OOOOOOOO.........OO  #######",
"#######  OOOOOOooooo..OOOOOOOOOOOOO..OO...OOOOOOOO.........OO  #######",
"####   ooooOOooooooooooooooooooooooOOooOOOooOOOOOO..OOO..OOOOoo   ####",
"####   ooooOOooooooooooooooooooooooOOooOOOooOOOOOO..OOO..OOOOoo   ####",
"####   ooooooooooooooooooooooooooooOOooOOOooOOOOOO..OOOOOOOOOOO   ####",
"####   ooooooooooooooooooooooooooooOOooOOOooOOOOOO..OOOOOOOOOOO   ####",
"#######ooooooooooooooooooooooooooooOOoooooooOOOOOOOOOOOOOOOOOOO#######",
"#######ooooooooooooooooooooooooooooOOoooooooOOOOOOOOOOOOOOOOOOO#######",
"#######ooooooooooooooooooooooooooooOOoooooooOOOOOOOOOOOOOOOOOOO#######",
"#############oooooooooooooooooooooooooooooOOOOOOOOOOOOOOO#############",
"#############oooooooooooooooooooooooooooooOOOOOOOOOOOOOOO#############",
"######################################################################",
"######################################################################"
};
