/* XPM */
static char *result[] = {
/* columns rows colors chars-per-pixel */
"90 50 6 1 ",
"  c #050914",
". c #52294B",
"X c #8F5765",
"o c #CF968C",
"O c #FAFFFF",
"+ c None",
/* pixels */
"++++++++++++++++++++++++++++++++++++++++++++++++++++++++++++++++++++++++++++++++++++++++++",
"++++++++++++++++++++++++++++++++++++++++++++++++++++++++++++++++++++++++++++++++++++++++++",
"+++++++++++++++++++++++++++++++++++++++              +++++++++++++++++++++++++++++++++++++",
"+++++++++++++++++++++++++++++++++++++++              +++++++++++++++++++++++++++++++++++++",
"+++++++++++++++++++++++++++++++++++++  oooooooooooooo  +++++++++++++++++++++++++++++++++++",
"+++++++++++++++++++++++++++++++++++++  oooooooooooooo  +++++++++++++++++++++++++++++++++++",
"+++++++++++++++++++++++++++++        ooXoooooooooooXXXX       ++++++++++++++++++++++++++++",
"++++++++++++++++++++++++++++ OOOOOOXXXXXXXooooooooXXXXXXXOOOOO  ++++++++++++++++++++++++++",
"++++++++++++++++++++++++++++ OOOOOOXXXXXXXooooooooXXXXXXXOOOOO  ++++++++++++++++++++++++++",
"++++++++++++++++++++++++++  OOOXXXXXXXXXXXXXXXXXXXXXXXXXXXXXXOOO  ++++++++++++++++++++++++",
"++++++++++++++++++++++++++  OOOXXXXXXXXXXXXXXXXXXXXXXXXXXXXXXOOO  ++++++++++++++++++++++++",
"++++++++++++++++++++++++++  OXXXXXXXXXXXXXXXXXXXXXXXXXXXXXXXXXOO  ++++++++++++++++++++++++",
"++++++++++++++++++++++++++  OXXXXXXXXXXXXXXXXXXXXXXXXXXXXXXXXXOO  ++++++++++++++++++++++++",
"++++++++++++++++++++++++++  XXXXXXXXXXXXXXXXXXXXXXXXXXXXXXXXXXOO  ++++++++++++++++++++++++",
"++++++++++++++++++++++++++  XXXXXXXXXXXXXXXXXXXXXXXXXXXXXXXXXXOO  ++++++++++++++++++++++++",
"++++++++++++++++++++++++    XXXXXXXXXXXXXXXXXXXXXXXXXXXXXXXXXXXX    ++++++++++++++++++++++",
"++++++++++++++++++++++++    XXXXXXXXXXXXXXXXXXXXXXXXXXXXXXXXXXXX    ++++++++++++++++++++++",
"++++++++++++++++++++++  ooooXXXXXXXXXXXXXXXXXXXXXXXXXXXXXXXXXXXXoooo  ++++++++++++++++++++",
"++++++++++++++++++++++  ooooXXXXXXXXXXXXXXXXXXXXXXXXXXXXXXXXXXXXoooo  ++++++++++++++++++++",
"++++++++++++++++++++  ooXXXXXXXXXXXXXXXXXXXXXXXXXXXXXXXXXXXXXXXXXXXXoo  ++++++++++++++++++",
"++++++++++++++++++  ooXXXXXXXXX..XXXXXXXXXXXXX..XXXXXXXXXXXXXXXXXXXXXXoo +++++++++++++++++",
"++++++++++++++++++  ooXXXXXXXXX..XXXXXXXXXXXXX..XXXXXXXXXXXXXXXXXXXXXXoo +++++++++++++++++",
"++++++++++++++++++  XXXXXXXXXXXXX..XXXXXXX....XXXXXXXXXXXXXXXXXXXXXXXXXX +++++++++++++++++",
"++++++++++++++++++  XXXXXXXXXXXXX..XXXXXXX....XXXXXXXXXXXXXXXXXXXXXXXXXX +++++++++++++++++",
"+++++++++++++++++ XXXXXXXXXXXXXXXXX.......XXXXXXXXXXXXXXXXXXXXXXXXXXXXXXX  +++++++++++++++",
"+++++++++++++++++ XXXXXXXXXXXXXXXXX.......XXXXXXXXXXXXXXXXXXXXXXXXXXXXXXX  +++++++++++++++",
"+++++++++++++++  XXXXXXXXXooXXXXXXXXXXXXXXXXXXXXXXXXXXXXXXXXXXXXXXXXXXXXXXX  +++++++++++++",
"+++++++++++++++  XXXXXXXXXooXXXXXXXXXXXXXXXXXXXXXXXXXXXXXXXXXXXXXXXXXXXXXXX  +++++++++++++",
"+++++++++++++  XXXXXXXXXooXXoXXXXXXXXXXXXXXXXXXXXXXXXXXXXXXXXXXXXXXXXXXXXXXXX  +++++++++++",
"+++++++++++++  XXXXXXXXXooXXoXXXXXXXXXXXXXXXXXXXXXXXXXXXXXXXXXXXXXXXXXXXXXXXX  +++++++++++",
"+++++++++++  XXXXXXXXXXXXXooXXXXXXXXXXXXXXXXXXXXXXXXXXXXXXXXXXXXXXXXXXXXXXXXXXX  +++++++++",
"+++++++++  XXXXXXXXXXXXXXXXXXXXXXXXXXXXXXXXXXXXXXXXXX..XXXXXXXXXXX..XXXXXXXXXXXXX  +++++++",
"+++++++++  XXXXXXXXXXXXXXXXXXXXXXXXXXXXXXXXXXXXXXXXXX..XXXXXXXXXXX..XXXXXXXXXXXXX  +++++++",
"+++++++++  XXXXXXXXXXXXXXXXXXXXXXXXXXXXXXXXXXXXXXXXXXXX..XXXXXXX..XXXXXXXXXXXXXXX  +++++++",
"+++++++++  XXXXXXXXXXXXXXXXXXXXXXXXXXXXXXXXXXXXXXXXXXXX..XXXXXXX..XXXXXXXXXXXXXXX  +++++++",
"+++++++  XXXXXXXXXXXXXXXXXXXXXXXXXXXXXXXXXXXXXXXXXXXXXXXX.......XXXXXXXXXXXXXXXXXXX ++++++",
"+++++++  XXXXXXXXXXXXXXXXXXXXXXXXXXXXXXXXXXXXXXXXXXXXXXXX.......XXXXXXXXXXXXXXXXXXX ++++++",
"+++++++  XXXXXXXXXXXXXXXXXXXXXXXXXXXXXXXXXooXXXXXXXXXXXXXXXXXXXXXXXXXXXXXXXXXXXXXXX ++++++",
"+++++++  XXXXXXXXXXXXXXXXXXXXXXXXXXXXXXXXXooXXXXXXXXXXXXXXXXXXXXXXXXXXXXXXXXXXXXXXX ++++++",
"++++++ XXXXXXXX..XXXXXXXXXXX.XXXXXXXXXXXooXXooXXXXXXXXXXXXXXXXXXXXXXXXXXXXXXXXXXXXXX  ++++",
"++++++ XXXXXXXX..XXXXXXXXXXX.XXXXXXXXXXXooXXooXXXXXXXXXXXXXXXXXXXXXXXXXXXXXXXXXXXXXX  ++++",
"++++++ XXXXXXXXXX.XXXXXXXX..XXXXXXXXXXXXXXooXXXXXXXXXXXXXXXXXXXXXXXXXXXXXXXXXXXXXXXX  ++++",
"++++++ XXXXXXXXXX.XXXXXXXX..XXXXXXXXXXXXXXooXXXXXXXXXXXXXXXXXXXXXXXXXXXXXXXXXXXXXXXX  ++++",
"++++  XXXXXXXXXXXX........XXXXXXXXXXXXXXXXXXXXXXXXXXXXXXXXXXXXXXXXXXXXXXXXXXXXXXXXXXXX  ++",
"++  XXXXXXXXXXXXXXXXXXXXXXXXXXXXXXXXXXXXXXXXXXXXXXXXXXXXXXXXXXXXXXXXXXXXXXXXXXXXXXXXXXXX  ",
"++  XXXXXXXXXXXXXXXXXXXXXXXXXXXXXXXXXXXXXXXXXXXXXXXXXXXXXXXXXXXXXXXXXXXXXXXXXXXXXXXXXXXX  ",
"++  XXXXXXXXXXXXXXXXXXXXXXXXXXXXXXXXXXXXXXXXXXXXXXXXXXXXXXXXXXXXXXXXXXXXXXXXXXXXXXXXXXXX  ",
"++  XXXXXXXXXXXXXXXXXXXXXXXXXXXXXXXXXXXXXXXXXXXXXXXXXXXXXXXXXXXXXXXXXXXXXXXXXXXXXXXXXXXX  ",
"++                                                                                        ",
"++                                                                                        "
};
