/* XPM */
static char *result[] = {
/* columns rows colors chars-per-pixel */
"90 50 6 1 ",
"  c #050914",
". c #52294B",
"X c #8F5765",
"o c #CF968C",
"O c #FAFFFF",
"+ c None",
/* pixels */
"+++++++++++++++++++++++++++++++++++++++              +++++++++++++++++++++++++++++++++++++",
"+++++++++++++++++++++++++++++++++++++++              +++++++++++++++++++++++++++++++++++++",
"+++++++++++++++++++++++++++++++++++++  oooooooooooooo  +++++++++++++++++++++++++++++++++++",
"+++++++++++++++++++++++++++++++++++++  oooooooooooooo  +++++++++++++++++++++++++++++++++++",
"+++++++++++++++++++++++++++++        ooXoooooooooooXXXX       ++++++++++++++++++++++++++++",
"+++++++++++++++++++++++++++++        ooXoooooooooooXXXX       ++++++++++++++++++++++++++++",
"++++++++++++++++++++++++++++ OOOOOOXXXXXXXooooooooXXXXXXXOOOOO  ++++++++++++++++++++++++++",
"++++++++++++++++++++++++++  OOOXXXXXXXXXXXXXXXXXXXXXXXXXXXXXXOOO  ++++++++++++++++++++++++",
"++++++++++++++++++++++++++  OOOXXXXXXXXXXXXXXXXXXXXXXXXXXXXXXOOO  ++++++++++++++++++++++++",
"++++++++++++++++++++++++++  OXXXXXXXXXXXXXXXXXXXXXXXXXXXXXXXXXOO  ++++++++++++++++++++++++",
"++++++++++++++++++++++++++  OXXXXXXXXXXXXXXXXXXXXXXXXXXXXXXXXXOO  ++++++++++++++++++++++++",
"++++++++++++++++++++++++++  XXXXXXXXXXXXXXXXXXXXXXXXXXXXXXXXXXOO  ++++++++++++++++++++++++",
"++++++++++++++++++++++++++  XXXXXXXXXXXXXXXXXXXXXXXXXXXXXXXXXXOO  ++++++++++++++++++++++++",
"++++++++++++++++++++++++    XXXXXXXXXXXXXXXXXXXXXXXXXXXXXXXXXXXX    ++++++++++++++++++++++",
"++++++++++++++++++++++++    XXXXXXXXXXXXXXXXXXXXXXXXXXXXXXXXXXXX    ++++++++++++++++++++++",
"++++++++++++++++++++++  ooooXXXXXXXXXXXXXXXXXXXXXXXXXXXXXXXXXXXXoooo  ++++++++++++++++++++",
"++++++++++++++++++++++  ooooXXXXXXXXXXXXXXXXXXXXXXXXXXXXXXXXXXXXoooo  ++++++++++++++++++++",
"++++++++++++++++++++  ooXXXXXXXXXXXXXXXXXXXXXXXXXXXXXXXXXXXXXXXXXXXXoo  ++++++++++++++++++",
"++++++++++++++++++++  ooXXXXXXXXXXXXXXXXXXXXXXXXXXXXXXXXXXXXXXXXXXXXoo  ++++++++++++++++++",
"++++++++++++++++++  ooXXXXXXXXX..XXXXXXXXXXXXX..XXXXXXXXXXXXXXXXXXXXXXoo +++++++++++++++++",
"++++++++++++++++++  XXXXXXXXXXX..XXXXXXXXXXXXX..XXXXXXXXXXXXXXXXXXXXXXXX +++++++++++++++++",
"++++++++++++++++++  XXXXXXXXXXX..XXXXXXXXXXXXX..XXXXXXXXXXXXXXXXXXXXXXXX +++++++++++++++++",
"+++++++++++++++++ XXXXXXXXXXXXXXX..XXXXXXX....XXXXXXXXXXXXXXXXXXXXXXXXXXX  +++++++++++++++",
"+++++++++++++++++ XXXXXXXXXXXXXXX..XXXXXXX....XXXXXXXXXXXXXXXXXXXXXXXXXXX  +++++++++++++++",
"+++++++++++++++  XXXXXXXXXXXXXXXXXX.......XXXXXXXXXXXXXXXXXXXXXXXXXXXXXXXXX  +++++++++++++",
"+++++++++++++++  XXXXXXXXXXXXXXXXXX.......XXXXXXXXXXXXXXXXXXXXXXXXXXXXXXXXX  +++++++++++++",
"+++++++++++++  XXXXXXXXXXXooXXXXXXXXXXXXXXXXXXXXXXXXXXXXXXXXXXXXXXXXXXXXXXXXX  +++++++++++",
"+++++++++++++  XXXXXXXXXXXooXXXXXXXXXXXXXXXXXXXXXXXXXXXXXXXXXXXXXXXXXXXXXXXXX  +++++++++++",
"+++++++++++  XXXXXXXXXXXooXXoXXXXXXXXXXXXXXXXXXXXXXXXXXXXXXXXXXXXXXXXXXXXXXXXXX  +++++++++",
"+++++++++++  XXXXXXXXXXXooXXoXXXXXXXXXXXXXXXXXXXXXXXXXXXXXXXXXXXXXXXXXXXXXXXXXX  +++++++++",
"+++++++++  XXXXXXXXXXXXXXXooXXXXXXXXXXXXXXXXXXXXXXXXX..XXXXXXXXXXX..XXXXXXXXXXXXX  +++++++",
"+++++++++  XXXXXXXXXXXXXXXXXXXXXXXXXXXXXXXXXXXXXXXXXX..XXXXXXXXXXX..XXXXXXXXXXXXX  +++++++",
"+++++++++  XXXXXXXXXXXXXXXXXXXXXXXXXXXXXXXXXXXXXXXXXX..XXXXXXXXXXX..XXXXXXXXXXXXX  +++++++",
"+++++++  XXXXXXXXXXXXXXXXXXXXXXXXXXXXXXXXXXXXXXXXXXXXXX..XXXXXXX..XXXXXXXXXXXXXXXXX ++++++",
"+++++++  XXXXXXXXXXXXXXXXXXXXXXXXXXXXXXXXXXXXXXXXXXXXXX..XXXXXXX..XXXXXXXXXXXXXXXXX ++++++",
"+++++++  XXXXXXXXXXXXXXXXXXXXXXXXXXXXXXXXXooXXXXXXXXXXXXX.......XXXXXXXXXXXXXXXXXXX ++++++",
"+++++++  XXXXXXXXXXXXXXXXXXXXXXXXXXXXXXXXXooXXXXXXXXXXXXX.......XXXXXXXXXXXXXXXXXXX ++++++",
"++++++ XXXXXXXX..XXXXXXXXXXX.XXXXXXXXXXXooXXooXXXXXXXXXXXXXXXXXXXXXXXXXXXXXXXXXXXXXX  ++++",
"++++++ XXXXXXXX..XXXXXXXXXXX.XXXXXXXXXXXooXXooXXXXXXXXXXXXXXXXXXXXXXXXXXXXXXXXXXXXXX  ++++",
"++++++ XXXXXXXX..XXXXXXXXXXX.XXXXXXXXXXXXXooXXXXXXXXXXXXXXXXXXXXXXXXXXXXXXXXXXXXXXXX  ++++",
"++++++ XXXXXXXX..XXXXXXXXXXX.XXXXXXXXXXXXXooXXXXXXXXXXXXXXXXXXXXXXXXXXXXXXXXXXXXXXXX  ++++",
"++++  XXXXXXXXXXX.XXXXXXXX..XXXXXXXXXXXXXXXXXXXXXXXXXXXXXXXXXXXXXXXXXXXXXXXXXXXXXXXXXX  ++",
"++++  XXXXXXXXXXX.XXXXXXXX..XXXXXXXXXXXXXXXXXXXXXXXXXXXXXXXXXXXXXXXXXXXXXXXXXXXXXXXXXX  ++",
"++++XXXXXXXXXXXXXX........XXXXXXXXXXXXXXXXXXXXXXXXXXXXXXXXXXXXXXXXXXXXXXXXXXXXXXXXXXXXXX++",
"    XXXXXXXXXXXXXXXXXXXXXXXXXXXXXXXXXXXXXXXXXXXXXXXXXXXXXXXXXXXXXXXXXXXXXXXXXXXXXXXXXXXX  ",
"    XXXXXXXXXXXXXXXXXXXXXXXXXXXXXXXXXXXXXXXXXXXXXXXXXXXXXXXXXXXXXXXXXXXXXXXXXXXXXXXXXXXX  ",
"    XXXXXXXXXXXXXXXXXXXXXXXXXXXXXXXXXXXXXXXXXXXXXXXXXXXXXXXXXXXXXXXXXXXXXXXXXXXXXXXXXXXX  ",
"    XXXXXXXXXXXXXXXXXXXXXXXXXXXXXXXXXXXXXXXXXXXXXXXXXXXXXXXXXXXXXXXXXXXXXXXXXXXXXXXXXXXX  ",
"                                                                                          ",
"                                                                                          "
};
