/* XPM */
static char *result[] = {
/* columns rows colors chars-per-pixel */
"50 90 248 2 ",
"   c black",
".  c #090101",
"X  c #6E1536",
"o  c #711B0F",
"O  c #781848",
"+  c #790C43",
"@  c #722346",
"#  c #3E5279",
"$  c #515372",
"%  c #6A646D",
"&  c #891335",
"*  c #882124",
"=  c red",
"-  c #957634",
";  c #A77A33",
":  c #A27E1C",
">  c #8C0C4B",
",  c #940B4C",
"<  c #960A4A",
"1  c #87134B",
"2  c #96134B",
"3  c #950B52",
"4  c #9C0E58",
"5  c #990B54",
"6  c #9B1355",
"7  c #8E1158",
"8  c #A60D58",
"9  c #AC1B6B",
"0  c #A81865",
"q  c #B31B6D",
"w  c #B8166A",
"e  c #B81D71",
"r  c #B10D64",
"t  c #9C2768",
"y  c #96366C",
"u  c #A6276A",
"i  c #B4236D",
"p  c #AC2872",
"a  c #B42372",
"s  c #BB2373",
"d  c #BA2A78",
"f  c #AB3776",
"g  c #B43C7B",
"h  c #B9367A",
"j  c #A3346E",
"k  c #90245F",
"l  c #C81B76",
"z  c #CB1B75",
"x  c #C6277B",
"c  c #CF247D",
"v  c #92794A",
"b  c #BA427E",
"n  c #B6437D",
"m  c #A94B7A",
"M  c #AF6D75",
"N  c #A45E66",
"B  c #C77278",
"V  c #C2407E",
"C  c #26FF00",
"Z  c #A8971A",
"A  c #B19712",
"S  c #B9A419",
"D  c #B8A80E",
"F  c #9F9730",
"G  c #A99929",
"H  c #A89C37",
"J  c #B79C36",
"K  c #AE8D2C",
"L  c #B8A628",
"P  c #ACA335",
"I  c #B8A637",
"U  c #B6AB2F",
"Y  c #9D8B0C",
"T  c #FF9D00",
"R  c #C7AD16",
"E  c #C6A727",
"W  c #C8B42A",
"Q  c #D6BA2A",
"!  c #C4AB3B",
"~  c #C8B739",
"^  c #D6BC37",
"/  c #D0A72E",
"(  c #D9A934",
")  c #FBFF00",
"_  c #D8C339",
"`  c #D3C22D",
"'  c #DFC52F",
"]  c #A89A45",
"[  c #B79C47",
"{  c #B09454",
"}  c #B7A947",
"|  c #BAB246",
" . c #ADA45C",
".. c #B9AA58",
"X. c #BAB358",
"o. c #AFA94D",
"O. c #B39C78",
"+. c #AE946E",
"@. c #B7A865",
"#. c #BAB569",
"$. c #B7A678",
"%. c #BDB477",
"&. c #ABAA70",
"*. c #9A924A",
"=. c #D0914F",
"-. c #C1AB48",
";. c #CBBD4C",
":. c #C6B746",
">. c #D6BA48",
",. c #D8A957",
"<. c #C8BA58",
"1. c #D6BA58",
"2. c #C6AB55",
"3. c #E7B352",
"4. c #CC8579",
"5. c #CE9066",
"6. c #C8B967",
"7. c #CEB56C",
"8. c #E7AF70",
"9. c #CEC246",
"0. c #D7C449",
"q. c #D5C359",
"w. c #CBC356",
"e. c #E2C448",
"r. c #D7C968",
"t. c #C9C577",
"y. c #D7C977",
"u. c #DDD37B",
"i. c #DCD473",
"p. c #D2CB67",
"a. c #E4CB6A",
"s. c #E6CC78",
"d. c #E5D577",
"f. c #E3D46B",
"g. c #355488",
"h. c #3A6186",
"j. c #636F91",
"k. c #0008FF",
"l. c #BD3982",
"z. c #CA2B81",
"x. c #C83A86",
"c. c #D6358B",
"v. c #C61D80",
"b. c #BB4583",
"n. c #BD4B85",
"m. c #BD4D89",
"M. c #B64884",
"N. c #BC568A",
"B. c #AC5B85",
"V. c #B96594",
"C. c #B56E8D",
"Z. c #C14A86",
"A. c #C34D8A",
"S. c #CB4B8D",
"D. c #C64489",
"F. c #C4528D",
"G. c #CA528E",
"H. c #C5578B",
"J. c #CD4C92",
"K. c #C84991",
"L. c #D24B94",
"P. c #D84998",
"I. c #C55591",
"U. c #CC5492",
"Y. c #CC5A95",
"T. c #CA5B99",
"R. c #D35695",
"E. c #D25996",
"W. c #D9559B",
"Q. c #D45D9A",
"!. c #DA5C9C",
"~. c #D6539B",
"^. c #D1498E",
"/. c #C4678B",
"(. c #CA6599",
"). c #D4629D",
"_. c #DA629D",
"`. c #D36B9E",
"'. c #C77999",
"]. c #D5799A",
"[. c #CB7887",
"{. c #DC5CA2",
"}. c #DA58A1",
"|. c #E55BA6",
" X c #EC55A8",
".X c #D664A2",
"XX c #DC65A2",
"oX c #D56AA3",
"OX c #DC69A4",
"+X c #DC68A8",
"@X c #D777A6",
"#X c #CD75A6",
"$X c #E264A5",
"%X c #E463AA",
"&X c #E567A9",
"*X c #EE67B0",
"=X c #E2579F",
"-X c #6A82AA",
";X c #67879B",
":X c #858F8E",
">X c #B88D8C",
",X c #B9A588",
"<X c #B4AC91",
"1X c #BC96AE",
"2X c #B6B4AC",
"3X c #CB8890",
"4X c #C6BA87",
"5X c #C8B899",
"6X c #D5BD9A",
"7X c #C5A88E",
"8X c #C79BBB",
"9X c #D090B2",
"0X c #E289B9",
"qX c #CEB0B2",
"wX c #E3BAAE",
"eX c #CCC688",
"rX c #D8CB86",
"tX c #D9D686",
"yX c #CCC596",
"uX c #D7C597",
"iX c #DDD295",
"pX c #E5D390",
"aX c #D9C7A7",
"sX c #D4CBB1",
"dX c #E3CBA9",
"fX c #E5DBAA",
"gX c #E5D7B5",
"hX c #E7C5B5",
"jX c #EAE2B2",
"kX c #D89BC4",
"lX c #CB9FC4",
"zX c #EA9AC9",
"xX c #D6A8C8",
"cX c #D7B7C9",
"vX c #D2AFCD",
"bX c #E6A8CD",
"nX c #E9ABD4",
"mX c #ECB3D6",
"MX c #DDBFE0",
"NX c #D6CECC",
"BX c #E6CAD6",
"VX c #E9D3CD",
"CX c #EBE3CC",
"ZX c #F0D6E6",
"AX c white",
"SX c #D4DDE7",
"DX c #BFD2DC",
"FX c None",
/* pixels */
"FXFXFXFXFXFXFXFXFXFXFXFXFXFXFXFXFXFXFXFXFXFXFXFX*.v FXFXFXFXFXFXFXFXFXFXFXFXFXFXFXFXFXFXFXFXFXFXFXFX",
"FXFXFXFXFXFXFXFXFXFXFXFXFXFXFXFXFXFXFXFXFXFXFXFXv ; FXFXFXFXFXFXFXFXFXFXFXFXFXFXFXFXFXFXFXFXFXFXFXFX",
"FXFXFXFXFXFXFXFXFXFXFXFXFXFXFXFXFXFXFXFXFXFXv ; : - - v FXFXFXFXFXFXFXFXFXFXFXFXFXFXFXFXFXFXFXFXFXFX",
"FXFXFXFXFXFXFXFXFXFXFXFXFXFXFXFXFXFXFXFXFXFXF K ; ; K - FXFXFXFXFXFXFXFXFXFXFXFXFXFXFXFXFXFXFXFXFXFX",
"FXFXFXFXFXFXFXFXFXFXFXFXFXFXFXFXFX<Xv - - : >.E / / / J - - - v sXFXFXFXFXFXFXFXFXFXFXFXFXFXFXFXFXFX",
"FXFXFXFXFXFXFXFXFXFXFXFXFXFXFXFXFXuX[ ; K : >.Q ^ Q ` ' A K ; K gXFXFXFXFXFXFXFXFXFXFXFXFXFXFXFXFXFX",
"FXFXFXFXFXFXFXFXFXFXFXFXFX$.X.H } J L Z -.{ w.:.2...;.:.J S E E !  .FXFXFXFXFXFXFXFXFXFXFXFXFXFXFXFX",
"FXFXFXFXFXFXFXFXFXFXFXFXFXt.w.U _ / Q W i.p.f.r.d.r.u.p.^ W Q Q ' ;.jXFXFXFXFXFXFXFXFXFXFXFXFXFXFXFX",
"FXFXFXFXFXFXFXFXFXFXFXFX .G ;.L ~ L R A L G ~ L I U ! L I | :.-.L S }  .FXFXFXFXFXFXFXFXFXFXFXFXFXFX",
"FXFXFXFXFXFXFXFXFXFXFX4Xq.~ d.6.d.1._ Q ' Q e.0._ Q _ >.d.rXu.f.9.^ ` q.FXFXFXFXFXFXFXFXFXFXFXFXFXFX",
"FXFXFXFXFXFXFXFXFXFXFX@.L A X.] I L R A R A ! I ! I | } #...P S ~ I D U FXFXFXFXFXFXFXFXFXFXFXFXFXFX",
"FXFXFXFXFXFXFXFXFXFXFXeX~ W tX:.' R Q R Q W a.6.y.t.rXt.y.r.^ ~ r.f.~ :.fXFXFXFXFXFXFXFXFXFXFXFXFXFX",
"FXFXFXFXFXFXFXFXFXFXFX&.S A 6.o.2.S R D D A W G U H <.o.} E R E -.X.o.I X.%.FXFXFXFXFXFXFXFXFXFXFXFX",
"FXFXFXFXFXFXFXFXFXFXFXeX_ W u.4XrX>._ Q ' Q ' Q _ ^ a.a.>.^ _ >.s.y.y.f.;.w.fXFXFXFXFXFXFXFXFXFXFXFX",
"FXFXFXFXFXFXFXFXFXFXFX .G Z ..P G G 2.K ! J 2.J S A E I I J -.J I H ..| L H %.FXFXFXFXFXFXFXFXFXFXFX",
"FXFXFXFXFXFXFXFXFXFXFXr.w.I u.<.>.! rX4X6X5XuXr.^ W _ ;.r.6XdXtX~ ^ s.i.W ;.iXFXFXFXFXFXFXFXFXFXFXFX",
"FXFXFXFXFXFXFXFXFX<X .K J Z | K [ ] #.+.,X+.,X+.[ J 2.5.@.O.<X$.[ J I U G } o. .FXFXFXFXFXFXFXFXFXFX",
"FXFXFXFXFXFXFXFXFXeX;.I s.<.^ -.pX4X. .   5XhX6X6X6XdX6X. . . hXuXy.9.0.d.p._ ;.FXFXFXFXFXFXFXFXFXFX",
"FXFXFXFXFXFXFXFXFX .L Y ..] P F +.. :X% <X. ,XO.$.O.$.. <X<X;X. ,X@.I } ..} A L FXFXFXFXFXFXFXFXFXFX",
"FXFXFXFXFXFXFXFXFXeX^ L i.6.rX%.. 2X;Xj.SXsX. . . . . 6XBXDX;Xj.  6Xt.y.rXy.! ;.FXFXFXFXFXFXFXFXFXFX",
"FXFXFXFXFXFXFXFXFX .U Y X.*.&. .. ;Xg.g.-X% . . O.. . 2Xj.-Xg.# . O.&.@. .} S P FXFXFXFXFXFXFXFXFXFX",
"FXFXFXFXFXFXFXFXFXeX9.U u.#.u.6.. 2X$ g.j.$ . wXaX5X. VX$ # g.$ . aXeXtXi.f.~ ;.FXFXFXFXFXFXFXFXFXFX",
"FXFXFXFXFXFXFXFXFX&.#.F o.F X.+.7X. $ $ % . <XO.7.O.7X. % $ j.  3XO.&.#.} -.I @.FXFXFXFXFXFXFXFXFXFX",
"FXFXFXFXFXFXFXFXFXFXFXp._ | u.7XwX8X. .   5XhXuXuX6XdXdX. . . vXqXqXuXi.:.>.pXFXFXFXFXFXFXFXFXFXFXFX",
"FXFXFXFXFXFXFXFXFXFX%.P P F #. .{ +.>X+.,XO.7X,XO.O.7X7.,XO.>X7XO.{ @.@.U J X.%.sXFXFXFXFXFXFXFXFXFX",
"FXFXFXFXFXFXFXFXFXeXw.I f.t.tXw.1.6.                              >.i.iXu.f.;.p.jXFXFXFXFXFXFXFXFXFX",
"FXFXFXFXFXFXFXFX%.o.| G 9.P 7.] I 0.    T                   AX    9.<.#.7.6.} I y.4XFXFXFXFXFXFXFXFX",
"FXFXFXFXFXFXFX#.w.I i.~ 9.:.u.X.u.S   T ) T   = = = =     AX) AX  I y.p.eXrXr.a.;.6.aXFXFXFXFXFXFXFX",
"FXFXFXFXFXFX<XH U G -.G } H ;.] 6.[     T     = = = =       AX    y.| X.&.%.X.| U L <.4XFXFXFXFXFXFX",
"FXFXFXFXFXFX9.J rX:._ } fXeX9.U i.p.                            _ } 9.w.CXjX:.` i.i.W 6.FXFXFXFXFXFX",
"FXFXFXFXFXFXE Y 6.U L F yX&.o.P <.I tX      k.                  gX| |  .yXaXI W w.6.S U yXFXFXFXFXFX",
"FXFXFXFXFXFX^ I d.:.9.} jXNXCXrX;.-.4X    k.) k.          C     NXgXgXVXSXgX<._ u.i.~ _ fXFXFXFXFXFX",
"FXFXFX<XeX..J K X.U W K rX,XcX,X..H CX      k.          C ) C   BXNXNXsX5Xy.E E <.6.H | y.yX2XFXFXFX",
"FXFXFX<Xq.| s...i.>.e.R 3.2.>XM CXdXSX.           )       C . BXNXBXC.4.7.e.>.0.a.u.rXd.;.p.sXFXFXFX",
"FXFXFX#.^ L r.@.y.2.,.=.3.=.[.V.mXcXZXNX        ) AX)     . . ZX@ mXV.C.8.,.,.3.a.r.7.i.E 1.uXFXFXFX",
"FXFXFXt._ U pX2.0.2.4.M [./.@X/.@ @ mXcXBX        )     . .   mXO 1 @X0X].[.[.5.0.q.i.d.` 0.iXFXFXFX",
"FXFXFX&.:.G q.I ,.5.B M.(.H.(.T.1 1 & X +                   O + 6 1 OX`.)././.B 5.1.1.q.-.6.5XFXFXFX",
"FXFXFXFXCXy.0.J 4.B ].V.@X(.#XT.> 1 2 1 , >         . .     , , 5 2 @X@XOX@X@X@X'.5.7.q.fXFXFXFXFXFX",
"FXFXFXFXFX5X2.{ './.oX(.].B 4.B 2 < 4 4 4 4 4 . . . . . 8 5 5 8 4 & [.[.@X@X`.@X#X4.7.6.NXFXFXFXFXFX",
"FXFXFXFXFXFXFXqX#X/.].N.[.B 8.5.& 2 8 2 4 < 5 3 . . . < 5 < < 8 2 * 8.8.4.].].@X@X'.hXCXFXFXFXFXFXFX",
"FXFXFXFXFXFXFX8X'.N.].M B ; 3.=.o & 6 2 , < 3 < , < < > 3 > < & & o >.>.; ].`.`.@X'.mXBXFXFXFXFXFXFX",
"FXFXFXFXFXFXFXm #X/.].M 3.>.d.1.3.5.& 2 4 5 4 5 4 5 5 5 3 3 < & 8.1.s.d.1.8.4.].@X@XC.>XFXFXFXFXFXFX",
"FXFXFXFXZXxX9XH.].[.3X; 8.2.f.1.3.=.& 6 3 , 5 3 5 6 4 < 7 3 5 * 3.^ rXpX0.1.5.3X@X@X#XC.BXZXSXFXFXFX",
"FXFXFXFX>XV.#XN.].B 8.I f.t.d.<.e.=.2 2 < , 3 , 6 6 6 2 3 5 5 * 3.>.d.tXr.pX,.8.3X@X#X@X'.>XcXFXFXFX",
"FXFXFXFX'.B.'.m >XM 6.U f.w.i.q.~ =.X > 3 , 3 , 2 5 6 2 7 > 1 X 8.;.p.i.r.f.:.<.+.].C.'.C.>XqXFXFXFX",
"FXFXFX,XdX7XwX5XVXqXgX6.:.E :. .fXcXnX0X> , < > < < < < 3 & bXxXgXpX~ ` W :.tXjXVXBXwXwX6XwX5XqXFXFX",
"FXFXFX,XdX4XdX2XFXFXFXyXq.W 0. .jXBXcXqXO > 6 < < < 6 3 1 + mXMXCXgX6.:._ w.jXFXFXFXsXdXhXhX6XgXFXFX",
"FXFXFX$.uX7XaX,XFXFXFXFXFXyXfX5XqX8XcX8XbX0X2 < 6 > 2 1 zXkXvXxXxXqXhXfXfXgXNXFXFXFXqXaX6XuX5X6XFXFX",
"FXFXFX<XsX5XaX<XFXFXFXFXFXFXFXFXvXlXvX8XvX9XO 1 , 7 1 X nXxXnXvXvXvXFXFXFXFXFXFXFXFXqXsXsXsX5XsXFXFX",
"FXFXFXFXFXFXFXFXFXFXFXFXFXFXFXFXFX8XlX1XlX1XxX0X1 1 zXkX8X8XxX8X8XqXFXFXFXFXFXFXFXFXFXFXFXFXFXFXFXFX",
"FXFXFXFXFXFXFXFXFXFXFXFXFXFXFXFXFXkXbX8XxXlXvXnXO O nXxXmXxXcXxXxXxXFXFXFXFXFXFXFXFXFXFXFXFXFXFXFXFX",
"FXFXFXFXFXFXFXFXFXFXFXFXFXFXFXFXFXFXC.B.xX8XlX8XkX9XxXbXxX8XxXxXxXFXFXFXFXFXFXFXFXFXFXFXFXFXFXFXFXFX",
"FXFXFXFXFXFXFXFXFXFXFXFXFXFXFXFXFXFXoX(.nXkXvXvXnXkXvXxXnXbXbXbXbXFXFXFXFXFXFXFXFXFXFXFXFXFXFXFXFXFX",
"FXFXFXFXFXFXFXFXFXFXFXFXFXFXFXFXFXm.Q.m.T.B.lX1X8X1X8XkXV.V.V.V.V.B.FXFXFXFXFXFXFXFXFXFXFXFXFXFXFXFX",
"FXFXFXFXFXFXFXFXFXFXFXFXFXFXFXFXFXY.XXQ.+XV.nXxXvXkXnXzX(.T.OX+X#X(.FXFXFXFXFXFXFXFXFXFXFXFXFXFXFXFX",
"FXFXFXFXFXFXFXFXFXFXFXFXFXFXj u ~.S.R.K.T.N.V.B.lX1XV.V.(.I.R.E.Y.Y.t t FXFXFXFXFXFXFXFXFXFXFXFXFXFX",
"FXFXFXFXFXFXFXFXFXFXFXFXFXFXz.q &XE._._._.R.OXV.nXxX`.oX.X).+X+X+X|.x p FXFXFXFXFXFXFXFXFXFXFXFXFXFX",
"FXFXFXFXFXFXFXFXFXFXFXFXFXFXq r L.Z.H.b S.x.p k 9X#Xt i S.m.I.I.U.J.w 9 FXFXFXFXFXFXFXFXFXFXFXFXFXFX",
"FXFXFXFXFXFXFXFXFXFXFXFXFXFXd q *XE._.G.$X^.x 0 zXkXa e |.}.oX.X_.$Xl l.FXFXFXFXFXFXFXFXFXFXFXFXFXFX",
"FXFXFXFXFXFXFXFXFXFXFXFXy t K.h G.Z.H.V i i c.g V.m.K.c.a 9 K.A.F.m.x.K.u y FXFXFXFXFXFXFXFXFXFXFXFX",
"FXFXFXFXFXFXFXFXFXFXFXFXd q %XL._.(.OX=Xs x |.T.).).+X|.z.q |.+X`.`.+XXXe t FXFXFXFXFXFXFXFXFXFXFXFX",
"FXFXFXFXFXFXFXFXFXFXFXFXq r J.g b m F.^.w r J.M.b.l.m.J.w w P.K.n.b M.K.l 0 FXFXFXFXFXFXFXFXFXFXFXFX",
"FXFXFXFXFXFXFXFXFXFXFXFXd a XXU.`.A.}.P.z.e {.Y..XY..X|.s l |.&X!.Q.T.+Xe t FXFXFXFXFXFXFXFXFXFXFXFX",
"FXFXFXFXFXFXFXFXFXFXm j x.l.I.l.I.x u e z.l.L.D.N.M.I.U.x.x.d p Z.A.A.I.x.l.m m FXFXFXFXFXFXFXFXFXFX",
"FXFXFXFXFXFXFXFXFXFXh s |.T.OXY.OX~.x s |.T.OXT.OXY.+X{.{.}.s d }.`._.`.OX+Xa j FXFXFXFXFXFXFXFXFXFX",
"FXFXFXFXFXFXFXFXm f h 9 m.M.m.n n.x.e 8 S.g A.g A.n n.D.M.x.r w J.n.b.n.M.A.l.l.m y FXFXFXFXFXFXFXFX",
"FXFXFXFXFXFXFXFXh s W.K.{.T.}.I.{.=Xz.e |.E.XXQ.XXE.XXXX_.|.c z. X.X).oXoX.X{.{.x u FXFXFXFXFXFXFXFX",
"FXFXFXFXFXFXFXFXi r D.f m.f m.f K.x.w 8 D.b A.g Z.b.S.b.A.D.w w P.b.n.n.b.n M.m.r 0 FXFXFXFXFXFXFXFX",
"FXFXFXFXFXFXFXFXf a |.I.OXU._.U.%XP.z.a !.U.OXE._.Q.$X_..XW.x x *X{.).OX$X_.T.+Xl i FXFXFXFXFXFXFXFX",
"FXFXFXFXFXFXFXm d a x.j n.h V h h d s a b.g M.g n.n n.b n.D.s x x d b.Z.V V g S.i h FXFXFXFXFXFXFXFX",
"FXFXFXFXFXFXp q |.I.!.D.!.I..X~.x l %XI.!.Y.XXQ.OX)..X).!.Q.&X%Xd d $X]._._.).`.`.|.l p FXFXFXFXFXFX",
"FXFXFXFXFXFX9 8 ^.f n.f M.n A.x.w r L.f n.g A.b n.b Z.Z.b.b.m.L.r r S.H.b b b m.N.S.8 k FXFXFXFXFXFX",
"FXFXFXFXFXFXd q |.I.oXA..XI.+XP.x x $XY.).Q.$XQ._.).OX_._.(.oX%Xx z |.`.`.).Q.).).$Xi p FXFXFXFXFXFX",
"FXFXFXFXFXFXa 0 Z.f m.g K.b.l.d s 0 A.b Z.n A.Z.A.Z.F.Z.Z.M.m.J.s i x Z.F.Z.Z.F.F.A.u u FXFXFXFXFXFX",
"FXFXFXFXf 0 |.M.+XU..XJ.{.J.s 9 =XR._.Q._.Y._.).XXQ._.).XXQ.oX).!.W.i x W._.$X_.OX+XQ.+Xp j FXFXFXFX",
"FXFXFXM.d r K.j m.g A.h x.d x 9 S.n F.b F.b A.n.A.n.A.n.Z.Z.m.N.H.n.a x x.h Z.G.F.A.l.D.s f FXFXFXFX",
"FXFXx f |.S.XXZ.).F..XP.x w $XU.`.Y.$XE..XE.&X).).Q.OX$XXXQ.+X.X.X)._. Xs x %X$X_.OX)..XXX+Xa d FXFX",
"FXFXs r S.g G.f S.g S.x s 0 G.M.F.b.U.M.F.b.I.n.G.Z.G.A.S.A.S.U.U.n.A.J.0 q x.S.Y.H.m.F.K.U.0 e FXFX",
"FXFXd e !.F.OXb.{.L.x 9 W.R.&XH.).F..XQ.`.Y.OXQ.OXQ.$XXXXX!.$XXX+X).).oXU.|.d x $X).(.).{.+X0 d FXFX",
"FXFXp 0 F.g G.h ^.d e 0 G.n F.n N.M.F.b.F.b.F.b.G.Z.G.F.G.A.G.G.K.m.m.N.T.K.9 e D.S.A.A.A.K.t 9 FXFX",
"i e }.J.+XR.%Xx.d a %XG._.G.OXY..XE.+XQ.OX!.XX!.OXQ.OXOXOX)..XOXOX).).+XoX.XXX|.d d =XOX_.OXT.%Xp j ",
"l r T.n Y.b.L.d s 0 K.g Y.n.U.n.U.n.R.A.E.Z.G.G.U.G.Y.G.Y.I.Y.Y.T.F.F.I.I.I.A.W.s i ^.S.S.U.M.Q.w s ",
"x s |.F.OX^.e e %XR.$XU.OX(.XXY.OX).&XQ.XXQ.XX_.OX).OX_.OX).OX+XOX).).oXOXOX).XX$X*Xq z.+XoXT.+Xi a ",
"y p P.h R.x.l r R.Z.Y.b Y.b Y.b.U.Z.U.n.U.Z.Y.G.R.G.E.F.H.F.Y.Y.Y.F.I.T.Y.F.F.F.Y.R.0 q Y.}.x.P.f y ",
"FXFXx.p %Xc.z.z &XR.$XJ.XX~.OXU.XXQ.XXE._.Q.XX_..X!.XX+X_.)._.&XOX)._.OX%XXX).OXXX|.l z.%X%Xa d FXFX",
"FXFXy t L.c.z z  X^.=XP. XL.Y.A.Q.G.).F.Q.F.E.G.E.G.R.Q.Q.Y.).).Q.E.E.!.~.W.|.|.|. Xl v.|.W.t y FXFX",
"FXFXFXFXl.e z.l l s l w x p $XU.$XQ.$XQ.`.Q.$X!.&X).XXXX{..XOX&X+X_._.$Xi z.x c z.x v.z.x f FXFXFXFX",
"FXFXFXFXj 7 u 7 u 6 j 7 t t !.K.~.^.!.J.~.S.W.L.W.L.~.~.W.~.W.~.!.W.W.W.t u u p u t 0 t t FXFXFXFXFX",
"FXFXFXFXFXFXFXFXFXFXFXFXFXFXp e z z v.l l l z l z c c z v.z z z z.c c j FXFXFXFXFXFXFXFXFXFXFXFXFXFX",
"FXFXFXFXFXFXFXFXFXFXFXFXFXFXt 0 q q q q e e e e q q q 0 q 9 e e q i q k FXFXFXFXFXFXFXFXFXFXFXFXFXFX"
};
