/* XPM */
static char *result[] = {
/* columns rows colors chars-per-pixel */
"50 88 245 2 ",
"   c black",
".  c #090101",
"X  c #6E1536",
"o  c #711B0F",
"O  c #771447",
"+  c #782249",
"@  c #3E5279",
"#  c #515372",
"$  c #6A646D",
"%  c #891335",
"&  c #882124",
"*  c red",
"=  c #957634",
"-  c #A77A33",
";  c #A27E1C",
":  c #8C0C4B",
">  c #940B4C",
",  c #960B4A",
"<  c #87134B",
"1  c #96134B",
"2  c #950B52",
"3  c #990B55",
"4  c #9B1355",
"5  c #8E1158",
"6  c #A60D58",
"7  c #AC1B6B",
"8  c #A81865",
"9  c #B31B6D",
"0  c #B8166A",
"q  c #BC1C71",
"w  c #B41E71",
"e  c #B10D64",
"r  c #9C2768",
"t  c #96366C",
"y  c #A6276A",
"u  c #B4236D",
"i  c #AC2872",
"p  c #B42372",
"a  c #BB2373",
"s  c #BA2A78",
"d  c #AB3776",
"f  c #B43C7B",
"g  c #B9367A",
"h  c #A3346E",
"j  c #90245F",
"k  c #C81B76",
"l  c #CB1B75",
"z  c #C32B7D",
"x  c #C7257A",
"c  c #CF247D",
"v  c #92794A",
"b  c #974E74",
"n  c #BA427E",
"m  c #B6437D",
"M  c #A94B7A",
"N  c #B26B74",
"B  c #B97651",
"V  c #C77278",
"C  c #C2407E",
"Z  c #26FF00",
"A  c #A8971A",
"S  c #B19712",
"D  c #B8A31A",
"F  c #B8A80E",
"G  c #9F9730",
"H  c #A99929",
"J  c #A89C37",
"K  c #B79C36",
"L  c #AE8D2C",
"P  c #B8A528",
"I  c #ACA335",
"U  c #B8A737",
"Y  c #B6AB2F",
"T  c #9D8B0C",
"R  c #FF9D00",
"E  c #C7AD16",
"W  c #C5A727",
"Q  c #C8B42A",
"!  c #D6BA2A",
"~  c #C4AB3B",
"^  c #C8B739",
"/  c #D6BC37",
"(  c #D0A72E",
")  c #D9A934",
"_  c #FBFF00",
"`  c #D8C338",
"'  c #D3C22D",
"]  c #DFC52F",
"[  c #A89A45",
"{  c #B79C47",
"}  c #AF9655",
"|  c #B7A947",
" . c #BAB246",
".. c #ADA45C",
"X. c #B8AA58",
"o. c #BAB358",
"O. c #AFA94D",
"+. c #AE9472",
"@. c #B7A865",
"#. c #BAB569",
"$. c #B7A678",
"%. c #BDB477",
"&. c #ABAA70",
"*. c #9A924A",
"=. c #D1944C",
"-. c #C1AB48",
";. c #CBBC4C",
":. c #C6B745",
">. c #D5BA47",
",. c #C8BB58",
"<. c #D5BA58",
"1. c #CFAA57",
"2. c #E9B457",
"3. c #CB8379",
"4. c #CF9166",
"5. c #C7B967",
"6. c #C4BA73",
"7. c #D2B269",
"8. c #E8B070",
"9. c #CEC347",
"0. c #D6C44A",
"q. c #CBC356",
"w. c #D5C35A",
"e. c #E2C546",
"r. c #D7C968",
"t. c #C9C577",
"y. c #D7C977",
"u. c #DDD37B",
"i. c #DCD373",
"p. c #D2CB67",
"a. c #E4CB6A",
"s. c #E5CC78",
"d. c #E5D578",
"f. c #E3D46B",
"g. c #355488",
"h. c #3A6186",
"j. c #636F91",
"k. c #0008FF",
"l. c #BD3982",
"z. c #CA2B81",
"x. c #C83A86",
"c. c #D6358B",
"v. c #C61D80",
"b. c #BB4583",
"n. c #BD4B85",
"m. c #BD4D89",
"M. c #B64884",
"N. c #BC568A",
"B. c #AC5A86",
"V. c #BA6594",
"C. c #B46E8C",
"Z. c #C14A86",
"A. c #C34D8A",
"S. c #CB4B8D",
"D. c #C64489",
"F. c #C4528D",
"G. c #CA528E",
"H. c #C5578B",
"J. c #CD4C92",
"K. c #C84991",
"L. c #D24B94",
"P. c #D84998",
"I. c #C55591",
"U. c #CC5492",
"Y. c #CC5A95",
"T. c #CA5B99",
"R. c #D35695",
"E. c #D25996",
"W. c #D9559B",
"Q. c #D45D9A",
"!. c #DA5C9C",
"~. c #D6539B",
"^. c #D1498E",
"/. c #C4678B",
"(. c #CA6599",
"). c #D4629D",
"_. c #DA629D",
"`. c #D36B9E",
"'. c #C77999",
"]. c #D5799A",
"[. c #CE7A85",
"{. c #DC5CA2",
"}. c #DA58A1",
"|. c #E55BA6",
" X c #EC55A8",
".X c #D664A2",
"XX c #DC65A2",
"oX c #D56AA3",
"OX c #DC69A4",
"+X c #DC68A8",
"@X c #D776A6",
"#X c #CD75A6",
"$X c #E264A5",
"%X c #E463AA",
"&X c #E567A9",
"*X c #EE67B0",
"=X c #E2579F",
"-X c #6A82AA",
";X c #67879B",
":X c #858F8E",
">X c #B98C8B",
",X c #B9A588",
"<X c #B3AC91",
"1X c #BC96AE",
"2X c #B6B4AC",
"3X c #CF828D",
"4X c #C6BA87",
"5X c #C8B899",
"6X c #D5BD9A",
"7X c #C5A88F",
"8X c #C79BBB",
"9X c #CE8FB1",
"0X c #E289B9",
"qX c #CEB0B1",
"wX c #E3BAAE",
"eX c #CCC688",
"rX c #D8CB87",
"tX c #D9D686",
"yX c #CCC596",
"uX c #D7C597",
"iX c #DDD295",
"pX c #E5D390",
"aX c #D9C7A7",
"sX c #D3CAB0",
"dX c #E3CBA9",
"fX c #E5DBAA",
"gX c #E5D7B5",
"hX c #E7C5B5",
"jX c #EAE2B2",
"kX c #D39CC4",
"lX c #EA9AC9",
"zX c #D7A9C9",
"xX c #D5B2CD",
"cX c #E6A9CE",
"vX c #EDAFD5",
"bX c #DDBFE0",
"nX c #D7D0CD",
"mX c #E7CCD6",
"MX c #E6D2CF",
"NX c #ECE2C9",
"BX c #F2D6E7",
"VX c white",
"CX c #D4DDE7",
"ZX c #BFD2DC",
"AX c None",
/* pixels */
"AXAXAXAXAXAXAXAXAXAXAXAXAXAXAXAXAXAXAXAXAXAXAXAXAXAXAXAXAXAXAXAXAXAXAXAXAXAXAXAXAXAXAXAXAXAXAXAXAXAX",
"AXAXAXAXAXAXAXAXAXAXAXAXAXAXAXAXAXAXAXAXAXAXAXAX*.v AXAXAXAXAXAXAXAXAXAXAXAXAXAXAXAXAXAXAXAXAXAXAXAX",
"AXAXAXAXAXAXAXAXAXAXAXAXAXAXAXAXAXAXAXAXAXAXAXAX- = AXAXAXAXAXAXAXAXAXAXAXAXAXAXAXAXAXAXAXAXAXAXAXAX",
"AXAXAXAXAXAXAXAXAXAXAXAXAXAXAXAXAXAXAXAXAXAXv - - = = v AXAXAXAXAXAXAXAXAXAXAXAXAXAXAXAXAXAXAXAXAXAX",
"AXAXAXAXAXAXAXAXAXAXAXAXAXAXAXAXAXAXAXAXAXAXL L L - L = AXAXAXAXAXAXAXAXAXAXAXAXAXAXAXAXAXAXAXAXAXAX",
"AXAXAXAXAXAXAXAXAXAXAXAXAXAXAXAXAX<Xv = = = >.W ( W Q K = v - v sXAXAXAXAXAXAXAXAXAXAXAXAXAXAXAXAXAX",
"AXAXAXAXAXAXAXAXAXAXAXAXAXAXAXAXAXuXL - L ; e./ / / ` / S - - - gXAXAXAXAXAXAXAXAXAXAXAXAXAXAXAXAXAX",
"AXAXAXAXAXAXAXAXAXAXAXAXAX,Xo.J | K W A -.} q.:.-.-.q.:.W S ( W ~ ..AXAXAXAXAXAXAXAXAXAXAXAXAXAXAXAX",
"AXAXAXAXAXAXAXAXAXAXAXAXAXt.q.Q / Q ! Q f.p.f.w.i.y.d.r.' ' ' ! ] :.jXAXAXAXAXAXAXAXAXAXAXAXAXAXAXAX",
"AXAXAXAXAXAXAXAXAXAXAXAX..H :.P ^ W Q S P H ~ U U I ~ P  .U ^ -.U D U X.AXAXAXAXAXAXAXAXAXAXAXAXAXAX",
"AXAXAXAXAXAXAXAXAXAXAXeXw.^ d.t.pX>.] E ! ! e./ ` ! ` / d.rXi.f.q./ ' q.AXAXAXAXAXAXAXAXAXAXAXAXAXAX",
"AXAXAXAXAXAXAXAXAXAXAX@.P A o.J U D E S E S ^ U ~ U  .| #.X.Y P ^ U F Y AXAXAXAXAXAXAXAXAXAXAXAXAXAX",
"AXAXAXAXAXAXAXAXAXAXAXeX/ W d.:.` ! ! E ` Y f.7.y.t.rXt.rXw.^ ^ a.r.^ 9.iXAXAXAXAXAXAXAXAXAXAXAXAXAX",
"AXAXAXAXAXAXAXAXAXAXAX&.D S ,...-.P E F E S Q H U I o.o.U W E P -.X.O. .o.%.AXAXAXAXAXAXAXAXAXAXAXAX",
"AXAXAXAXAXAXAXAXAXAXAXeX` Y u.4XtX0./ ( ] E ] ! / / f.a.>./ e.>.d.y.r.f.;.q.fXAXAXAXAXAXAXAXAXAXAXAX",
"AXAXAXAXAXAXAXAXAXAXAX..P A X.J H L | L -.{ -.P D S W Y K K -.K U K X. .D J %.AXAXAXAXAXAXAXAXAXAXAX",
"AXAXAXAXAXAXAXAXAXAXAX5.<.U d.<.>.| s.4XuX5XuXa./ Q ` 1.y.6XdXrX:.^ u.f.^ :.fXAXAXAXAXAXAXAXAXAXAXAX",
"AXAXAXAXAXAXAXAXAX<X@.L U H | L { [ %.+.,X+.6.+.{ K -.@.@.$.,X$.{ K U Y P U O...AXAXAXAXAXAXAXAXAXAX",
"AXAXAXAXAXAXAXAXAXeX0.W d.,.` -.pX4X. . . 6XwX6XuX6XdXuX. . . sXiX8.9.9.f.r.^ 9.AXAXAXAXAXAXAXAXAXAX",
"AXAXAXAXAXAXAXAXAX..P T X.[ Y G @.. :X$ 2X. ,X+.>X+.6.. ,X<X:X. <X@.U U X.X.A P AXAXAXAXAXAXAXAXAXAX",
"AXAXAXAXAXAXAXAXAXeX:.P i.t.rX%.. 2Xj.j.CXsX    . . . 6XCXZX-Xj.. yXy.rXrXy.~ ;.AXAXAXAXAXAXAXAXAXAX",
"AXAXAXAXAXAXAXAXAX..D T O.*...} . ;Xg.g.j.C.. . $.. . 2Xj.-Xg.# . +.&.&...| D H AXAXAXAXAXAXAXAXAXAX",
"AXAXAXAXAXAXAXAXAXyXq.Y tX#.tX6.. 2X# g.# # . sXdX6X. nX# # g.# . uXeXtXi.a.^ q.AXAXAXAXAXAXAXAXAXAX",
"AXAXAXAXAXAXAXAXAX&.o.H  .G o.+.<X. # # # . <X$.$.$.,X  $ $ h.  1X,X$.#.| -.U @.AXAXAXAXAXAXAXAXAXAX",
"AXAXAXAXAXAXAXAXAXAXAXp.9.Y tX6.wX8X. . . 5XhX6XuX6XdXdX. . . kXqX5XrXs.>.:.pXAXAXAXAXAXAXAXAXAXAXAX",
"AXAXAXAXAXAXAXAXAXAX%.J I G #...} +.>X+.,X+.<X,X7X+.>X6.,X+.>X+.+.} @.X.I P 5.6.sXAXAXAXAXAXAXAXAXAX",
"AXAXAXAXAXAXAXAXAXeXq.U f.p.tXp.<.-.                            . ;.i.iXrXf.;.5.jXAXAXAXAXAXAXAXAXAX",
"AXAXAXAXAXAXAXAXt.O. .H ;.J 6.[ U P     R                   VX  . U ,.#.6.5.U U y.4XAXAXAXAXAXAXAXAX",
"AXAXAXAXAXAXAX6.q.I a.:.;.^ u.#.y.w.  R _ R   * * * *     VX_ VX  y.t.p.rXiXp.a.q.5.uX4XAXAXAXAXAXAX",
"AXAXAXAXAXAX<XG U A -.G | J :.[ #.U     R     * * * *       VX     . .o.&.6.X. .P Y 5.,.AXAXAXAXAXAX",
"AXAXAXAXAXAX` J rX:.0.U fXrX9.Y d.<.`                           ` >.9.q.NXjX^ ` i.f.^ Y yXAXAXAXAXAX",
"AXAXAXAXAXAXP A 5.Y W G yX&.O.I ,.| ~       k.                  -.U | @.yXuXU Y 5.,.D ` fXAXAXAXAXAX",
"AXAXAX<XuXAX/ U i. .>.| jXnXNXrXq.^ u.    k._ k.          Z     jXxXMXMXMXjX<.` y.d.^ U i.yXqXAXAXAX",
"AXAXAX<Xw.X.K L ,.I Q A y.>.X.3XX.[ <X.     k.          Z _ Z . mX>X+.MX6Xr.U Q ,.,.J pX;.p.sXAXAXAX",
"AXAXAX#.' P 6.@.y.,.1.=.N ].V @XH.xXCXAX          _       Z . MXmXvX].3X[.[.1.1.a.p.6.i.W <.uXAXAXAX",
"AXAXAXt.` Y rX1.0.4.4.V N.(.N..X/.< + nX        _ VX_     . . BX+ O `.(././.[.4.w.0.i.d.' 0.iXAXAXAX",
"AXAXAX&.:.I w.U 1.3.N ].T.@X(.@XT.: vXzXvX        _     . . . vX< < @X*X+X@X@X].4.7.<.w. .5.5XAXAXAX",
"AXAXAXAXNXt.` K } ]./.]./.`.C.3.V : < X O . .           . . O O 4 1 @X].@XoX@X#X[.7.7.w.fXAXAXAXAXAX",
"AXAXAXAXAXyXq.AX9X'./.OXH.].V 8.4., 1 % , :         .       , , 2 % V [.].`.@X9X'.hXNX5.gXAXAXAXAXAX",
"AXAXAXAXAXAXAXAX9X'./.].V 3.- AX% , 6 6 3 , 3     .     3 , 3 6 1 & 8.8.V ].`.`.'.vXnXAXAXAXAXAXAXAX",
"AXAXAXAXAXAXAXAXB.].V.].B 8./ =.o % 4 1 , 3 2 ,       : 2 : , % % o <.>.8.V ].@X@XC.>XAXAXAXAXAXAXAX",
"AXAXAXAXAXBXkX9X/.@X/.3.B <.d.7.2.4.% 1 3 3 3 3 4 3 3 3 5 2 , % 8.<.s.d.<.4.[.].@X#X#XmXBXCXAXAXAXAX",
"AXAXAXAXAX>XV.@XV.3XN 8.~ X.f.;.2.=.% 1 2 > 3 > 3 3 4 , 2 2 6 & 2./ s.pX0.7.8.3X@X`.@X'.>XxXAXAXAXAX",
"AXAXAXAXAX>XB.'.M C.+.7.f.p.d.,.e.=.1 4 , > 3 2 4 4 4 1 5 3 , & 2.>.tXtXi.:.7.+.3X'.'.C.>XqXAXAXAXAX",
"AXAXAXAX,XwX7XwX7XmXqXgXf.p.i.w./ =.X : 2 , 2 : 1 , 4 , 3 > + X 7.>.p.i.r.f.fXNXmXqXwX6XwX5XqXAXAXAX",
"AXAXAXAX,XdX6XgX5XAXAX6.^ P :.} fXxXvX0X: , , : , , , , 2 X lXzXdXpX^ ! Q :.tXAXAXsXdXdXhX6XgXAXAXAX",
"AXAXAXAX$.uX7XaX<XAXAXyXw.Q 9...jXnXxXqXO : 6 1 4 , 3 1 < O vXbXNXgX7.:.` p.gXAXAXsXaX5XwX5XaXAXAXAX",
"AXAXAXAX<XsX7XaX<XAXAXAXAXyXfXsXqX9XxX8XcX0X: 1 3 : 1 : lXkXxXzXxXqXgXfXfXgXnXAXAXqXsXsXsX5XsXAXAXAX",
"AXAXAXAXAXAXAXAXAXAXAXAXAXAXAXAXxXkXxX1XxXkXO O 5 4 < X vXkXcXxXxXxXAXAXAXAXAXAXAXAXAXAXAXAXAXAXAXAX",
"AXAXAXAXAXAXAXAXAXAXAXAXAXAXAXAXAX8XkX1X8X1XzX0X5 O lXkX8X8XzXkX8XqXAXAXAXAXAXAXAXAXAXAXAXAXAXAXAXAX",
"AXAXAXAXAXAXAXAXAXAXAXAXAXAXAXAXAXkXoXT.vXkXzXkXcXkXzXkXvXzXcXcXcXqXAXAXAXAXAXAXAXAXAXAXAXAXAXAXAXAX",
"AXAXAXAXAXAXAXAXAXAXAXAXAXAXAXAXAXN.Q.m.V.B.kX8X8X1XkXkXV.V.V.V.V.B.AXAXAXAXAXAXAXAXAXAXAXAXAXAXAXAX",
"AXAXAXAXAXAXAXAXAXAXAXAXAXAXAXAXAXY.$XQ.+XV.cXzXzXkXcXcX(.T.OX+X#X(.AXAXAXAXAXAXAXAXAXAXAXAXAXAXAXAX",
"AXAXAXAXAXAXAXAXAXAXAXAXAXAXr y Q.S.R.A.U.N.V.B.kX1XV.V.(.U.Y.Q.T.J.y t AXAXAXAXAXAXAXAXAXAXAXAXAXAX",
"AXAXAXAXAXAXAXAXAXAXAXAXAXAXz.w &XR._.Q.XX~.XXV.cXzX#XoX+X}.oX+XXX%Xa s AXAXAXAXAXAXAXAXAXAXAXAXAXAX",
"AXAXAXAXAXAXAXAXAXAXAXAXAXAX7 e L.Z.H.b.A.x.i j #X#Xr w K.m.I.I.U.J.0 7 AXAXAXAXAXAXAXAXAXAXAXAXAXAX",
"AXAXAXAXAXAXAXAXAXAXAXAXAXAXl.7 *XE._.G.$X^.z.r lXlXp w |.}..X).Q.$Xk l.AXAXAXAXAXAXAXAXAXAXAXAXAXAX",
"AXAXAXAXAXAXAXAXAXAXAXAXt y x.s G.A.H.C u 9 c.f V.V.x.c.w i K.I.F.m.c.K.r t AXAXAXAXAXAXAXAXAXAXAXAX",
"AXAXAXAXAXAXAXAXAXAXAXAXp w %XU._./.OX=Xx k |.T.T.}.{.*Xz.q |.+XoX`.oXXXq y AXAXAXAXAXAXAXAXAXAXAXAX",
"AXAXAXAXAXAXAXAXAXAXAXAX9 e U.l.n m F.^.0 0 J.M.M.M.m.K.0 0 P.K.n.n M.S.0 8 AXAXAXAXAXAXAXAXAXAXAXAX",
"AXAXAXAXAXAXAXAXAXAXAXAXs s {.I.Q.A.!.P.x w {.Y.Q.Q.oXXXs k |.%XQ.Q.Q.XXq y AXAXAXAXAXAXAXAXAXAXAXAX",
"AXAXAXAXAXAXAXAXAXAXb h x.l.F.b.U.f y 9 x.l.L.Z.N.M.U.J.x.z.p d D.m.F.I.x.x.M b AXAXAXAXAXAXAXAXAXAX",
"AXAXAXAXAXAXAXAXAXAXs a {.T.+XI.XXP.x q |.T.OXY.oXT.XX{.{.}.a s {.`._.`.+XXXp h AXAXAXAXAXAXAXAXAXAX",
"AXAXAXAXAXAXAXAXB.f l.8 K.f m.m m.x.q e K.f A.f m.l.m.D.M.D.e 0 J.M.b.m.M.A.s f M b AXAXAXAXAXAXAXAX",
"AXAXAXAXAXAXAXAXg k R.S.$XY.).H.XX}.x q |.E.OXQ._.Q.XX!.XX!.x c *X).).`.)..X}..Xz y AXAXAXAXAXAXAXAX",
"AXAXAXAXAXAXAXAXy e D.d n.d Z.f A.x.q 6 D.n Z.f Z.b.S.Z.A.D.0 k c.b.m.m.n.b.M.K.e 6 AXAXAXAXAXAXAXAX",
"AXAXAXAXAXAXAXAXd q |.F.XXU..XU.%XP.z.w !.U.OXY.XXQ.+X_._.!.x x *X|.`.OX_._.Q.+Xk p AXAXAXAXAXAXAXAX",
"AXAXAXAXAXAXAXM g i z d m.s Z.g z a a p n m b.f n.f n.n n.C a x s s n.Z.C b.f D.i s AXAXAXAXAXAXAXAX",
"AXAXAXAXAXAXi 9 |.I.{.D.Q.H._.~.z x %XI.).R.OXE.XX)._.Q.).Q.&X%Xz s _._._._.(.oXoX*Xk h AXAXAXAXAXAX",
"AXAXAXAXAXAX7 6 K.d m.d m.f A.x.0 e J.f n.f F.n Z.n A.Z.n b.m.L.0 6 S.Z.n n.C m.m.^.8 4 AXAXAXAXAXAX",
"AXAXAXAXAXAXs 9 |.I..XF..XI.+XP.x x $XY.).E.+XE._._.+XXX.X(.+X%Xx x |.OX`.).Q._.).$Xu i AXAXAXAXAXAX",
"AXAXAXAXAXAX9 8 m.f M.l.F.b.l.a s 8 Z.n Z.n A.Z.A.n.Z.n.m.M.N.K.x a z Z.H.n Z.A.N.A.y y AXAXAXAXAXAX",
"AXAXAXAXM 6 =XM..XU.).J.!.L.s 7 }.R.XXE.XXE._.)._.Q.XX)._.Q.oX).!.!.a z Q.!.$X_.oXOXW.XXd h AXAXAXAX",
"AXAXAXM.s 0 ^.h m.f A.g x.s z 7 K.n A.n A.n F.Z.A.n.A.n.Z.Z.m.F.m.n.9 a x.g Z.F.F.m.l.K.a i AXAXAXAX",
"AXAXg i |.^.OXZ..XI..XP.x 0 $XY.XXY.XXE.XXE.$X(.XX).oXXXOXQ.XXXX).).$X Xx s %XOXOXOXQ..XXXoXw s AXAX",
"AXAXs 6 S.f J.h A.f x.z.q y S.M.H.b.U.M.H.n G.m.G.Z.G.A.S.Z.G.U.G.H.F.J.8 7 c.J.Y.H.m.I.K.I.e w AXAX",
"AXAXs q !.K.XXn.{.L.x u R.R.&XH.).I..XT.).Y.OXQ._.!.OXXXOX!.XX$XXX).)..XT.|.a z |.).Y.).XX%X8 s AXAX",
"AXAXi 8 F.f F.g ^.z 9 8 G.m H.m N.b.F.b.F.n.G.n.G.Z.G.A.U.Z.U.S.S.m.m.N.U.A.7 q D.J.A.H.Z.I.y 8 AXAX",
"s 9 !.J.+XR.$Xx.z w |.U._.Y._.Y..XE.OXQ.OXQ.$XQ.XXQ.+XXXXX).XX+XoX)..XOX.X.XXX|.s a !.OX!.oXT.&Xu h ",
"k e U.M.Y.b.L.s p 8 K.f Y.n.Y.b.Y.Z.R.A.E.A.G.S.Y.G.Y.U.T.H.Y.Y.T.F.F.U.I.I.A.W.p w ^.S.J.T.M.W.0 s ",
"z.q {.A.$XL.x a %XR.$XI.OXE.XXY.OXQ.&XQ.OXE.OX).OX_.OXXXOX).OX+X+X).).oXOXOX!.XX+X*Xu z $X`.Y.%Xi s ",
"t i P.g R.x.q e W.Z.T.b.I.b.U.b.U.Z.U.n.G.F.E.G.U.G.E.H.H.F.U.Y.U.F.H.Y.Y.I.F.I.U.~.8 q Q.W.x.P.d t ",
"AXAXx.9 $Xc.v.l $XU.|.J.$XE.OXY.XXQ.XXY._.E.$XQ._.Q.$X_._.)._.OXOX_.).&X+XXX{..X+X Xk x %X%Xp i AXAX",
"AXAXt r W.c.l k  XP.=XP.|.L.E.A.Q.J._.H.Y.S.Q.R.Q.G.E.).E.E.)._.Q.Y.E.!.~.}.|.{.|. Xq k }.}.h t AXAX",
"AXAXAXAXg q c k l k k 0 x i $XY.XXQ.&XY.oXQ.$XQ.+X{.XX+X_..X+X&XOXXXXX$Xu z x z.z.z.v.z.z.d AXAXAXAX",
"AXAXAXAXh j r 5 y j r 5 r r !.D.~.L.W.S.~.^.~.L.W.P.~.P.W.~.}.~.W.W.W.~.y y y i y r y r y AXAXAXAXAX",
"AXAXAXAXAXAXAXAXAXAXAXAXAXAXd k l l c k c l l l l l z.l v.k l l c c c h AXAXAXAXAXAXAXAXAXAXAXAXAXAX",
"AXAXAXAXAXAXAXAXAXAXAXAXAXAXj 8 9 7 q 9 w 9 w w 7 p w e 9 8 w w 9 u u j AXAXAXAXAXAXAXAXAXAXAXAXAXAX"
};
