/* XPM */
static char *result[] = {
/* columns rows colors chars-per-pixel */
"37 90 20 1 ",
"  c #0F0E0C",
". c #201F1E",
"X c #42581B",
"o c #4B651D",
"O c #466028",
"+ c #557232",
"@ c #52636D",
"# c #62717A",
"$ c red",
"% c #A76262",
"& c #6A8D40",
"* c #FFA900",
"= c #FFEC00",
"- c #FFF13E",
"; c #6A818E",
": c #00FFB0",
"> c #BE9D86",
", c #A19E98",
"< c white",
"1 c None",
/* pixels */
"1111111111<<1::11$11**11:111111111111",
"1111111111<<1::11$11**11:111111111111",
"11111111<<XX<XX$$X$$XX**X<<1111111111",
"1111111111XX1XX11X11XX11X111111111111",
"1111111111XX1XX11X11XX11X111111111111",
"1111111111oo1oo11o11oo11o111111111111",
"1111111111oo1oo11o11oo11o111111111111",
"11111111--oo-oo--o--oo--o--1111111111",
"1111111111---------------111111111111",
"1111111111---------------111111111111",
"1111111111-------$-------111111111111",
"1111111111-------$-------111111111111",
"111111111111---$$=$$----1111111111111",
"1111111111111----$----111111111111111",
"1111111111111----$----111111111111111",
"11111111.....           ...1111111111",
"11111111.....           ...1111111111",
"1111111.                   ..11111111",
"11111..   >>>>>>>>>>>>>>>    .1111111",
"11111..   >>>>>>>>>>>>>>>    .1111111",
"11111.. >>     >>>>>     >>  .1111111",
"11111.. >>     >>>>>     >>  .1111111",
"11111..   >>>>>  >  >>>>>    .1111111",
"11111..   >> >>     >>  >    .1111111",
"11111..   >> >>     >>  >    .1111111",
"11111..   >>>>>  >  >>>>>    .1111111",
"11111..   >>>>>  >  >>>>>    .1111111",
"11111.. >>     >>>>>     >>  .1111111",
"11111.. >>>>>>>     >>>>>>>  .1111111",
"11111.. >>>>>>>     >>>>>>>  .1111111",
"11&&&     >>>  %%%%%  >>>     &&&&&11",
"11&&&     >>>  %%%%%  >>>     &&&&&11",
"&&+++OO   $$            *    O+++++&&",
"&&+OOOO $$==$         $$=**  OOOOO+&&",
"&&+OOOO $$==$         $$=**  OOOOO+&&",
"&&OOO++O  $$...  :    ::*  OO+OOOO+&&",
"&&OOO++O  $$...  :    ::*  OO+OOOO+&&",
"&&OOO+++OO   <<<<=$$<<==*OO+++++OO+&&",
"&&+OO+++++OO<==<<:..  $$O+++++++OO+&&",
"&&+OO+++++OO<==<<:..  $$O+++++++OO+&&",
"+++++OO+++++O<<       OO++++++OOOO+++",
"+++++OO+++++O<<       OO++++++OOOO+++",
"OO+++&&++++++OOOOOOOOO++++++++OO+++OO",
"OO+++++&+++++++++++++++++++&&++++++OO",
"OO+++++&+++++++++++++++++++&&++++++OO",
"OO+++++&&&+++++OO+++++++&&&&&++++++OO",
"OO+++++&&&+++++OO+++++++&&&&&++++++OO",
"OOOOOOO+&&+++++OO+++++++&+++++OOOOOOO",
">>>>>OO+&&&&+++OO+++++&&&+++++OO>>>>>",
">>>>>OO+&&&&+++OO+++++&&&+++++OO>>>>>",
">>>>>OO+++&&+++++O++++&&++++++OO>>>>>",
">>>>>OO+++&&+++++O++++&&++++++OO>>>>>",
">>>>>OO+OO+++++++++++++++OO+++OO>>>>>",
"11111OO+OO++OOOOOOOOOO+++++OO+OO11111",
"11111OO+OO++OOOOOOOOOO+++++OO+OO11111",
"11111OO+++++++++++++++++++++++OO11111",
"11111OO+++++++++++++++++++++++OO11111",
"11111OOOOOOOOOOOOOOOOOOOOOOOOOOO11111",
"11111;;;#####################;;;11111",
"11111;;;#####################;;;11111",
"11111;;#####@@@#######@@@#####;;11111",
"11111;;#####@@@#######@@@#####;;11111",
"11111;;###@@@###########@@@###;;11111",
"11111;;###@@@####@@@####@@@###;;11111",
"11111;;###@@@####@@@####@@@###;;11111",
"11111;;###@@###@@111@@###@@###;;11111",
"11111;;###@@###@@111@@###@@###;;11111",
"11111;;###@@###@@111@@###@@###;;11111",
"11111;;###@@###@@111@@###@@###;;11111",
"11111;;###@@###@@111@@###@@###;;11111",
"11111;;###@@###@@111@@###@@###;;11111",
"11111;;###@@###@@111@@###@@###;;11111",
"11111;;########@@111@@########;;11111",
"11111;;########@@111@@########;;11111",
"11111;;########@@111@@########;;11111",
"11111;;#;;;;###@@111@@#####;;;;;11111",
"11111;;#;;;;###@@111@@#####;;;;;11111",
"11111;;###;;###@@111@@###;;;;#;;11111",
"11111;;###;;;##@@111@@##;;;###;;11111",
"11111;;###;;;##@@111@@##;;;###;;11111",
"11111;;######;;@@111@@;;######;;11111",
"11111;;######;;@@111@@;;######;;11111",
"11111;;########@@111@@########;;11111",
"11111;;######@@@@111@@@@######;;11111",
"11111;;######@@@@111@@@@######;;11111",
"1111111@@@@@@@@1111111@@@@@@@@1111111",
"1111111@@@@@@@@1111111@@@@@@@@1111111",
"1111111,       1111111       ,1111111",
"1111111        1111111        1111111",
"1111111        1111111        1111111"
};
