/* XPM */
static char *result[] = {
/* columns rows colors chars-per-pixel */
"90 53 7 1 ",
"  c #050914",
". c #52294B",
"X c #8F5765",
"o c #CF968C",
"O c #FFCF8E",
"+ c #FAFFFF",
"@ c None",
/* pixels */
"@@@@@@@@@@@@@@@@@@@@@@@@@@@@@@@@@@@@@@@@@@@          @@@@@@@@@@@@@@@@@@@@@@@@@@@@@@@@@@@@@",
"@@@@@@@@@@@@@@@@@@@@@@@@@@@@@@@@@@@@@@@@@@@          @@@@@@@@@@@@@@@@@@@@@@@@@@@@@@@@@@@@@",
"@@@@@@@@@@@@@@@@@@@@@@@@@@@@@@@@@@@@@@@    oooooooooo    @@@@@@@@@@@@@@@@@@@@@@@@@@@@@@@@@",
"@@@@@@@@@@@@@@@@@@@@@@@@@@@@@@@@@@@@@@@    oooooooooo    @@@@@@@@@@@@@@@@@@@@@@@@@@@@@@@@@",
"@@@@@@@@@@@@@@@@@@@@@@@@@@@@@@@@@@@@@  ooooooooooooXXoo        @@@@@@@@@@@@@@@@@@@@@@@@@@@",
"@@@@@@@@@@@@@@@@@@@@@@@@@@@@@@@@@@@@@  ooooooooooooXXoo        @@@@@@@@@@@@@@@@@@@@@@@@@@@",
"@@@@@@@@@@@@@@@@@@@@@@@@@@@@@@@@@@@  ooXXXXXXXXXXXXXX  ++++++++  @@@@@@@@@@@@@@@@@@@@@@@@@",
"@@@@@@@@@@@@@@@@@@@@@@@@@@@@@@@@@@@  ooXXXXXXXXXXXXXX  ++++++++  @@@@@@@@@@@@@@@@@@@@@@@@@",
"@@@@@@@@@@@@@@@@@@@@@@@@@@@@@@@@@  ooXXXXXXXXXXXXXX  ++++    ++++  @@@@@@@@@@@@@@@@@@@@@@@",
"@@@@@@@@@@@@@@@@@@@@@@@@@@@@@@@@@  ooXXXXXXXXXXXXXX  ++++    ++++  @@@@@@@@@@@@@@@@@@@@@@@",
"@@@@@@@@@@@@@@@@@@@@@@@@@@@@@@@  ooXXXXXXXXXXXXXXXX  ++        ++  @@@@@@@@@@@@@@@@@@@@@@@",
"@@@@@@@@@@@@@@@@@@@@@@@@@@@@@@@  ooXXXXXXXXXXXXXXXX  ++        ++  @@@@@@@@@@@@@@@@@@@@@@@",
"@@@@@@@@@@@@@@@@@@@@@@@@@@@@@  ooXXXXXXXXXXXXXXXXXX  ++        ++  @@@@@@@@@@@@@@@@@@@@@@@",
"@@@@@@@@@@@@@@@@@@@@@@@@@@@@@  ooXXXXXXXXXXXXXXXXXX  ++        ++  @@@@@@@@@@@@@@@@@@@@@@@",
"@@@@@@@@@@@@@@@@@@@@@@@@@@@  ooXXXXXXXXXXXXXXXXXXXX  ++++    ++++  @@@@@@@@@@@@@@@@@@@@@@@",
"@@@@@@@@@@@@@@@@@@@@@@@@@@@  ooXXXXXXXXXXXXXXXXXXXX  ++++    ++++  @@@@@@@@@@@@@@@@@@@@@@@",
"@@@@@@@@@@@@@@@@@@@@@@@@@  ooXXXXXXXXXXXXXXXXXXXXXXXX  ++++++++  oo @@@@@@@@@@@@@@@@@@@@@@",
"@@@@@@@@@@@@@@@@@@@@@@@@@  ooXXXXXXXXXXXXXXXXXXXXXXXX  ++++++++  oo @@@@@@@@@@@@@@@@@@@@@@",
"@@@@@@@@@@@@@@@@@@@@@@@  ooXXXXXXXXXXXXXXXXXXXXXXXXXXXX        XXXXo  @@@@@@@@@@@@@@@@@@@@",
"@@@@@@@@@@@@@@@@@@@@@@@  ooXXXXXXXXXXXXXXXXXXXXXXXXXXXX        XXXXo  @@@@@@@@@@@@@@@@@@@@",
"@@@@@@@@@@@@@@@@@@@@@@@  ooXXXXXXXXXXXXXXXXXXXXXXXXXXXXooooXXXXXXXXXoo  @@@@@@@@@@@@@@@@@@",
"@@@@@@@@@@@@@@@@@@@@@@@  ooXXXXXXXXXXXXXXXXXXXXXXXXXXXXooooXXXXXXXXXoo  @@@@@@@@@@@@@@@@@@",
"@@@@@@@@@@@@@@@@@@@@@@ ooXXXXXXXXXXXXXXXXXXXXXXXXXXXX  XXXX  XXXXXXXXXoo  @@@@@@@@@@@@@@@@",
"@@@@@@@@@@@@@@@@@@@@@@ ooXXXXXXXXXXXXXXXXXXXXXXXXXXXX  XXXX  XXXXXXXXXoo  @@@@@@@@@@@@@@@@",
"@@@@@@@@@@@@@@@@@@@@@@ XXXXXXXXXXXXXXXXXX..XXXXXXXXXXXX    XXXXXXXXXXXXX  @@@@@@@@@@@@@@@@",
"@@@@@@@@@@@@@@@@@@@@@@ XXXXXXXXXXXXXXXXXX..XXXXXXXXXXXX    XXXXXXXXXXXXX  @@@@@@@@@@@@@@@@",
"@@@@@@@@@@@@@@@@@@@@  oXXXXXXXX..XXXXXX..XXXXXXXXXXXXXXXXXX    XXXXXXXXX  @@@@@@@@@@@@@@@@",
"@@@@@@@@@@@@@@@@@@@@  oXXXXXXXXXX......XXXXXXXXooXXXXXXXXXX  OO    XXXXX  @@@@@@@@@@@@@@@@",
"@@@@@@@@@@@@@@@@@@@@  oXXXXXXXXXX......XXXXXXXXooXXXXXXXXXX  OO    XXXXX  @@@@@@@@@@@@@@@@",
"@@@@@@@@@@@@@@@@@@  ooXXXXXXXXXXXXXXXXXXXXXXXooXXooXXXXXXXXXX  OO       oo  @@@@@@@@@@@@@@",
"@@@@@@@@@@@@@@@@@@  ooXXXXXXXXXXXXXXXXXXXXXXXooXXooXXXXXXXXXX  OO       oo  @@@@@@@@@@@@@@",
"@@@@@@@@@@@@@@@@  ooXXXXXXXXXXXXXXXXXXXXXXXXXXXooXXXXXXXXXXXXXX    OOO  XX  @@@@@@@@@@@@@@",
"@@@@@@@@@@@@@@@@  ooXXXXXXXXXXXXXXXXXXXXXXXXXXXooXXXXXXXXXXXXXX    OOO  XX  @@@@@@@@@@@@@@",
"@@@@@@@@@@@@@@@@  ooXXXXXooooXXXXXXXXXXXXXXXXXXXXXXXXXXXXXXXXXXXXXX   XXXXoo  @@@@@@@@@@@@",
"@@@@@@@@@@@@@@@@  ooXXXXXooooXXXXXXXXXXXXXXXXXXXXXXXXXXXXXXXXXXXXXX   XXXXoo  @@@@@@@@@@@@",
"@@@@@@@@@@@@@@  ooXXXXXooXXXXooXXXXXXXXXXXXXXXXXXXXXXXXXXXXXXXXXXXXXXXXXXXXXoo  @@@@@@@@@@",
"@@@@@@@@@@@@@@  ooXXXXXooXXXXooXXXXXXXXXXXXXXXXXXXXXXXXXXXXXXXXXXXXXXXXXXXXXoo  @@@@@@@@@@",
"@@@@@@@@@@@@  ooXXXXXXXXXooooXXXXXXXXXXXXXXXXXXXXXXXXXXXXXXXXXXXXXXXXXXXXXXXXXoo  @@@@@@@@",
"@@@@@@@@@@@@  ooXXXXXXXXXooooXXXXXXXXXXXXXXXXXXXXXXXXXXXXXXXXXXXXXXXXXXXXXXXXXoo  @@@@@@@@",
"@@@@@@@@@@  ooXXXXXXXXXXXXXXXXXXXXXXXXXXXXXXXXXXXXX..XXXXXXXXXXXXXXXXXXXXXXXXXXXoo  @@@@@@",
"@@@@@@@@@@  ooXXXXXXXXXXXXXXXXXXXXXXXXXXXXXXXXXXXXX..XXXXXXXXXXXXXXXXXXXXXXXXXXXoo  @@@@@@",
"@@@@@@@@@@  ooXXXXXXXXXXXXXXXXXXXXXXXXXXXXXXXXXXXXX..XXXXXXXXXXXXXXXXXXXXXXXXXXXXXoo  @@@@",
"@@@@@@@@@@  ooXXXXXXXXXXXXXXXXXXXXXXXXXXXXXXXXXXXXX..XXXXXXXXXXXXXXXXXXXXXXXXXXXXXoo  @@@@",
"@@@@@@@@  ooXXXXXXXXXXXXXXXXXXXXXXXXXXXXXXXXXXXXXXXXX..XXXXXX..XXXXXXXXXXXXXXXXXXXXXoo  @@",
"@@@@@@@@  ooXXXXXXXXXXXXXXXXXXXXXXXXXXXXXXXXXXXXXXXXX..XXXXXX..XXXXXXXXXXXXXXXXXXXXXoo  @@",
"@@@@@@  XXXXXXXXXXXXXXXXXXXXXXXXXXXXXXXXXXXXXXXXXXXXXXX......XXXXXXXXXXXXXXXXXXXXXXXXXoo  ",
"@@@@@@  XXXXXXXXXXXXXXXXXXXXXXXXXXXXXXXXXXXXXXXXXXXXXXX......XXXXXXXXXXXXXXXXXXXXXXXXXoo  ",
"@@@@@@XXXXXXXXXXXXXXXXXXXXXXXXXXXXXXXXXXXXXXXXXXXXXXXXXXXXXXXXXXXXXXXXXXXXXXXXXXXXXXXXoo  ",
"@@@@@@XXXXXXXXXXXXXXXXXXXXXXXXXXXXXXXXXXXXXXXXXXXXXXXXXXXXXXXXXXXXXXXXXXXXXXXXXXXXXXXXoo  ",
"@@@@  XXXXXXXXXXXXXXXXXXXXXXXXXXXXXXXXXXXXXXXXXXXXXXXXXXXXXXXXXXXXXXXXXXXXXXXXXXXXXXXXoo  ",
"@@@@  XXXXXXXXXXXXXXXXXXXXXXXXXXXXXXXXXXXXXXXXXXXXXXXXXXXXXXXXXXXXXXXXXXXXXXXXXXXXXXXXoo  ",
"@@                                                                                        ",
"@@                                                                                        "
};
