/* XPM */
static char *result[] = {
/* columns rows colors chars-per-pixel */
"90 51 7 1 ",
"  c #050914",
". c #52294B",
"X c #8F5765",
"o c #CF968C",
"O c #FFCF8E",
"+ c #FAFFFF",
"@ c None",
/* pixels */
"@@@@@@@@@@@@@@@@@@@@@@@@@@@@@@@@@@@@@@@@@@@@@@@@@@@@@@@@@@@@@@@@@@@@@@@@@@@@@@@@@@@@@@@@@@",
"@@@@@@@@@@@@@@@@@@@@@@@@@@@@@@@@@@@@@@@@@@@@@@@@@@@@@@@@@@@@@@@@@@@@@@@@@@@@@@@@@@@@@@@@@@",
"@@@@@@@@@@@@@@@@@@@@@@@@@@@@@@@@@@@@@@@@@@@@@         @@@@@@@@@@@@@@@@@@@@@@@@@@@@@@@@@@@@",
"@@@@@@@@@@@@@@@@@@@@@@@@@@@@@@@@@@@@@@@@@@@@@         @@@@@@@@@@@@@@@@@@@@@@@@@@@@@@@@@@@@",
"@@@@@@@@@@@@@@@@@@@@@@@@@@@@@@@@@@@@@@@@@    ooooooooo    @@@@@@@@@@@@@@@@@@@@@@@@@@@@@@@@",
"@@@@@@@@@@@@@@@@@@@@@@@@@@@@@@@@@@@@@@@@@    ooooooooo    @@@@@@@@@@@@@@@@@@@@@@@@@@@@@@@@",
"@@@@@@@@@@@@@@@@@@@@@@@@@@@@@@@@@@@@@@@  oooooooooooXXoo        @@@@@@@@@@@@@@@@@@@@@@@@@@",
"@@@@@@@@@@@@@@@@@@@@@@@@@@@@@@@@@@@@@@@  oooooooooooXXoo        @@@@@@@@@@@@@@@@@@@@@@@@@@",
"@@@@@@@@@@@@@@@@@@@@@@@@@@@@@@@@@@@@@  ooXXXXXXXXXXXXX  ++++++++  @@@@@@@@@@@@@@@@@@@@@@@@",
"@@@@@@@@@@@@@@@@@@@@@@@@@@@@@@@@@@@@ ooXXXXXXXXXXXXX  ++++    ++++ @@@@@@@@@@@@@@@@@@@@@@@",
"@@@@@@@@@@@@@@@@@@@@@@@@@@@@@@@@@@@@ ooXXXXXXXXXXXXX  ++++    ++++ @@@@@@@@@@@@@@@@@@@@@@@",
"@@@@@@@@@@@@@@@@@@@@@@@@@@@@@@@@@@  oXXXXXXXXXXXXXXX  ++        ++ @@@@@@@@@@@@@@@@@@@@@@@",
"@@@@@@@@@@@@@@@@@@@@@@@@@@@@@@@@@@  oXXXXXXXXXXXXXXX  ++        ++ @@@@@@@@@@@@@@@@@@@@@@@",
"@@@@@@@@@@@@@@@@@@@@@@@@@@@@@@@@  ooXXXXXXXXXXXXXXXX  ++        ++ @@@@@@@@@@@@@@@@@@@@@@@",
"@@@@@@@@@@@@@@@@@@@@@@@@@@@@@@@@  ooXXXXXXXXXXXXXXXX  ++        ++ @@@@@@@@@@@@@@@@@@@@@@@",
"@@@@@@@@@@@@@@@@@@@@@@@@@@@@@@  ooXXXXXXXXXXXXXXXXXX  ++++    ++++ @@@@@@@@@@@@@@@@@@@@@@@",
"@@@@@@@@@@@@@@@@@@@@@@@@@@@@@@  ooXXXXXXXXXXXXXXXXXX  ++++    ++++ @@@@@@@@@@@@@@@@@@@@@@@",
"@@@@@@@@@@@@@@@@@@@@@@@@@@@@  ooXXXXXXXXXXXXXXXXXXXXXX  ++++++++  o  @@@@@@@@@@@@@@@@@@@@@",
"@@@@@@@@@@@@@@@@@@@@@@@@@@@@  ooXXXXXXXXXXXXXXXXXXXXXX  ++++++++  o  @@@@@@@@@@@@@@@@@@@@@",
"@@@@@@@@@@@@@@@@@@@@@@@@@@  ooXXXXXXXXXXXXXXXXXXXXXXXXXX        XXXoo  @@@@@@@@@@@@@@@@@@@",
"@@@@@@@@@@@@@@@@@@@@@@@@@@  ooXXXXXXXXXXXXXXXXXXXXXXXXXX        XXXoo  @@@@@@@@@@@@@@@@@@@",
"@@@@@@@@@@@@@@@@@@@@@@@@@@  ooXXXXXXXXXXXXXXXXXXXXXXXXXXooooXXXXXXXXXoo  @@@@@@@@@@@@@@@@@",
"@@@@@@@@@@@@@@@@@@@@@@@@@@  ooXXXXXXXXXXXXXXXXXXXXXXXXXXooooXXXXXXXXXoo  @@@@@@@@@@@@@@@@@",
"@@@@@@@@@@@@@@@@@@@@@@@@  ooXXXXXXXXXXXXXXXXXXXXXXXXXX  XXXX  XXXXXXXXXoo  @@@@@@@@@@@@@@@",
"@@@@@@@@@@@@@@@@@@@@@@@@  ooXXXXXXXXXXXXXXXXXXXXXXXXXX  XXXX  XXXXXXXXXoo  @@@@@@@@@@@@@@@",
"@@@@@@@@@@@@@@@@@@@@@@@@  XXXXXXXXXXXXXXXXX..XXXXXXXXXXX    XXXXXXXXXXXXX  @@@@@@@@@@@@@@@",
"@@@@@@@@@@@@@@@@@@@@@@  ooXXXXXXXX..XXXXX..XXXXXXXXXXXXXXXXX    XXXXXXXXX  @@@@@@@@@@@@@@@",
"@@@@@@@@@@@@@@@@@@@@@@  ooXXXXXXXX..XXXXX..XXXXXXXXXXXXXXXXX    XXXXXXXXX  @@@@@@@@@@@@@@@",
"@@@@@@@@@@@@@@@@@@@@@@  ooXXXXXXXXXX.....XXXXXXXXooXXXXXXXXX  OO   XXXXXX  @@@@@@@@@@@@@@@",
"@@@@@@@@@@@@@@@@@@@@@@  ooXXXXXXXXXX.....XXXXXXXXooXXXXXXXXX  OO   XXXXXX  @@@@@@@@@@@@@@@",
"@@@@@@@@@@@@@@@@@@@@@ ooXXXXXXXXXXXXXXXXXXXXXXXooXXoXXXXXXXXXX  OO       oo  @@@@@@@@@@@@@",
"@@@@@@@@@@@@@@@@@@@@@ ooXXXXXXXXXXXXXXXXXXXXXXXooXXoXXXXXXXXXX  OO       oo  @@@@@@@@@@@@@",
"@@@@@@@@@@@@@@@@@@@  oXXXXXXXXXXXXXXXXXXXXXXXXXXXooXXXXXXXXXXXXX   OOOO  XX  @@@@@@@@@@@@@",
"@@@@@@@@@@@@@@@@@@@  oXXXXXXXXXXXXXXXXXXXXXXXXXXXooXXXXXXXXXXXXX   OOOO  XX  @@@@@@@@@@@@@",
"@@@@@@@@@@@@@@@@@@@  oXXXXXXooooXXXXXXXXXXXXXXXXXXXXXXXXXXXXXXXXXXX    XXXXoo  @@@@@@@@@@@",
"@@@@@@@@@@@@@@@@@@@  oXXXXXXooooXXXXXXXXXXXXXXXXXXXXXXXXXXXXXXXXXXX    XXXXoo  @@@@@@@@@@@",
"@@@@@@@@@@@@@@@@@  ooXXXXXooXXXXooXXXXXXXXXXXXXXXXXXXXXXXXXXXXXXXXXXXXXXXXXXXoo  @@@@@@@@@",
"@@@@@@@@@@@@@@@@@  ooXXXXXooXXXXooXXXXXXXXXXXXXXXXXXXXXXXXXXXXXXXXXXXXXXXXXXXoo  @@@@@@@@@",
"@@@@@@@@@@@@@@@  ooXXXXXXXXXooooXXXXXXXXXXXXXXXXXXXXXXXXXXXXXXXXXXXXXXXXXXXXXXXoo @@@@@@@@",
"@@@@@@@@@@@@@@@  ooXXXXXXXXXooooXXXXXXXXXXXXXXXXXXXXXXXXXXXXXXXXXXXXXXXXXXXXXXXoo @@@@@@@@",
"@@@@@@@@@@@@@  ooXXXXXXXXXXXXXXXXXXXXXXXXXXXXXXXXXXX..XXXXXXXXXXXXXXXXXXXXXXXXXXXo  @@@@@@",
"@@@@@@@@@@@@@  ooXXXXXXXXXXXXXXXXXXXXXXXXXXXXXXXXXXX..XXXXXXXXXXXXXXXXXXXXXXXXXXXo  @@@@@@",
"@@@@@@@@@@@@@  ooXXXXXXXXXXXXXXXXXXXXXXXXXXXXXXXXXXX..XXXXXXXXXXXXXXXXXXXXXXXXXXXXoo  @@@@",
"@@@@@@@@@@@  ooXXXXXXXXXXXXXXXXXXXXXXXXXXXXXXXXXXXXXXX..XXXXXX..XXXXXXXXXXXXXXXXXXXXoo  @@",
"@@@@@@@@@@@  ooXXXXXXXXXXXXXXXXXXXXXXXXXXXXXXXXXXXXXXX..XXXXXX..XXXXXXXXXXXXXXXXXXXXoo  @@",
"@@@@@@@    XXXXXXXXXXXXXXXXXXXXXXXXXXXXXXXXXXXXXXXXXXXXX......XXXXXXXXXXXXXXXXXXXXXXXXoo  ",
"@@@@@@@    XXXXXXXXXXXXXXXXXXXXXXXXXXXXXXXXXXXXXXXXXXXXX......XXXXXXXXXXXXXXXXXXXXXXXXoo  ",
"@@@@   XXXXXXXXXXXXXXXXXXXXXXXXXXXXXXXXXXXXXXXXXXXXXXXXXXXXXXXXXXXXXXXXXXXXXXXXXXXXXXXoo  ",
"@@@@   XXXXXXXXXXXXXXXXXXXXXXXXXXXXXXXXXXXXXXXXXXXXXXXXXXXXXXXXXXXXXXXXXXXXXXXXXXXXXXXoo  ",
"@@                                                                                        ",
"@@                                                                                        "
};
