/* XPM */
static char *result[] = {
/* columns rows colors chars-per-pixel */
"90 51 7 1 ",
"  c #050914",
". c #52294B",
"X c #8F5765",
"o c #CF968C",
"O c #FFCF8E",
"+ c #FAFFFF",
"@ c None",
/* pixels */
"@@@@@@@@@@@@@@@@@@@@@@@@@@@@@@@@@@@@@@@@@@@@@@@@@@@@@@@@@@@@@@@@@@@@@@@@@@@@@@@@@@@@@@@@@@",
"@@@@@@@@@@@@@@@@@@@@@@@@@@@@@@@@@@@@@@@@@@@@@@@@@@@@@@@@@@@@@@@@@@@@@@@@@@@@@@@@@@@@@@@@@@",
"@@@@@@@@@@@@@@@@@@@@@@@@@@@@@@@@@@@@@               @@@@@@@@@@@@@@@@@@@@@@@@@@@@@@@@@@@@@@",
"@@@@@@@@@@@@@@@@@@@@@@@@@@@@@@@@@@@@@               @@@@@@@@@@@@@@@@@@@@@@@@@@@@@@@@@@@@@@",
"@@@@@@@@@@@@@@@@@@@@@@@@@@@@@@@@@@@@ ooooooooooooooo  @@@@@@@@@@@@@@@@@@@@@@@@@@@@@@@@@@@@",
"@@@@@@@@@@@@@@@@@@@@@@@@@@@@@@@@@@@@ ooooooooooooooo  @@@@@@@@@@@@@@@@@@@@@@@@@@@@@@@@@@@@",
"@@@@@@@@@@@@@@@@@@@@@@@@@@@@        oXXXXooooooooXXXoo        @@@@@@@@@@@@@@@@@@@@@@@@@@@@",
"@@@@@@@@@@@@@@@@@@@@@@@@@@@@        oXXXXooooooooXXXoo        @@@@@@@@@@@@@@@@@@@@@@@@@@@@",
"@@@@@@@@@@@@@@@@@@@@@@@@@@  ++++++++ XXXXXXXXXXXXXXX  ++++++++  @@@@@@@@@@@@@@@@@@@@@@@@@@",
"@@@@@@@@@@@@@@@@@@@@@@@@  ++++    +++  XXXXXXXXXXXX ++++    ++++  @@@@@@@@@@@@@@@@@@@@@@@@",
"@@@@@@@@@@@@@@@@@@@@@@@@  ++++    +++  XXXXXXXXXXXX ++++    ++++  @@@@@@@@@@@@@@@@@@@@@@@@",
"@@@@@@@@@@@@@@@@@@@@@@@@  ++        +  XXXXXXXXXXXX ++        ++  @@@@@@@@@@@@@@@@@@@@@@@@",
"@@@@@@@@@@@@@@@@@@@@@@@@  ++        +  XXXXXXXXXXXX ++        ++  @@@@@@@@@@@@@@@@@@@@@@@@",
"@@@@@@@@@@@@@@@@@@@@@@@@  ++        +  XXXXXXXXXXXX ++        ++  @@@@@@@@@@@@@@@@@@@@@@@@",
"@@@@@@@@@@@@@@@@@@@@@@@@  ++        +  XXXXXXXXXXXX ++        ++  @@@@@@@@@@@@@@@@@@@@@@@@",
"@@@@@@@@@@@@@@@@@@@@@@    ++++    +++  XXXXXXXXXXXX ++++    ++++   @@@@@@@@@@@@@@@@@@@@@@@",
"@@@@@@@@@@@@@@@@@@@@@@    ++++    +++  XXXXXXXXXXXX ++++    ++++   @@@@@@@@@@@@@@@@@@@@@@@",
"@@@@@@@@@@@@@@@@@@@@@ XXXX  ++++++++ XXXXXXXXXXXXXXX  ++++++++  XXX  @@@@@@@@@@@@@@@@@@@@@",
"@@@@@@@@@@@@@@@@@@@@@ XXXX  ++++++++ XXXXXXXXXXXXXXX  ++++++++  XXX  @@@@@@@@@@@@@@@@@@@@@",
"@@@@@@@@@@@@@@@@@@@  XooooXX        XXXXXXXXXXXXXXXXXX        XXoooXX  @@@@@@@@@@@@@@@@@@@",
"@@@@@@@@@@@@@@@@@@@  XooooXX        XXXXXXXXXXXXXXXXXX        XXoooXX  @@@@@@@@@@@@@@@@@@@",
"@@@@@@@@@@@@@@@@@  XXXooooXXXXXXXXXXXXXXXXXXXXXXXXXXXXXXXXXXXXXXoooXXXX  @@@@@@@@@@@@@@@@@",
"@@@@@@@@@@@@@@@@@  XXXooooXXXXXXXXXXXXXXXXXXXXXXXXXXXXXXXXXXXXXXoooXXXX  @@@@@@@@@@@@@@@@@",
"@@@@@@@@@@@@@@@@@  XX.XXXXXX..XXXXXXXXXXXXXXXXXXXXXXXXXXXXXX..XXXXX..XX  @@@@@@@@@@@@@@@@@",
"@@@@@@@@@@@@@@@@@  XX.XXXXXX..XXXXXXXXXXXXXXXXXXXXXXXXXXXXXX..XXXXX..XX  @@@@@@@@@@@@@@@@@",
"@@@@@@@@@@@@@@@  XXXXX......XXXXXXXXXXXXXXXXXXXXXXXXXXXXXXXXXX.....XXXXXX  @@@@@@@@@@@@@@@",
"@@@@@@@@@@@@@  ooXXXXXXX..XXXXXXXXXXXXXXXXXXXXXXXXXXXXXXXXXXXXXX..XXXXXXXoo  @@@@@@@@@@@@@",
"@@@@@@@@@@@@@  ooXXXXXXX..XXXXXXXXXXXXXXXXXXXXXXXXXXXXXXXXXXXXXX..XXXXXXXoo  @@@@@@@@@@@@@",
"@@@@@@@@@@@  ooXXXXXXXXXXX..XXXXXXXX..................XXXXXXXX..XXXXXXXXXXXoo  @@@@@@@@@@@",
"@@@@@@@@@@@  ooXXXXXXXXXXX..XXXXXXXX..................XXXXXXXX..XXXXXXXXXXXoo  @@@@@@@@@@@",
"@@@@@@@@@  XXXXXXXXXXXXXXXXX........ OOOO  XXXX  OOO  ........XXXXXXXXXXXXXXXXX  @@@@@@@@@",
"@@@@@@@@@  XXXXXXXXXXXXXXXXX........ OOOO  XXXX  OOO  ........XXXXXXXXXXXXXXXXX  @@@@@@@@@",
"@@@@@@@  ooXXXXXXXXXXXXXXXXXXX  OOOO     XXXXXXXX     OOOO  XXXXXXXXXXXXXXXXXXXoo @@@@@@@@",
"@@@@@@@  ooXXXXXXXXXXXXXXXXXXX  OOOO     XXXXXXXX     OOOO  XXXXXXXXXXXXXXXXXXXoo @@@@@@@@",
"@@@@@@@  XXXXXXXXXXXXXXXXXXXXXXX    XXXXXXXXXXXXXXXXXX    XXXXXXooXXXXXXXXXXXXXXX @@@@@@@@",
"@@@@@@@  XXXXXXXXXXXXXXXXXXXXXXX    XXXXXXXXXXXXXXXXXX    XXXXXXooXXXXXXXXXXXXXXX @@@@@@@@",
"@@@@@@ ooXXXXXXXXXXXXXXXXXXXooXXXXXXXXXXXXXXXXXXXXXXXXXXXXXXXXooXXoXXXXXXXX..XXXXo  @@@@@@",
"@@@@@@ ooXXXXXXXXXXXXXXXXXXXooXXXXXXXXXXXXXXXXXXXXXXXXXXXXXXXXooXXoXXXXXXXX..XXXXo  @@@@@@",
"@@@@@@ XXXXXX..XXXXXXXXXXXooXXooXXXXXXXXXXXXXXXXXXXXXXXXXXXXXXXXooXXXXXXXXX..XXXXX  @@@@@@",
"@@@@@@ XXXXXX..XXXXXXXXXXXooXXooXXXXXXXXXXXXXXXXXXXXXXXXXXXXXXXXooXXXXXXXXX..XXXXX  @@@@@@",
"@@@@  oXXXXXXXX..XXXXXXXXXXXooXXXXXXXXXXXXXXXXXXXXXXXXXXXXXXXXXXXXX..XXXX..XXXXXXXoo  @@@@",
"@@@@  oXXXXXXXX..XXXXXXXXXXXooXXXXXXXXXXXXXXXXXXXXXXXXXXXXXXXXXXXXX..XXXX..XXXXXXXoo  @@@@",
"@@@@  XXXXXXXXXXX....XXXXXXXXXXXXXXXXXXXXXXXXXXXXXXXXXXXXXXXXXXXXXXXX....XXXXXXXXXXX  @@@@",
"@@  XXXXXXXXXXXXXXXXXXXXXXXXXXXXXXXXXXXXXXXXXXXXXXXXXXXXXXXXXXXXXXXXXXXXXXXXXXXXXXXXXX  @@",
"@@  XXXXXXXXXXXXXXXXXXXXXXXXXXXXXXXXXXXXXXXXXXXXXXXXXXXXXXXXXXXXXXXXXXXXXXXXXXXXXXXXXX  @@",
"  XXXXXXXXXXXXXXXXXXXXXXXXXXXXXXXXXXXXXXXXXXX           XXXXXXXXXXXXXXXXXXXXXXXXXXXXXXXX  ",
"  XXXXXXXXXXXXXXXXXXXXXXXXXXXXXXXXXXXXXXXXXXX           XXXXXXXXXXXXXXXXXXXXXXXXXXXXXXXX  ",
"  XXXXXXXXXXXXXXXXXXXXXXXXXXXXXXXXXXXXXXXXX  ...........  XXXXXXXXXXXXXXXXXXXXXXXXXXXXXX  ",
"  XXXXXXXXXXXXXXXXXXXXXXXXXXXXXXXXXXXXXXXXX  ...........  XXXXXXXXXXXXXXXXXXXXXXXXXXXXXX  ",
"                          XXXXXXXXXX       ...............                                ",
"                          XXXXXXXXXX       ...............                                "
};
